<svg width="189" height="40" viewBox="0 0 189 40" fill="none" xmlns="http://www.w3.org/2000/svg">
<rect width="189" height="39.0292" rx="19.5146" fill="#90882B"/>
<path d="M51.2042 25.9387H49.3036V16.9592H45.9552V15.3359H54.5473V16.9592H51.2042V25.9387Z" fill="#E9E9E9"/>
<path d="M65.0016 18.5204C65.0235 19.204 64.8109 19.8739 64.4007 20.4143C63.915 20.9841 63.2672 21.3843 62.5478 21.5587V21.5911L65.6342 25.9497H63.3552L60.5255 21.8347H59.2232V25.9388H57.3226V15.336H60.4699C60.9566 15.3339 61.4428 15.3637 61.9258 15.4253C62.3198 15.4723 62.7077 15.563 63.0825 15.6959C63.6444 15.8989 64.1352 16.2669 64.4933 16.7537C64.8436 17.2717 65.0218 17.8911 65.0016 18.5204ZM60.1629 20.2087C60.5316 20.2128 60.9003 20.1929 61.2667 20.1492C61.5277 20.1209 61.7845 20.0609 62.0317 19.9706C62.3568 19.868 62.6372 19.654 62.8258 19.3645C62.9765 19.0966 63.0525 18.7916 63.0455 18.4826C63.0508 18.219 62.9907 17.9583 62.8708 17.725C62.736 17.4885 62.5271 17.3055 62.2779 17.2055C62.0607 17.1113 61.8317 17.0485 61.5975 17.0189C61.2605 16.9749 60.9209 16.955 60.5811 16.9593H59.2232V20.2059L60.1629 20.2087Z" fill="#E9E9E9"/>
<path d="M74.5384 23.2333H70.6314L69.615 25.9388H67.59L71.7088 15.3359H73.4399L77.5587 25.9388H75.5575L74.5384 23.2333ZM72.569 17.8845C72.2073 18.9938 71.88 19.9209 71.587 20.6657L71.2323 21.6099H73.9138L73.559 20.6657C73.2855 19.9082 72.9661 18.9811 72.6008 17.8845H72.569Z" fill="#E9E9E9"/>
<path d="M85.7435 20.2653C86.4882 21.3475 87.0935 22.3089 87.5594 23.1495H87.6044C87.5427 21.7696 87.5118 20.7659 87.5118 20.1382V15.3359H89.4123V25.9387H87.4191L84.0283 21.058C83.4319 20.2103 82.8143 19.23 82.1754 18.1172H82.1304C82.1922 19.4159 82.2231 20.4223 82.2231 21.1365V25.9387H80.3225V15.3359H82.3157L85.7435 20.2653Z" fill="#E9E9E9"/>
<path d="M98.298 22.8965C98.3092 22.6629 98.241 22.4325 98.1048 22.2445C97.9626 22.0673 97.7811 21.9272 97.5754 21.8359C97.335 21.7241 97.084 21.638 96.8263 21.579C96.5483 21.5113 96.2598 21.4464 95.9528 21.3841C95.5628 21.2977 95.1775 21.1903 94.7986 21.0622C94.4496 20.9482 94.122 20.7744 93.8299 20.5481C93.547 20.3262 93.3187 20.04 93.1628 19.7122C92.9845 19.3147 92.8993 18.8803 92.914 18.4432C92.9028 17.9398 93.0004 17.4401 93.1999 16.9796C93.3807 16.5809 93.6477 16.2294 93.9808 15.9515C94.3251 15.6703 94.7212 15.4624 95.1454 15.3401C95.6308 15.1988 96.1338 15.1304 96.6384 15.1372C97.1982 15.1383 97.7566 15.1945 98.306 15.3049C98.7976 15.4017 99.2784 15.5494 99.7407 15.7459V17.3963C99.2406 17.1912 98.7231 17.0337 98.1947 16.9255C97.7363 16.8318 97.27 16.7829 96.8025 16.7794C96.2968 16.7481 95.7933 16.8695 95.3545 17.1284C95.1872 17.2431 95.0521 17.4006 94.963 17.5853C94.8737 17.7699 94.8335 17.9753 94.8464 18.1808C94.8367 18.4146 94.8947 18.6461 95.0131 18.8464C95.1291 19.0256 95.2851 19.174 95.4684 19.2793C95.6752 19.3993 95.8969 19.4903 96.1275 19.5499C96.3763 19.6202 96.6384 19.6824 96.9216 19.7419C97.361 19.8366 97.7792 19.9448 98.1816 20.0692C98.5588 20.1851 98.916 20.3603 99.2404 20.5887C99.5517 20.8119 99.8045 21.1103 99.9763 21.4572C100.167 21.8807 100.258 22.3441 100.241 22.81C100.254 23.3222 100.148 23.8302 99.9313 24.2925C99.7274 24.7067 99.4252 25.062 99.0524 25.326C98.6332 25.6168 98.1632 25.8226 97.6681 25.9321C97.0831 26.0699 96.4843 26.1371 95.8839 26.1323C95.3256 26.1328 94.7687 26.0757 94.2216 25.9619C93.7496 25.8749 93.2933 25.7143 92.869 25.4857V23.8623C93.3505 24.0795 93.8526 24.2454 94.3672 24.3575C94.862 24.4613 95.3657 24.513 95.8707 24.5117C96.167 24.5124 96.4628 24.4872 96.7549 24.436C97.0275 24.3888 97.2912 24.2975 97.5357 24.1655C97.7572 24.0495 97.9473 23.8795 98.0889 23.6703C98.2348 23.4405 98.3079 23.1703 98.298 22.8965Z" fill="#E9E9E9"/>
<path d="M111.179 18.1603C111.183 18.6006 111.079 19.035 110.877 19.4239C110.645 19.8376 110.296 20.1702 109.876 20.3789V20.4113C110.126 20.4955 110.364 20.6108 110.586 20.7549C110.795 20.8901 110.981 21.0592 111.136 21.2554C111.291 21.4504 111.412 21.6708 111.494 21.9074C111.581 22.1687 111.624 22.4431 111.621 22.7191C111.617 23.001 111.577 23.2813 111.502 23.5524C111.412 23.8629 111.269 24.1544 111.078 24.4128C110.853 24.7114 110.58 24.9693 110.271 25.1757C109.881 25.433 109.451 25.6205 109 25.7303C108.87 25.7628 108.735 25.7925 108.577 25.8196C108.418 25.8466 108.256 25.8683 108.068 25.8845C107.88 25.9008 107.677 25.9169 107.449 25.9251C107.221 25.9332 106.965 25.9251 106.681 25.9251H103.664V15.3385H107.272C107.897 15.3202 108.522 15.3996 109.125 15.5739C109.45 15.6777 109.758 15.8319 110.038 16.0311C110.283 16.2031 110.499 16.4141 110.678 16.6561C110.842 16.8767 110.968 17.1235 111.052 17.3866C111.133 17.6362 111.176 17.8973 111.179 18.1603ZM107.28 19.7052C107.671 19.7203 108.062 19.6625 108.434 19.5348C108.685 19.44 108.899 19.2631 109.042 19.0315C109.166 18.811 109.229 18.5605 109.225 18.3064C109.229 18.0411 109.156 17.7804 109.016 17.557C108.841 17.3136 108.588 17.1411 108.301 17.07C108.142 17.0232 107.979 16.9924 107.814 16.978C107.626 16.9618 107.396 16.951 107.123 16.951H105.564V19.7052H107.28ZM105.564 21.3284V24.3045H106.806C107.137 24.3045 107.42 24.3045 107.658 24.2774C107.865 24.2637 108.07 24.2329 108.272 24.1855C108.501 24.1387 108.723 24.0604 108.931 23.9528C109.091 23.8658 109.235 23.7524 109.358 23.6173C109.463 23.4991 109.543 23.3588 109.59 23.206C109.636 23.0508 109.66 22.8895 109.659 22.7272C109.665 22.4483 109.58 22.1753 109.418 21.9507C109.227 21.7061 108.963 21.5306 108.667 21.4502C108.494 21.3993 108.316 21.3648 108.137 21.3474C107.879 21.3233 107.62 21.3124 107.362 21.3149L105.564 21.3284Z" fill="#E9E9E9"/>
<path d="M114.864 25.9387V15.3359H116.762V25.9387H114.864Z" fill="#E9E9E9"/>
<path d="M130.192 20.6397C130.2 21.394 130.087 22.1445 129.856 22.8609C129.649 23.5041 129.314 24.0964 128.871 24.6006C128.431 25.0947 127.888 25.4819 127.283 25.7342C125.903 26.2753 124.375 26.2753 122.995 25.7342C122.389 25.4816 121.847 25.0943 121.406 24.6006C120.964 24.0964 120.629 23.5041 120.422 22.8609C120.19 22.1447 120.075 21.3942 120.083 20.6397C120.075 19.8843 120.19 19.1329 120.422 18.4158C120.629 17.7726 120.964 17.1803 121.406 16.6761C121.847 16.1823 122.389 15.795 122.995 15.5425C124.375 15.0014 125.903 15.0014 127.283 15.5425C127.888 15.7947 128.431 16.182 128.871 16.6761C129.314 17.1803 129.649 17.7726 129.856 18.4158C130.087 19.1331 130.2 19.8845 130.192 20.6397ZM128.23 20.6397C128.241 20.0661 128.162 19.4944 127.997 18.946C127.866 18.5024 127.646 18.0909 127.354 17.7367C127.091 17.4206 126.757 17.1739 126.38 17.017C125.582 16.6996 124.698 16.6996 123.9 17.017C123.523 17.1741 123.187 17.4208 122.921 17.7367C122.63 18.0922 122.411 18.5033 122.277 18.946C122.114 19.4947 122.035 20.0661 122.045 20.6397C122.035 21.2123 122.114 21.7828 122.277 22.3307C122.411 22.772 122.63 23.1814 122.921 23.5346C123.189 23.8493 123.524 24.0965 123.9 24.2569C124.697 24.5779 125.583 24.5779 126.38 24.2569C126.757 24.0976 127.091 23.8501 127.356 23.5346C127.651 23.1828 127.869 22.773 128 22.3307C128.164 21.7831 128.243 21.2124 128.234 20.6397H128.23Z" fill="#E9E9E9"/>
<path d="M137.366 25.9387H135.465V16.9592H132.117V15.3359H140.709V16.9592H137.366V25.9387Z" fill="#E9E9E9"/>
<path d="M145.382 24.3155H150.486V25.9387H143.485V15.3359H150.202V16.9592H145.382V19.7026H149.525V21.3259H145.382V24.3155Z" fill="#E9E9E9"/>
<path d="M158.854 16.7792C158.364 16.7778 157.878 16.8695 157.422 17.0498C156.996 17.2131 156.61 17.4698 156.291 17.8019C155.965 18.1549 155.716 18.5744 155.559 19.0329C155.373 19.5715 155.283 20.1395 155.294 20.7104C155.283 21.2685 155.365 21.8246 155.535 22.3552C155.676 22.7975 155.913 23.2022 156.225 23.5402C156.532 23.8615 156.907 24.1068 157.321 24.2572C157.793 24.4254 158.291 24.507 158.791 24.498C159.195 24.4982 159.598 24.4666 159.998 24.4033C160.386 24.3473 160.77 24.2567 161.144 24.1328V25.8047C160.76 25.9153 160.369 25.9985 159.974 26.0537C159.542 26.115 159.107 26.1457 158.672 26.1456C157.883 26.1575 157.1 26.0256 156.357 25.756C155.729 25.5256 155.158 25.156 154.685 24.6738C154.232 24.1964 153.887 23.6227 153.677 22.9937C153.444 22.2972 153.33 21.5652 153.34 20.8293C153.332 20.0635 153.455 19.302 153.7 18.5784C153.925 17.9132 154.279 17.3013 154.74 16.7792C155.213 16.2575 155.792 15.8483 156.437 15.5807C157.171 15.2803 157.955 15.1296 158.746 15.137C159.163 15.1363 159.581 15.1671 159.994 15.229C160.355 15.2814 160.709 15.3675 161.054 15.486V17.1363C160.676 17.0155 160.289 16.925 159.897 16.8658C159.552 16.812 159.203 16.7831 158.854 16.7792Z" fill="#E9E9E9"/>
<path d="M166.29 19.7026H171.099V15.3359H173V25.9387H171.099V21.3259H166.29V25.9387H164.392V15.3359H166.29V19.7026Z" fill="#E9E9E9"/>
<path d="M34.7938 21.6141L36.4429 22.3553C37.7001 22.9208 38.4784 23.9002 38.4784 24.9067C38.4784 25.8346 37.8351 26.5109 37.4513 26.833C36.52 27.5575 35.3763 27.9389 34.2062 27.9151H23.4381C25.9554 25.6804 28.9148 23.4214 31.5062 22.4122L32.2077 22.2661L28.4726 20.4453C22.0167 23.535 16 31.0292 16 31.0292H34.2008C38.2349 31.0292 41.5119 28.2912 41.5119 24.9067C41.5119 22.5773 39.9554 20.548 37.6631 19.5145L31.6703 16.8091C29.0789 15.7891 25.9554 13.3352 23.4381 11.0924H34.2008C35.3714 11.0751 36.5133 11.4632 37.4408 12.1935C37.8246 12.5155 38.4677 13.1945 38.4677 14.1225C38.4677 15.129 37.6896 16.1084 36.4322 16.6738L35.7175 16.8416L39.029 18.5785C40.6992 17.4584 41.5039 16.0543 41.5039 14.1225C41.5119 10.7407 38.2349 8 34.2008 8H16C16 8 23.8166 16.5764 30.4368 19.5633L34.7938 21.6141Z" fill="#E9E9E9"/>
</svg>
