<svg width="110" height="39" viewBox="0 0 110 39" fill="none" xmlns="http://www.w3.org/2000/svg">
<rect x="0.5" y="0.5" width="109" height="38" rx="19" stroke="#808080"/>
<g clip-path="url(#clip0_401_7446)">
<path d="M18.4918 8.19434H15.882V9.45304H18.4918V8.19434Z" fill="#808080"/>
<path d="M18.4918 10.5273H15.882V11.9713H18.4918V10.5273Z" fill="#808080"/>
<path d="M18.4918 13.0439H15.882V14.9505H18.4918V13.0439Z" fill="#808080"/>
<path d="M18.4918 16.0244H15.882V18.0051H18.4918V16.0244Z" fill="#808080"/>
<path d="M15.882 21.5782H24.619V19.0791H15.882V21.5782Z" fill="#808080"/>
<path d="M25.8599 21.5775H28.3404V12.3037H25.8599V21.5775Z" fill="#808080"/>
<path d="M25.8226 8.19434H28.3769V10.6934H25.8226V8.19434Z" fill="#808080"/>
<path d="M34.4488 18.5048L32.1719 12.3037H29.4137L33.1898 21.5778H35.6889L39.2801 12.3037H36.6516L34.4488 18.5048Z" fill="#808080"/>
<path d="M51.1282 21.5771H53.7381V20.3184H51.1282V21.5771Z" fill="#808080"/>
<path d="M51.1282 19.2447H53.7381V17.8008H51.1282V19.2447Z" fill="#808080"/>
<path d="M51.1282 16.7281H53.7381V14.8213H51.1282V16.7281Z" fill="#808080"/>
<path d="M51.1282 13.7473H53.7381V11.7666H51.1282V13.7473Z" fill="#808080"/>
<path d="M60.5504 17.7645L55.0893 8.17578H53.7381H51.1282V10.6932H53.7381L59.9392 21.5775H63.1419V8.17578H60.5504V17.7645Z" fill="#808080"/>
<path d="M79.5975 18.5048L77.3023 12.3037H74.5627L78.3202 21.5778H80.8376L84.4105 12.3037H81.8003L79.5975 18.5048Z" fill="#808080"/>
<path d="M46.5187 12.3029V13.4692C46.3152 12.9324 45.538 12.0625 43.8719 12.0625C41.1879 12.0625 39.4108 14.2098 39.4108 16.8938C39.4108 19.6889 41.2248 21.8361 43.9644 21.8361C45.1862 21.8361 46.1672 21.2066 46.5559 20.3184L46.8336 21.5771H48.9626V12.3029H46.5187ZM44.2607 19.6703C42.9095 19.6703 41.9282 18.5782 41.9282 16.8938C41.9282 15.2094 42.9095 14.2284 44.2607 14.2284C45.5749 14.2284 46.5187 15.2094 46.5187 16.8938C46.5187 18.5968 45.5566 19.6703 44.2607 19.6703Z" fill="#808080"/>
<path d="M69.6375 12.0439C66.8797 12.0439 64.8062 14.0988 64.8062 16.9494C64.8062 19.7814 66.8797 21.8548 69.6375 21.8548C72.414 21.8548 74.506 19.7814 74.506 16.9494C74.506 14.0988 72.414 12.0439 69.6375 12.0439ZM69.6375 19.5592C68.4344 19.5592 67.305 18.6707 67.305 16.9494C67.305 15.1909 68.4344 14.3209 69.6375 14.3209C70.8779 14.3209 71.97 15.1909 71.97 16.9494C71.97 18.6707 70.8779 19.5592 69.6375 19.5592Z" fill="#808080"/>
<path d="M91.6661 12.3029V13.4692C91.4626 12.9324 90.6848 12.0625 89.0191 12.0625C86.3347 12.0625 84.5579 14.2098 84.5579 16.8938C84.5579 19.6889 86.3717 21.8361 89.1115 21.8361C90.3333 21.8361 91.3143 21.2066 91.7031 20.3184L91.9807 21.5771H94.1094V12.3029H91.6661ZM89.4078 19.6703C88.0563 19.6703 87.0753 18.5782 87.0753 16.8938C87.0753 15.2094 88.0563 14.2284 89.4078 14.2284C90.722 14.2284 91.6661 15.2094 91.6661 16.8938C91.6661 18.5968 90.7034 19.6703 89.4078 19.6703Z" fill="#808080"/>
<path d="M15.882 27.1465H16.4519V28.5662H17.9234V27.1465H18.4934V30.7731H17.9234V29.1048H16.4519V30.7731H15.882V27.1465Z" fill="#808080"/>
<path d="M21.8659 29.6177H20.0161C20.0161 30.0009 20.2389 30.3375 20.6636 30.3375C20.9435 30.3375 21.2131 30.1821 21.3477 29.8973L21.8088 30.0788C21.555 30.5708 21.2596 30.8144 20.6636 30.8144C19.8039 30.8144 19.4462 30.089 19.4462 29.4672C19.4462 28.8455 19.8039 28.1201 20.6636 28.1201C21.4979 28.1201 21.8659 28.799 21.8659 29.3844V29.6177ZM20.0264 29.1669H21.2959C21.2494 28.8765 21.0524 28.5967 20.6636 28.5967C20.3062 28.5967 20.0835 28.8405 20.0264 29.1669Z" fill="#808080"/>
<path d="M23.6757 29.1669H24.1265V29.0527C24.1265 28.7263 23.8932 28.5967 23.6186 28.5967C23.4061 28.5967 23.2196 28.7108 23.1315 28.9441L22.6391 28.8402C22.748 28.4 23.1213 28.1201 23.6236 28.1201C24.2298 28.1201 24.6651 28.3845 24.6651 29.1511V30.7728H24.2093L24.1572 30.4309C23.9863 30.6692 23.717 30.8144 23.349 30.8144C22.9137 30.8144 22.5461 30.5655 22.5461 30.0217C22.5461 29.4828 23.0071 29.1669 23.6757 29.1669ZM23.4424 30.3375C23.774 30.3375 24.1265 30.1253 24.1265 29.6742V29.6177H23.6549C23.3232 29.6177 23.116 29.7728 23.116 30.0217C23.116 30.1979 23.2143 30.3375 23.4424 30.3375Z" fill="#808080"/>
<path d="M26.1919 30.7726H25.6533V27.1045H26.1919V30.7726Z" fill="#808080"/>
<path d="M26.9384 28.1615H27.3737V27.4414L27.9123 27.1045V28.1615H28.5911V28.6381H27.9123V29.9126C27.9123 30.208 28.0215 30.3373 28.2598 30.3373C28.3529 30.3373 28.4152 30.3218 28.5083 30.2647L28.6482 30.7208C28.5083 30.7885 28.3737 30.8142 28.2285 30.8142C27.7364 30.8142 27.3737 30.5238 27.3737 29.8816V28.6381H26.9384V28.1615Z" fill="#808080"/>
<path d="M29.9744 27.1045V28.6071C30.1609 28.3378 30.4615 28.12 30.8552 28.12C31.337 28.12 31.6271 28.379 31.6271 28.9334V30.7726H31.0882V29.0734C31.0882 28.6744 30.9225 28.5965 30.6793 28.5965C30.3839 28.5965 29.9744 28.975 29.9744 29.6694V30.7726H29.4358V27.1045H29.9744Z" fill="#808080"/>
<path d="M34.5392 27.0479C34.7518 27.0479 34.9125 27.2188 34.9125 27.426C34.9125 27.6333 34.7518 27.794 34.5392 27.794C34.327 27.794 34.1663 27.6333 34.1663 27.426C34.1663 27.2188 34.327 27.0479 34.5392 27.0479ZM34.8089 30.7728H34.2699V28.1617H34.8089V30.7728Z" fill="#808080"/>
<path d="M36.3929 28.1617V28.6072C36.5793 28.2963 36.8902 28.1201 37.2374 28.1201C37.6934 28.1201 38.004 28.3947 38.004 28.9023V30.7728H37.4654V29.0735C37.4654 28.7211 37.3047 28.5967 37.0615 28.5967C36.7245 28.5967 36.3929 28.9957 36.3929 29.7161V30.7728H35.8542V28.1617H36.3929Z" fill="#808080"/>
<path d="M39.5859 28.1617V28.6072C39.7724 28.2963 40.0833 28.1201 40.4304 28.1201C40.8865 28.1201 41.1971 28.3947 41.1971 28.9023V30.7728H40.6585V29.0735C40.6585 28.7211 40.4978 28.5967 40.2545 28.5967C39.9176 28.5967 39.5859 28.9957 39.5859 29.7161V30.7728H39.0473V28.1617H39.5859Z" fill="#808080"/>
<path d="M43.3558 28.1201C44.164 28.1201 44.6406 28.7316 44.6406 29.4672C44.6406 30.2029 44.164 30.8144 43.3558 30.8144C42.5476 30.8144 42.0707 30.2029 42.0707 29.4672C42.0707 28.7316 42.5476 28.1201 43.3558 28.1201ZM43.3558 30.3375C43.8274 30.3375 44.0706 29.9075 44.0706 29.4672C44.0706 29.027 43.8274 28.5967 43.3558 28.5967C42.8842 28.5967 42.641 29.027 42.641 29.4672C42.641 29.9075 42.8842 30.3375 43.3558 30.3375Z" fill="#808080"/>
<path d="M45.6715 28.1621L46.2414 30.0376L46.8114 28.1621H47.3602L46.4952 30.7732H45.9873L45.122 28.1621H45.6715Z" fill="#808080"/>
<path d="M48.9729 29.1669H49.4237V29.0527C49.4237 28.7263 49.1904 28.5967 48.9158 28.5967C48.7033 28.5967 48.5168 28.7108 48.4287 28.9441L47.9363 28.8402C48.0452 28.4 48.4185 28.1201 48.9208 28.1201C49.527 28.1201 49.9623 28.3845 49.9623 29.1511V30.7728H49.5065L49.4544 30.4309C49.2835 30.6692 49.0142 30.8144 48.6462 30.8144C48.2109 30.8144 47.8433 30.5655 47.8433 30.0217C47.8433 29.4828 48.3043 29.1669 48.9729 29.1669ZM48.7396 30.3375C49.0712 30.3375 49.4237 30.1253 49.4237 29.6742V29.6177H48.9521C48.6205 29.6177 48.4132 29.7728 48.4132 30.0217C48.4132 30.1979 48.5116 30.3375 48.7396 30.3375Z" fill="#808080"/>
<path d="M50.6241 28.1615H51.0594V27.4414L51.598 27.1045V28.1615H52.2769V28.6381H51.598V29.9126C51.598 30.208 51.7072 30.3373 51.9455 30.3373C52.0386 30.3373 52.101 30.3218 52.194 30.2647L52.334 30.7208C52.194 30.7885 52.0594 30.8142 51.9142 30.8142C51.4221 30.8142 51.0594 30.5238 51.0594 29.8816V28.6381H50.6241V28.1615Z" fill="#808080"/>
<path d="M53.3788 27.0479C53.5911 27.0479 53.7521 27.2188 53.7521 27.426C53.7521 27.6333 53.5911 27.794 53.3788 27.794C53.1663 27.794 53.0059 27.6333 53.0059 27.426C53.0059 27.2188 53.1663 27.0479 53.3788 27.0479ZM53.6481 30.7728H53.1092V28.1617H53.6481V30.7728Z" fill="#808080"/>
<path d="M55.7962 28.1201C56.6044 28.1201 57.0809 28.7316 57.0809 29.4672C57.0809 30.2029 56.6044 30.8144 55.7962 30.8144C54.9879 30.8144 54.5111 30.2029 54.5111 29.4672C54.5111 28.7316 54.9879 28.1201 55.7962 28.1201ZM55.7962 30.3375C56.2677 30.3375 56.511 29.9075 56.511 29.4672C56.511 29.027 56.2677 28.5967 55.7962 28.5967C55.3246 28.5967 55.0813 29.027 55.0813 29.4672C55.0813 29.9075 55.3246 30.3375 55.7962 30.3375Z" fill="#808080"/>
<path d="M58.5207 28.1617V28.6072C58.7071 28.2963 59.018 28.1201 59.3652 28.1201C59.8212 28.1201 60.1318 28.3947 60.1318 28.9023V30.7728H59.5932V29.0735C59.5932 28.7211 59.4325 28.5967 59.1893 28.5967C58.8523 28.5967 58.5207 28.9957 58.5207 29.7161V30.7728H57.9821V28.1617H58.5207Z" fill="#808080"/>
<path d="M62.4592 28.1615H62.8945V27.4414L63.4331 27.1045V28.1615H64.1119V28.6381H63.4331V29.9126C63.4331 30.208 63.5423 30.3373 63.7806 30.3373C63.8736 30.3373 63.936 30.3218 64.0291 30.2647L64.169 30.7208C64.0291 30.7885 63.8944 30.8142 63.7492 30.8142C63.2572 30.8142 62.8945 30.5238 62.8945 29.8816V28.6381H62.4592V28.1615Z" fill="#808080"/>
<path d="M65.4971 27.1045V28.6071C65.6835 28.3378 65.9842 28.12 66.3779 28.12C66.8597 28.12 67.1498 28.379 67.1498 28.9334V30.7726H66.6109V29.0734C66.6109 28.6744 66.4452 28.5965 66.202 28.5965C65.9066 28.5965 65.4971 28.975 65.4971 29.6694V30.7726H64.9585V27.1045H65.4971Z" fill="#808080"/>
<path d="M69.1394 29.1669H69.5902V29.0527C69.5902 28.7263 69.3569 28.5967 69.0823 28.5967C68.8698 28.5967 68.6834 28.7108 68.5952 28.9441L68.1029 28.8402C68.2118 28.4 68.585 28.1201 69.0873 28.1201C69.6935 28.1201 70.1288 28.3845 70.1288 29.1511V30.7728H69.6731L69.6209 30.4309C69.45 30.6692 69.1807 30.8144 68.8127 30.8144C68.3774 30.8144 68.0098 30.5655 68.0098 30.0217C68.0098 29.4828 68.4708 29.1669 69.1394 29.1669ZM68.9061 30.3375C69.2378 30.3375 69.5902 30.1253 69.5902 29.6742V29.6177H69.1186C68.787 29.6177 68.5797 29.7728 68.5797 30.0217C68.5797 30.1979 68.6781 30.3375 68.9061 30.3375Z" fill="#808080"/>
<path d="M70.7907 28.1615H71.226V27.4414L71.7646 27.1045V28.1615H72.4434V28.6381H71.7646V29.9126C71.7646 30.208 71.8738 30.3373 72.1121 30.3373C72.2052 30.3373 72.2675 30.3218 72.3606 30.2647L72.5005 30.7208C72.3606 30.7885 72.2259 30.8142 72.0807 30.8142C71.5887 30.8142 71.226 30.5238 71.226 29.8816V28.6381H70.7907V28.1615Z" fill="#808080"/>
<path d="M75.4766 28.1617V28.6072C75.6891 28.2808 75.9482 28.1201 76.2643 28.1201C76.6165 28.1201 76.9066 28.3326 76.9841 28.659C77.1656 28.3171 77.461 28.1201 77.7976 28.1201C78.2742 28.1201 78.5438 28.4465 78.5438 28.9023V30.7728H78.0052V29.0217C78.0052 28.7366 77.8497 28.5967 77.6214 28.5967C77.3003 28.5967 77.0102 29.0062 77.0102 29.7263V30.7728H76.4713V29.0217C76.4713 28.7366 76.3158 28.5967 76.0881 28.5967C75.7614 28.5967 75.4766 29.0062 75.4766 29.7834V30.7728H74.938V28.1617H75.4766Z" fill="#808080"/>
<path d="M80.5402 29.1669H80.991V29.0527C80.991 28.7263 80.7577 28.5967 80.4831 28.5967C80.2706 28.5967 80.0841 28.7108 79.996 28.9441L79.5036 28.8402C79.6125 28.4 79.9858 28.1201 80.4881 28.1201C81.0943 28.1201 81.5296 28.3845 81.5296 29.1511V30.7728H81.0738L81.0217 30.4309C80.8508 30.6692 80.5814 30.8144 80.2135 30.8144C79.7782 30.8144 79.4106 30.5655 79.4106 30.0217C79.4106 29.4828 79.8716 29.1669 80.5402 29.1669ZM80.3069 30.3375C80.6385 30.3375 80.991 30.1253 80.991 29.6742V29.6177H80.5194C80.1877 29.6177 79.9805 29.7728 79.9805 30.0217C79.9805 30.1979 80.0788 30.3375 80.3069 30.3375Z" fill="#808080"/>
<path d="M82.1914 28.1615H82.6267V27.4414L83.1653 27.1045V28.1615H83.8442V28.6381H83.1653V29.9126C83.1653 30.208 83.2745 30.3373 83.5128 30.3373C83.6059 30.3373 83.6682 30.3218 83.7613 30.2647L83.9012 30.7208C83.7613 30.7885 83.6267 30.8142 83.4815 30.8142C82.9894 30.8142 82.6267 30.5238 82.6267 29.8816V28.6381H82.1914V28.1615Z" fill="#808080"/>
<path d="M84.493 28.1615H84.9283V27.4414L85.4669 27.1045V28.1615H86.1457V28.6381H85.4669V29.9126C85.4669 30.208 85.5761 30.3373 85.8144 30.3373C85.9075 30.3373 85.9698 30.3218 86.0629 30.2647L86.2028 30.7208C86.0629 30.7885 85.9282 30.8142 85.783 30.8142C85.291 30.8142 84.9283 30.5238 84.9283 29.8816V28.6381H84.493V28.1615Z" fill="#808080"/>
<path d="M89.1937 29.6177H87.344C87.344 30.0009 87.5668 30.3375 87.9915 30.3375C88.2713 30.3375 88.5409 30.1821 88.6756 29.8973L89.1366 30.0788C88.8825 30.5708 88.5875 30.8144 87.9915 30.8144C87.1318 30.8144 86.774 30.089 86.774 29.4672C86.774 28.8455 87.1318 28.1201 87.9915 28.1201C88.8258 28.1201 89.1937 28.799 89.1937 29.3844V29.6177ZM87.3542 29.1669H88.6238C88.5773 28.8765 88.3802 28.5967 87.9915 28.5967C87.6341 28.5967 87.4113 28.8405 87.3542 29.1669Z" fill="#808080"/>
<path d="M90.079 30.7728V28.1617H90.6176V28.5967C90.7988 28.2858 91.11 28.1201 91.3896 28.1201C91.5295 28.1201 91.6437 28.1515 91.7212 28.1822L91.6278 28.6745C91.545 28.6227 91.4311 28.5967 91.3225 28.5967C90.975 28.5967 90.6176 28.9801 90.6176 29.8039V30.7728H90.079Z" fill="#808080"/>
<path d="M93.9675 28.5346L93.6256 28.8353C93.4959 28.6696 93.3352 28.5967 93.1695 28.5967C93.0349 28.5967 92.9105 28.6851 92.9105 28.8557C92.9105 29.0425 93.1075 29.1253 93.3768 29.229C93.7289 29.3636 94.1071 29.5191 94.1071 29.9854C94.1071 30.4362 93.7603 30.8144 93.2006 30.8144C92.6616 30.8144 92.325 30.4411 92.1904 30.1151L92.6461 29.8662C92.7498 30.0992 92.9313 30.3375 93.2213 30.3375C93.4286 30.3375 93.5735 30.2342 93.5735 29.9959C93.5735 29.7676 93.2576 29.7055 92.952 29.5762C92.6514 29.4517 92.3923 29.26 92.3923 28.861C92.3923 28.4571 92.724 28.1201 93.1953 28.1201C93.5114 28.1201 93.8018 28.2756 93.9675 28.5346Z" fill="#808080"/>
</g>
<defs>
<clipPath id="clip0_401_7446">
<rect width="78.5781" height="22.9186" fill="white" transform="translate(15.7109 8.04102)"/>
</clipPath>
</defs>
</svg>
