<svg width="82" height="39" viewBox="0 0 82 39" fill="none" xmlns="http://www.w3.org/2000/svg">
<rect x="0.5" y="0.5" width="81" height="38" rx="19" stroke="#808080"/>
<path d="M29.4349 33.0162V26.272C29.4349 26.1912 29.4624 26.1505 29.5447 26.1101C30.2446 25.7991 30.9174 25.4207 31.5898 25.0286C32.4682 24.5153 33.3054 23.9475 34.1292 23.3526C34.5956 23.015 35.1037 22.7444 35.6388 22.5146C36.037 22.339 36.4485 22.2037 36.8741 22.0958C37.2755 21.9876 37.6836 21.9064 38.0958 21.8527C38.3567 21.8123 38.6171 21.7986 38.878 21.7578C39.0428 21.7445 39.1938 21.7445 39.3586 21.7308C39.6603 21.7174 39.9624 21.7041 40.2644 21.7174C40.7171 21.7174 41.184 21.7174 41.6367 21.7308C41.8564 21.7308 42.0898 21.7445 42.3095 21.7445C42.5979 21.7578 42.8721 21.7445 43.1604 21.7716C43.4762 21.7849 43.7916 21.7849 44.0937 21.7849C44.382 21.7849 44.6841 21.7716 44.9721 21.7445C45.3312 21.7194 45.6886 21.6742 46.0427 21.6092C46.5782 21.5147 47.0858 21.3794 47.5934 21.1634C48.0297 20.9778 48.4404 20.737 48.8155 20.4469C49.1843 20.1644 49.5414 19.8668 49.8857 19.5548C50.2571 19.2184 50.6189 18.8714 50.9704 18.5141C51.4949 17.9705 51.9985 17.407 52.48 16.8248C52.989 16.2061 53.4832 15.5752 53.9621 14.9328C54.6349 14.0274 55.2665 13.0945 55.8977 12.1624C56.1998 11.7162 56.5015 11.2699 56.831 10.8512C57.0901 10.5179 57.3602 10.1933 57.6407 9.87788C57.9703 9.51321 58.3135 9.14813 58.6839 8.81011C59.1919 8.33761 59.7137 7.87763 60.29 7.49923C60.5642 7.32356 60.8388 7.16161 61.1409 7.06711C61.2644 7.02633 61.4017 6.99927 61.5249 7.01259C61.827 7.02632 61.978 7.202 62.0055 7.4859C62.0192 7.68863 61.9643 7.89136 61.8956 8.08036C61.7583 8.45877 61.5798 8.81011 61.388 9.16186C61.0035 9.86456 60.5779 10.5402 60.1664 11.2296C59.8816 11.692 59.6069 12.1605 59.3425 12.6349C59.1782 12.9459 58.9993 13.2702 58.8486 13.5812C58.5906 14.0917 58.3299 14.6008 58.0664 15.1085C57.421 16.3653 56.7898 17.6224 56.1449 18.8925C55.8968 19.3924 55.6404 19.8881 55.376 20.3795C55.1664 20.7922 54.9514 21.2022 54.731 21.6092C54.3877 22.2582 54.0445 22.9068 53.6741 23.542C53.4133 23.9879 53.0979 24.4071 52.7546 24.7988C52.3427 25.2584 51.8762 25.6638 51.3682 26.0426C50.8605 26.4206 50.325 26.7453 49.7625 27.0426C49.2133 27.3398 48.637 27.5966 48.0603 27.826C47.4042 28.0812 46.7353 28.3022 46.0564 28.4883C45.3611 28.6743 44.6608 28.8411 43.9564 28.9887C43.5037 29.0832 43.0368 29.151 42.57 29.2185C42.2057 29.2723 41.8396 29.3129 41.4723 29.34C41.2389 29.3538 40.9918 29.3804 40.7583 29.3942C40.4837 29.4212 40.1958 29.4345 39.9212 29.4483C39.6328 29.4616 39.3449 29.4887 39.0565 29.529C38.6309 29.5698 38.2056 29.6373 37.7804 29.7188C36.9977 29.8671 36.2429 30.0702 35.4877 30.3266C34.8012 30.5568 34.1292 30.8266 33.4701 31.1105C32.8004 31.4077 32.1369 31.7188 31.48 32.0434C30.89 32.3406 30.2995 32.6378 29.7232 32.9351C29.6546 32.9621 29.5859 32.9892 29.5447 33.0433C29.4761 33.0163 29.4486 33.0162 29.4349 33.0162Z" fill="#808080"/>
<path d="M24.8513 11.6891V14.3516C24.8513 14.4865 24.8513 14.4865 24.7139 14.4865H24.3848C24.3299 14.4865 24.3162 14.4732 24.3162 14.4191V11.0401C24.3162 10.9189 24.3024 10.9323 24.426 10.9323H24.865C24.9199 10.9323 24.9474 10.9456 24.9748 10.986C25.3044 11.3918 25.6476 11.8106 25.9768 12.2161C26.375 12.7027 26.7865 13.2027 27.1847 13.6893C27.1984 13.7027 27.2121 13.7297 27.2396 13.7434C27.2533 13.7031 27.2533 13.6756 27.2533 13.6352V11.0134C27.2533 10.9456 27.2533 10.9456 27.3357 10.9323H27.7339C27.7747 10.9323 27.8026 10.9456 27.8026 10.986V14.3787C27.8026 14.4865 27.8163 14.4732 27.7064 14.4732H27.2671C27.2121 14.4732 27.1709 14.4461 27.1298 14.4058L26.2651 13.3517C25.812 12.7972 25.3593 12.2432 24.9062 11.7024C24.8925 11.6889 24.8787 11.6755 24.865 11.662C24.865 11.6753 24.8513 11.6753 24.8513 11.6891Z" fill="#808080"/>
<path d="M23.8492 14.4462L23.4788 13.6353C23.2729 13.1757 23.0532 12.7162 22.8472 12.2433C22.655 11.8241 22.4632 11.4186 22.2709 10.9998C22.2572 10.9594 22.2297 10.9457 22.1748 10.9457H21.6805C21.6393 10.9457 21.6119 10.9594 21.5981 10.9998C21.3623 11.5032 21.129 12.0077 20.8983 12.5134C20.6501 13.0426 20.4077 13.5743 20.1709 14.1086C20.116 14.2298 20.0611 14.3517 19.9924 14.4866H20.473C20.5417 14.4866 20.5825 14.4733 20.6103 14.4058C20.7335 14.1082 20.8708 13.8243 20.9944 13.5271C21.0218 13.473 21.0493 13.4463 21.118 13.4463H22.655C22.8335 13.4463 22.7786 13.4193 22.861 13.5812C22.9845 13.8651 23.1081 14.1353 23.2317 14.4192C23.2454 14.4462 23.2454 14.4866 23.3003 14.4866H23.8629C23.8629 14.4596 23.8492 14.4596 23.8492 14.4462ZM21.2282 13.0001C21.4479 12.473 21.6809 11.9593 21.9006 11.4323C22.134 11.9731 22.3675 12.4864 22.5871 13.0001H21.2282Z" fill="#808080"/>
<path d="M31.9624 11.9598C31.88 11.7025 31.7564 11.459 31.5505 11.2837C31.2759 11.0402 30.9467 10.9457 30.576 10.9457H28.6957C28.6682 10.9457 28.6545 10.9594 28.6545 10.9861V14.3925C28.6545 14.4733 28.6545 14.4733 28.7369 14.4733H30.5073C30.6034 14.4733 30.6996 14.4733 30.7957 14.46C31.3033 14.3792 31.6599 14.1086 31.8659 13.6628C31.9899 13.3922 32.0448 13.095 32.0585 12.8115C32.0741 12.5242 32.0417 12.2363 31.9624 11.9598ZM31.5093 12.8785C31.4955 13.0404 31.4818 13.2161 31.4269 13.3785C31.3582 13.5949 31.2484 13.7839 31.0428 13.9055C30.9352 13.974 30.8128 14.0158 30.6858 14.0274C30.5897 14.0408 30.5073 14.0408 30.4112 14.0408H29.2308C29.2033 14.0408 29.1896 14.027 29.1896 14.0004V11.4457C29.1896 11.4186 29.2033 11.4053 29.2308 11.4053H30.4387C30.576 11.4053 30.6996 11.4323 30.8369 11.4727C31.1523 11.5809 31.3445 11.8107 31.4406 12.1217C31.523 12.3515 31.5367 12.6079 31.5093 12.8785Z" fill="#808080"/>
<path d="M36.5326 12.5945C36.5189 12.4459 36.5052 12.3106 36.464 12.1624C36.3404 11.7162 36.0937 11.3511 35.6817 11.108C35.3797 10.9323 35.0505 10.8511 34.6935 10.8374C34.4052 10.8241 34.131 10.8374 33.8563 10.9186C33.3483 11.0539 32.9638 11.3378 32.7308 11.8107C32.5798 12.1216 32.5249 12.4459 32.5386 12.7973C32.5523 12.9596 32.5661 13.1082 32.6072 13.2568C32.7583 13.7839 33.0737 14.176 33.5817 14.392C33.8838 14.5273 34.1996 14.5677 34.5013 14.5677C34.6111 14.5677 34.6935 14.5677 34.7759 14.5544C34.9817 14.5412 35.1848 14.5002 35.3797 14.4324C35.8465 14.2705 36.1898 13.9599 36.3816 13.5137C36.5052 13.2298 36.5464 12.9188 36.5326 12.5945ZM35.8606 13.4055C35.6959 13.7435 35.4212 13.9462 35.0647 14.054C34.7214 14.1489 34.3644 14.1623 34.0215 14.054C33.5135 13.9054 33.1977 13.5678 33.0878 13.0541C33.0445 12.8123 33.0493 12.5643 33.102 12.3244C33.2114 11.8377 33.5272 11.5134 34.0215 11.3781C34.4334 11.2699 34.845 11.2836 35.229 11.4456C35.586 11.5946 35.8194 11.8648 35.9293 12.2294C35.9567 12.3106 35.9705 12.3918 35.9842 12.473C35.9979 12.5537 35.9842 12.6349 35.9842 12.7161C36.0117 12.9596 35.9567 13.1894 35.8606 13.4055Z" fill="#808080"/>
<path d="M49.5853 11.9052C49.5715 11.7025 49.4754 11.5268 49.2695 11.446C49.1832 11.4074 49.0893 11.3889 48.9949 11.3919H47.5265C47.4441 11.3919 47.4441 11.3919 47.4441 11.4727V12.446C47.4441 12.5134 47.4441 12.5267 47.5265 12.5267H49.0772C49.2008 12.5134 49.3244 12.473 49.4205 12.3918C49.5578 12.2566 49.599 12.0946 49.5853 11.9052Z" fill="#808080"/>
<path d="M45.0155 11.4726C44.7736 11.3507 44.5038 11.2949 44.2333 11.3107C44.0685 11.297 43.9038 11.324 43.739 11.3648C43.2584 11.4997 42.9434 11.8106 42.8194 12.2835C42.7508 12.5541 42.7508 12.8247 42.8057 13.0945C42.9155 13.5678 43.2176 13.8921 43.6841 14.0407C44.0324 14.1465 44.4037 14.1513 44.7547 14.0544C45.1117 13.9462 45.3863 13.7435 45.551 13.4054C45.7291 13.0408 45.7433 12.6624 45.6472 12.2835C45.5648 11.9189 45.3588 11.6483 45.0155 11.4726Z" fill="#808080"/>
<path d="M49.0479 7.95882C47.7442 6.67459 46.1381 5.99896 44.2986 5.95857C40.3732 5.8778 37.2168 8.9862 37.2168 12.7836C37.2168 16.5951 40.3599 19.6227 44.148 19.609C46.0146 19.6227 47.7717 18.893 49.0479 17.6087C50.3793 16.2841 51.0655 14.676 51.0655 12.8244C51.0929 10.9323 50.4068 9.29676 49.0479 7.95882ZM41.6361 13.5953C41.3756 14.1356 40.9362 14.4466 40.3462 14.5548C39.9205 14.6356 39.5086 14.5952 39.1245 14.4333C38.589 14.2168 38.2599 13.8114 38.1363 13.2573C38.0835 13.0224 38.065 12.7811 38.0814 12.5409C38.1089 12.1625 38.2187 11.7978 38.4655 11.4868C38.6946 11.207 39.0074 11.008 39.358 10.919C39.6047 10.8516 39.8656 10.8245 40.1128 10.8516C40.4831 10.8786 40.8264 10.9598 41.1422 11.1625C41.4717 11.3786 41.6773 11.6758 41.7459 12.068C41.7596 12.1083 41.7734 12.1487 41.7596 12.2166H41.2791C41.2383 12.2166 41.2245 12.2032 41.2245 12.1625C41.2245 12.1221 41.2108 12.095 41.1971 12.0542C41.0735 11.6896 40.8264 11.4598 40.456 11.3653C40.1265 11.2704 39.7832 11.2841 39.4537 11.3786C39.0696 11.5001 38.8087 11.757 38.6852 12.1354C38.5616 12.5271 38.5479 12.9059 38.6852 13.2977C38.8499 13.7439 39.1657 14.0004 39.6463 14.0815C39.8793 14.1219 40.0986 14.1219 40.3325 14.0682C40.7444 13.9737 41.0186 13.7169 41.1696 13.3385C41.1971 13.2843 41.2108 13.2169 41.2245 13.1628C41.2245 13.1357 41.2383 13.1224 41.2657 13.1224H41.7596C41.7478 13.2861 41.7059 13.4467 41.6361 13.5953ZM45.9871 13.7031C45.74 14.1223 45.3692 14.3792 44.889 14.5007C44.6293 14.5676 44.3609 14.5948 44.0931 14.5815C43.8047 14.5682 43.5168 14.5141 43.2559 14.3925C42.8803 14.2252 42.578 13.9275 42.405 13.5545C42.254 13.2436 42.2128 12.9059 42.2402 12.5546C42.2677 12.1895 42.3775 11.8382 42.6105 11.5409C42.8577 11.2166 43.1872 11.0272 43.5717 10.919C43.8453 10.8514 44.1274 10.8242 44.4089 10.8382C44.7792 10.8516 45.1499 10.9461 45.4657 11.1492C45.8635 11.4056 46.097 11.757 46.2068 12.2032C46.248 12.3652 46.2617 12.5409 46.2617 12.7165C46.2343 13.0679 46.1656 13.3926 45.9871 13.7031ZM50.1734 14.487H49.6928C49.6755 14.4866 49.6586 14.4813 49.6441 14.4718C49.6297 14.4623 49.6181 14.449 49.6108 14.4333C49.5696 14.3384 49.5696 14.2439 49.5559 14.1356C49.5422 13.9196 49.5422 13.7035 49.501 13.4871C49.4872 13.433 49.4735 13.3655 49.446 13.3114C49.3499 13.0812 49.1577 12.9871 48.9243 12.9734H47.5108C47.4422 12.9734 47.4422 12.9734 47.4422 13.0546V14.3521C47.4422 14.487 47.4559 14.4737 47.3186 14.4737H46.9616C46.9204 14.4737 46.8929 14.4599 46.8929 14.4196V11.0539C46.8929 10.919 46.8792 10.9327 47.0028 10.9327H49.1714C49.3087 10.9327 49.446 10.9598 49.5696 11.0135C49.7756 11.0947 49.9262 11.23 50.0086 11.4194C50.1322 11.7029 50.1459 11.9868 50.0361 12.2707C49.9537 12.4734 49.8168 12.622 49.6241 12.7028C49.5834 12.7165 49.5422 12.7303 49.5147 12.7573C49.8305 12.8381 49.9537 13.0816 50.0086 13.3655C50.0223 13.4733 50.0223 13.5816 50.0361 13.6898C50.0498 13.8788 50.0498 14.0682 50.091 14.2572C50.1047 14.3251 50.1459 14.3925 50.1734 14.4466V14.487Z" fill="#808080"/>
</svg>
