<svg width="179" height="39" viewBox="0 0 179 39" fill="none" xmlns="http://www.w3.org/2000/svg">
<rect x="0.5" y="0.5" width="178" height="38" rx="19" stroke="#808080"/>
<g clip-path="url(#clip0_401_7400)">
<path d="M115.671 21.6802C115.671 17.8835 118.43 14.9157 122.537 14.9157C123.708 14.9157 125.037 15.2004 126.024 15.751V18.6112H125.948C124.935 18.01 123.917 17.7253 122.778 17.7253C120.303 17.7253 118.981 19.4148 118.981 21.6802C118.981 23.9456 120.31 25.6351 122.778 25.6351C123.923 25.6351 124.935 25.3504 125.948 24.7492H126.024V27.6094C125.037 28.1536 123.708 28.4447 122.537 28.4447C118.43 28.4384 115.671 25.4769 115.671 21.6802ZM115.361 28.1789C114.868 28.2802 114.292 28.3624 113.773 28.3624C111.305 28.3624 109.976 27.0652 109.976 24.667V15.1751H113.229V24.4328C113.229 25.2934 113.646 25.7047 114.532 25.7047C114.741 25.7047 115.001 25.6794 115.285 25.6288H115.361V28.1789ZM113.564 12.0048C113.564 13.0426 112.729 13.9285 111.641 13.9285C110.552 13.9285 109.742 13.0426 109.742 12.0048C109.742 10.9671 110.603 10.1065 111.641 10.1065C112.735 10.1002 113.564 10.9607 113.564 12.0048ZM99.0544 20.9208C99.0544 18.9149 100.067 17.6177 101.94 17.6177C103.813 17.6177 104.648 18.839 104.648 20.9208V28.1789H107.875V20.7943C107.875 17.6746 106.262 14.9157 102.75 14.9157C100.877 14.9157 99.6302 15.8522 98.9278 17.257V15.1751H95.8335V28.1789H99.0607V20.9208H99.0544ZM87.2845 25.6604C89.6005 25.6604 90.7965 23.9709 90.7965 21.6802C90.7965 19.3895 89.6005 17.7 87.2845 17.7C84.9685 17.7 83.7472 19.3895 83.7472 21.6802C83.7472 23.9709 85.0254 25.6604 87.2845 25.6604ZM87.2845 28.4384C83.203 28.4384 80.444 25.4706 80.444 21.6739C80.444 17.8771 83.203 14.9094 87.2845 14.9094C91.366 14.9094 94.0996 17.8771 94.0996 21.6739C94.0996 25.4706 91.347 28.4384 87.2845 28.4384ZM76.0525 21.3638C76.0525 19.2566 77.1472 18.086 79.2291 18.086C79.5898 18.086 79.9821 18.1366 80.3491 18.2442H80.3997V15.2257C80.0644 15.0929 79.6214 15.0169 79.1278 15.0169C77.5648 15.0169 76.5271 15.9788 75.9259 17.5418V15.1751H72.8316V28.1789H76.0588V21.3638H76.0525ZM54.6389 25.7111C56.822 25.7111 58.0433 24.0215 58.0433 21.6549C58.0433 19.2883 56.822 17.624 54.6389 17.624C52.4558 17.624 51.2851 19.3136 51.2851 21.6549C51.2851 23.9962 52.4305 25.7111 54.6389 25.7111ZM69.3892 28.4384C66.3961 28.4384 64.7066 27.0589 64.7066 23.9393V17.8012H61.1187V24.3316C61.1187 25.2934 61.4857 25.6858 62.264 25.6858C62.4475 25.6858 62.6563 25.6858 62.8905 25.6351H62.9664V28.1853C62.6563 28.2612 62.0299 28.3435 61.5616 28.3435C59.7898 28.3435 58.7014 27.6664 58.2331 26.1857C57.2966 27.6411 55.8159 28.451 53.9681 28.451C50.665 28.451 47.9883 25.8756 47.9883 21.6612C47.9883 17.4468 50.665 14.922 53.9681 14.922C55.6071 14.922 56.9612 15.5485 57.8978 16.6938V10.233H61.125V15.1751H64.7129V12.0808H67.9401V15.1751H71.4015V17.8012H67.9401V23.7811C67.9401 25.0846 68.5919 25.7047 69.8385 25.7047C70.408 25.7047 70.8003 25.6541 71.3192 25.5212H71.3952V28.1726C70.7687 28.3371 70.0157 28.4384 69.3892 28.4384ZM14.3239 28.1789H17.5258L18.1269 16.9659L18.2598 13.9222H18.3105L18.9875 16.9659L21.5883 28.1789H25.5939L28.2199 16.9659L28.8717 13.9222H28.9223L29.0552 16.9659L29.6817 28.1789H33.0102L31.9091 10.233H26.6L24.2081 21.0031L23.6892 23.7368H23.6385L23.0943 21.0031L20.6961 10.233H15.3933L14.3239 28.1789ZM46.7607 21.4461C46.7607 22.0725 46.71 22.718 46.6025 23.2432H37.2372C37.5726 24.8062 38.9014 25.768 41.4009 25.768H41.4579C41.6161 25.768 41.768 25.768 41.9198 25.7554C42.0021 25.7554 42.0844 25.7427 42.1666 25.7364C42.2299 25.7364 42.2932 25.7237 42.3564 25.7174C43.3942 25.6098 44.3814 25.3314 45.2926 24.9074C45.3622 24.8758 45.4381 24.8378 45.5077 24.8062C45.6912 24.7113 45.8684 24.61 46.0456 24.5088H46.1279V27.1412C44.7547 27.9701 43.1538 28.451 41.4326 28.451C41.3693 28.451 41.306 28.451 41.2427 28.451C36.5348 28.451 33.9593 25.7743 33.9593 21.87C33.9593 17.681 36.6107 14.922 40.4644 14.922C44.3181 14.9157 46.7607 17.6493 46.7607 21.4461ZM43.6916 20.7184C43.5334 18.7694 42.521 17.624 40.4644 17.624C38.566 17.624 37.3954 18.82 37.1866 20.7184H43.6916Z" fill="#808080"/>
<path d="M143.546 25.7807L143.591 25.3061C143.66 25.3251 143.724 25.3378 143.8 25.3378C143.875 25.3378 143.939 25.3251 143.983 25.2998C144.027 25.2745 144.065 25.2429 144.097 25.1922C144.129 25.1479 144.16 25.0783 144.192 24.9898L144.299 24.7113L143.357 22.4902H143.964L144.578 24.1102L145.122 22.4902H145.698L144.66 25.1796C144.603 25.3251 144.546 25.439 144.477 25.5276C144.407 25.6162 144.325 25.6858 144.217 25.7364C144.11 25.7807 143.983 25.8061 143.825 25.8061C143.724 25.8187 143.629 25.8061 143.54 25.7807H143.546Z" fill="#808080"/>
<path d="M146.482 24.6421C146.305 24.5472 146.166 24.4143 146.058 24.2435C145.957 24.0663 145.906 23.8638 145.906 23.636C145.906 23.4082 145.957 23.1993 146.058 23.0222C146.159 22.845 146.299 22.7058 146.476 22.6045C146.653 22.5096 146.849 22.459 147.071 22.459C147.279 22.459 147.463 22.5033 147.621 22.5919C147.779 22.6805 147.906 22.8197 147.994 22.9969C148.083 23.174 148.127 23.3955 148.127 23.6486C148.127 23.7119 148.127 23.7625 148.127 23.7942H146.457C146.457 23.8954 146.495 23.984 146.558 24.0663C146.615 24.1485 146.691 24.2118 146.786 24.2624C146.881 24.3131 146.982 24.332 147.083 24.332C147.336 24.332 147.533 24.2371 147.665 24.0473L148.032 24.3384C147.817 24.6295 147.501 24.7813 147.09 24.7813C146.868 24.7813 146.666 24.7307 146.488 24.6421H146.482ZM147.583 23.3955C147.583 23.3006 147.564 23.2057 147.526 23.1297C147.488 23.0475 147.431 22.9842 147.349 22.9399C147.273 22.8956 147.178 22.8703 147.064 22.8703C146.957 22.8703 146.862 22.8956 146.767 22.9399C146.678 22.9842 146.602 23.0475 146.545 23.1297C146.488 23.212 146.457 23.3006 146.45 23.4018H147.583V23.3955Z" fill="#808080"/>
<path d="M148.919 24.699C148.792 24.6547 148.691 24.5788 148.602 24.4775C148.52 24.3763 148.476 24.2434 148.476 24.0852C148.476 23.7941 148.615 23.5916 148.9 23.4904C149.184 23.3891 149.539 23.3385 149.975 23.3385H149.988V23.2816C149.988 23.155 149.944 23.0538 149.849 22.9842C149.754 22.9146 149.634 22.8766 149.488 22.8766C149.374 22.8766 149.267 22.9019 149.159 22.9462C149.052 22.9968 148.963 23.0538 148.887 23.1297L148.602 22.7943C148.723 22.6804 148.868 22.5982 149.033 22.5349C149.197 22.4779 149.362 22.4463 149.533 22.4463C149.893 22.4463 150.14 22.5349 150.292 22.7121C150.437 22.8892 150.513 23.1107 150.513 23.3702V24.7053H150.001V24.4269H149.988C149.931 24.5218 149.843 24.6041 149.722 24.6674C149.596 24.7307 149.463 24.7623 149.305 24.7623C149.178 24.7686 149.045 24.7496 148.919 24.699ZM149.843 24.2054C149.944 24.1042 149.994 23.965 149.994 23.7878V23.7119H149.868C149.634 23.7119 149.438 23.7372 149.273 23.7878C149.109 23.8384 149.026 23.9333 149.026 24.0789C149.026 24.1738 149.064 24.2497 149.14 24.2877C149.216 24.332 149.305 24.351 149.412 24.351C149.602 24.351 149.748 24.3067 149.843 24.2054Z" fill="#808080"/>
<path d="M151.159 22.9272V22.4969H151.685V22.8639C151.748 22.731 151.83 22.6298 151.944 22.5475C152.058 22.4716 152.185 22.4336 152.324 22.4336C152.374 22.4336 152.419 22.4399 152.457 22.4462V22.9525C152.393 22.9398 152.336 22.9272 152.286 22.9272C152.134 22.9272 152.014 22.9651 151.925 23.0347C151.836 23.1044 151.773 23.1866 151.742 23.2752C151.71 23.3638 151.691 23.4461 151.691 23.522V24.718H151.14V22.9272H151.153H151.159Z" fill="#808080"/>
<path d="M152.963 24.6864C152.798 24.6231 152.665 24.5345 152.564 24.4206L152.925 24.0789C152.988 24.1612 153.064 24.2308 153.165 24.2814C153.267 24.332 153.374 24.3574 153.488 24.3574C153.583 24.3574 153.665 24.3384 153.735 24.2941C153.804 24.2498 153.842 24.1865 153.842 24.0979C153.842 24.041 153.823 23.9903 153.785 23.9587C153.747 23.9207 153.697 23.8891 153.627 23.8638C153.558 23.8385 153.463 23.8132 153.336 23.7815C153.21 23.7499 153.096 23.7119 153.001 23.6676C152.906 23.6233 152.83 23.56 152.773 23.4778C152.716 23.3955 152.684 23.2879 152.684 23.1614C152.684 23.0032 152.729 22.8766 152.811 22.7691C152.893 22.6615 153.001 22.5855 153.134 22.5349C153.267 22.4843 153.412 22.459 153.564 22.459C153.729 22.459 153.887 22.4906 154.039 22.5476C154.19 22.6045 154.304 22.6868 154.393 22.7944L154.032 23.1108C153.982 23.0412 153.912 22.9842 153.823 22.9399C153.735 22.8956 153.646 22.8703 153.551 22.8703C153.456 22.8703 153.368 22.8893 153.305 22.9272C153.235 22.9652 153.203 23.0285 153.203 23.1044C153.203 23.1614 153.222 23.2057 153.254 23.2373C153.292 23.269 153.336 23.3006 153.399 23.3196C153.463 23.3386 153.558 23.3639 153.678 23.3955C153.887 23.4461 154.058 23.5157 154.19 23.617C154.323 23.7119 154.393 23.8574 154.393 24.0536C154.393 24.2245 154.349 24.3637 154.266 24.4713C154.184 24.5788 154.077 24.6611 153.937 24.7117C153.798 24.7623 153.646 24.7876 153.475 24.7876C153.298 24.7876 153.127 24.7497 152.963 24.6864Z" fill="#808080"/>
<path d="M129.814 7.83496V9.12585H141.748L131.516 32.248L132.674 32.8301L143.729 7.85394L129.814 7.83496Z" fill="#808080"/>
<path d="M129.897 5.39844V6.69566H144.919V8.52442L134.295 32.2477L135.459 32.8299L146.191 8.67629V5.42375L129.897 5.39844Z" fill="#808080"/>
<g opacity="0.56">
<path d="M134.915 32.0456C137.978 25.1482 142.243 15.4918 145.312 8.7273C145.268 9.07533 145.356 6.22145 145.344 6.29739L145.85 6.3227L145.673 8.81589V8.85386C143.964 12.7645 142.262 16.6751 140.522 20.5731L135.346 32.2417L134.915 32.0456Z" fill="#808080"/>
</g>
<g opacity="0.56">
<path d="M143.552 7.99894L129.991 7.97363V8.47354L142.141 8.79626L132.061 31.931L132.345 32.0576L143.451 7.97996L143.552 7.99894Z" fill="#808080"/>
</g>
<g opacity="0.56">
<path d="M129.948 5.43066L129.961 6.1647L145.869 6.31657L145.85 5.67112L129.948 5.43066Z" fill="#808080"/>
</g>
<path d="M132.231 32.1533L132.086 32.0901L142.748 8.24023L142.894 8.30351L132.231 32.1533Z" fill="#808080"/>
<path d="M135.117 32.4128L134.972 32.3496L145.432 8.72754L145.577 8.79715L135.117 32.4128Z" fill="#808080"/>
<path d="M145.577 8.77782H145.419L145.469 5.80371H145.628L145.577 8.77782Z" fill="#808080"/>
<path d="M140.691 8.36621H132.358V8.46113H140.691V8.36621Z" fill="#808080"/>
<path d="M143.73 5.95508H132.694V6.05H143.73V5.95508Z" fill="#808080"/>
<g opacity="0.92">
<path d="M142.679 8.17011C142.679 8.17011 140.527 7.91699 136.61 7.91699C136.61 7.91699 133.276 7.91699 131.333 8.06253H131.061L130.099 8.03722V8.35362L142.185 8.32198H141.888H142.679C142.723 8.32198 142.755 8.28401 142.755 8.24604C142.755 8.20808 142.723 8.17011 142.679 8.17011Z" fill="#808080"/>
</g>
<g opacity="0.92">
<path d="M145.526 5.7403C145.526 5.7403 142.887 5.44922 138.078 5.44922C138.078 5.44922 133.99 5.44922 131.598 5.62007H131.263L130.086 5.59476V5.96178L144.919 5.93014H144.558H145.526C145.577 5.93014 145.621 5.89217 145.621 5.84155C145.621 5.7846 145.577 5.7403 145.526 5.7403Z" fill="#808080"/>
</g>
<path d="M155.265 33.6844C153.316 33.6844 151.595 33.2224 150.152 32.3175C148.716 31.4126 147.583 30.1344 146.786 28.5145L147.887 27.9703C148.583 29.3814 149.564 30.4951 150.804 31.2734C152.044 32.0518 153.544 32.4504 155.265 32.4504C156.872 32.4504 158.309 32.0961 159.543 31.3873C160.77 30.6913 161.732 29.7041 162.416 28.4638C163.099 27.2172 163.441 25.7808 163.441 24.1988C163.441 22.6169 163.099 21.345 162.422 20.187C161.745 19.0353 160.796 18.1241 159.6 17.4849C157.923 16.5927 155.854 16.3143 153.664 16.6497C153.069 16.7446 152.512 16.8838 152 17.0673L151.158 17.371L151.38 7.68937H163.01V8.91698H152.576L152.424 15.6562C152.759 15.5676 153.114 15.498 153.474 15.441C155.936 15.055 158.265 15.3841 160.176 16.4029C161.58 17.1496 162.694 18.219 163.485 19.5668C164.276 20.9147 164.675 22.4713 164.675 24.1988C164.675 25.9264 164.276 27.6222 163.498 29.0523C162.707 30.4951 161.587 31.6341 160.157 32.4504C158.726 33.273 157.088 33.6844 155.265 33.6844ZM155.113 31.3683C153.848 31.3683 152.664 31.0077 151.595 30.2926C150.563 29.6092 149.779 28.679 149.26 27.54L149.203 27.4134L150.329 26.9198L150.38 27.0274L149.823 27.2869L150.38 27.0337C150.804 27.9639 151.443 28.717 152.278 29.2801C153.158 29.8623 154.082 30.1471 155.12 30.1471C156.157 30.1471 157.144 29.9003 157.992 29.4067C158.84 28.9194 159.511 28.236 159.992 27.3754C160.473 26.5148 160.72 25.534 160.72 24.4773C160.72 23.3193 160.467 22.2941 159.96 21.4209C159.454 20.5476 158.771 19.8959 157.872 19.4339C156.297 18.624 154.189 18.5354 152.12 19.0859C151.234 19.32 150.374 19.6681 149.545 20.1173L148.621 20.6173L148.912 5.31641H163.01V6.54402H150.108L149.88 18.586C150.507 18.3076 151.146 18.0798 151.797 17.9026C152.778 17.6431 153.772 17.5103 154.74 17.5103C156.107 17.5103 157.341 17.7887 158.423 18.3455C159.524 18.9087 160.391 19.7377 161.011 20.8071C161.625 21.8702 161.935 23.1041 161.935 24.4773C161.935 25.7492 161.637 26.9262 161.055 27.9766C160.467 29.027 159.644 29.8686 158.6 30.4698C157.562 31.0646 156.391 31.3683 155.113 31.3683Z" fill="#808080"/>
<g opacity="0.56">
<path d="M155.233 33.3238C153.347 33.3238 151.696 32.8808 150.31 32.0139C148.93 31.147 147.842 29.9131 147.076 28.3564L147.532 28.1349C148.253 29.6093 149.278 30.7673 150.582 31.5836C151.879 32.3999 153.448 32.8176 155.233 32.8176C156.897 32.8176 158.397 32.4442 159.688 31.7102C160.972 30.9761 161.985 29.9447 162.693 28.6475C163.402 27.3439 163.763 25.8505 163.763 24.2053C163.763 22.56 163.402 21.2249 162.693 20.0162C161.985 18.8013 160.985 17.8458 159.726 17.175C157.979 16.2448 155.834 15.9537 153.562 16.3018C152.948 16.3967 152.366 16.5485 151.835 16.7384L151.487 16.8649L151.689 8.05651H162.965V8.56275H152.195L152.025 16.1436C152.486 15.998 152.98 15.8841 153.499 15.8019C155.885 15.4348 158.137 15.7449 159.979 16.7257C161.32 17.4408 162.39 18.4596 163.143 19.7568C163.896 21.0477 164.282 22.5474 164.282 24.2053C164.282 25.8632 163.902 27.5085 163.149 28.8879C162.396 30.2737 161.314 31.3685 159.947 32.1468C158.574 32.9315 156.992 33.3238 155.233 33.3238ZM155.087 31.0078C153.898 31.0078 152.778 30.6661 151.771 29.9953C150.797 29.3435 150.057 28.4703 149.563 27.3882L149.512 27.268L149.974 27.0655L150.025 27.1794L149.797 27.287L150.031 27.1794C150.481 28.1729 151.164 28.9765 152.056 29.5714C152.98 30.1915 154.005 30.5016 155.094 30.5016C156.182 30.5016 157.239 30.2358 158.144 29.7106C159.049 29.1853 159.764 28.4576 160.276 27.5464C160.789 26.6289 161.048 25.5974 161.048 24.4711C161.048 23.2498 160.776 22.1614 160.238 21.2312C159.707 20.3073 158.954 19.5923 158.004 19.105C157.049 18.6178 155.942 18.3647 154.72 18.3647C153.822 18.3647 152.91 18.4849 151.999 18.7317C151.088 18.9721 150.196 19.3328 149.342 19.7948L148.962 20.0036L149.234 5.6709H162.984V6.17713H149.728L149.481 19.1493C150.253 18.7633 151.05 18.4596 151.866 18.2444C152.822 17.9913 153.777 17.8647 154.72 17.8647C156.024 17.8647 157.207 18.1305 158.239 18.6621C159.276 19.1936 160.099 19.9783 160.681 20.9844C161.263 21.9905 161.554 23.1675 161.554 24.4774C161.554 25.686 161.27 26.8061 160.719 27.7995C160.162 28.793 159.384 29.5903 158.397 30.1598C157.41 30.7167 156.296 31.0078 155.087 31.0078Z" fill="#808080"/>
</g>
<path d="M155.233 33.153C153.385 33.153 151.759 32.7227 150.405 31.8684C149.05 31.0205 147.987 29.8119 147.234 28.2805L147.374 28.2109C148.114 29.7106 149.158 30.8939 150.487 31.7292C151.816 32.5645 153.41 32.9885 155.233 32.9885C156.929 32.9885 158.46 32.6088 159.776 31.8558C161.092 31.1091 162.124 30.0523 162.852 28.7298C163.579 27.4009 163.946 25.8822 163.946 24.2053C163.946 22.5285 163.579 21.168 162.852 19.9277C162.124 18.6874 161.105 17.7129 159.814 17.0232C158.523 16.3334 157.043 15.9854 155.423 15.9854C154.809 15.9854 154.176 16.036 153.543 16.131C152.917 16.2322 152.322 16.3777 151.784 16.5739L151.677 16.6119V16.498L151.866 8.23374H162.972V8.39194H152.018L151.835 16.3904C152.354 16.2069 152.923 16.0677 153.518 15.9791C154.157 15.8778 154.796 15.8272 155.416 15.8272C157.068 15.8272 158.568 16.1816 159.884 16.884C161.2 17.5864 162.238 18.5862 162.978 19.8518C163.719 21.1173 164.092 22.5854 164.092 24.2117C164.092 25.8379 163.719 27.4579 162.978 28.812C162.238 30.1662 161.181 31.242 159.846 32.0013C158.517 32.767 156.96 33.153 155.233 33.153ZM155.087 30.8306C153.929 30.8306 152.847 30.5016 151.866 29.8435C150.917 29.2107 150.202 28.3628 149.721 27.3123C149.702 27.2744 149.683 27.2301 149.671 27.1921L149.816 27.1288C149.835 27.1668 149.848 27.2048 149.867 27.2427L149.797 27.2744L149.873 27.2427C150.335 28.2679 151.037 29.0968 151.961 29.7106C152.917 30.3497 153.967 30.6724 155.094 30.6724C156.22 30.6724 157.302 30.4003 158.232 29.8625C159.162 29.3246 159.903 28.5716 160.428 27.6287C160.953 26.6859 161.219 25.6228 161.219 24.4711C161.219 23.2182 160.941 22.0982 160.39 21.1426C159.84 20.1871 159.068 19.4531 158.087 18.9469C157.106 18.447 155.973 18.1875 154.72 18.1875C153.809 18.1875 152.879 18.3141 151.955 18.5609C151.031 18.8077 150.126 19.1683 149.259 19.6366L149.139 19.6999V19.567L149.405 5.8418H162.984V5.99999H149.563L149.304 19.4341C150.145 18.9912 151.018 18.6431 151.911 18.409C152.847 18.1559 153.79 18.0293 154.72 18.0293C155.998 18.0293 157.156 18.2888 158.156 18.8076C159.162 19.3265 159.96 20.0859 160.529 21.0604C161.092 22.0412 161.384 23.1866 161.384 24.4648C161.384 25.6481 161.111 26.7365 160.567 27.6983C160.029 28.6665 159.27 29.4385 158.314 29.989C157.346 30.5522 156.264 30.8306 155.087 30.8306Z" fill="#808080"/>
<path d="M147.818 28.1406L147.191 28.4507L147.969 28.4064L147.818 28.1406Z" fill="#808080"/>
<path d="M150.158 27.0908L149.538 27.4009L150.316 27.3629L150.158 27.0908Z" fill="#808080"/>
<path d="M149.412 30.9445C151.652 32.4822 154.519 32.9821 157.176 32.5138C159.878 32.0898 162.074 30.1282 163.517 27.8691C162.631 29.7232 161.131 31.3748 159.246 32.2734C156.113 33.7035 152.038 33.1909 149.412 30.9445Z" fill="#808080"/>
<path d="M150.506 28.2425C153.587 31.4697 158.384 30.8053 160.877 27.2363C158.909 31.3241 153.182 32.0012 150.506 28.2425Z" fill="#808080"/>
<path d="M149.905 18.7628L150.222 19.1931C150.222 19.1931 154.961 16.5227 159.043 19.5094C159.036 19.5094 155.847 16.2885 149.905 18.7628Z" fill="#808080"/>
<path d="M152.442 15.7895L152.683 16.2641C152.683 16.2641 157.79 14.3847 161.339 17.9853C161.346 17.9853 158.713 14.2961 152.442 15.7895Z" fill="#808080"/>
<path d="M151.683 7.98724C151.683 7.98724 151.512 10.4868 151.772 14.9669L151.917 8.21504L162.58 8.10114C162.58 8.10114 158.751 7.67085 151.683 7.98724Z" fill="#808080"/>
<path d="M149.083 5.59519C149.083 5.59519 148.874 11.4801 149.19 16.726L149.368 5.86729L162.435 5.7344C162.435 5.7344 157.746 5.22184 149.083 5.59519Z" fill="#808080"/>
</g>
<defs>
<clipPath id="clip0_401_7400">
<rect width="150.351" height="28.3679" fill="white" transform="translate(14.3246 5.31641)"/>
</clipPath>
</defs>
</svg>
