<svg width="122" height="25" viewBox="0 0 122 25" fill="none" xmlns="http://www.w3.org/2000/svg">
<rect width="121.063" height="25" rx="12.5" fill="#6A78C1"/>
<path d="M32.7997 16.6153H31.5824V10.8635H29.4375V9.82373H34.9412V10.8635H32.7997V16.6153Z" fill="#E9E9E9"/>
<path d="M41.6375 11.8635C41.6515 12.3014 41.5153 12.7305 41.2526 13.0766C40.9415 13.4416 40.5265 13.698 40.0657 13.8097V13.8305L42.0427 16.6224H40.5829L38.7703 13.9865H37.9361V16.6154H36.7188V9.8238H38.7347C39.0464 9.82242 39.3579 9.84152 39.6673 9.88099C39.9197 9.91105 40.1681 9.96916 40.4082 10.0543C40.7681 10.1843 41.0825 10.42 41.3119 10.7319C41.5363 11.0637 41.6504 11.4604 41.6375 11.8635ZM38.538 12.945C38.7742 12.9476 39.0104 12.9349 39.2451 12.9068C39.4123 12.8887 39.5767 12.8503 39.7351 12.7924C39.9433 12.7267 40.123 12.5896 40.2438 12.4042C40.3403 12.2326 40.389 12.0372 40.3845 11.8393C40.3879 11.6705 40.3494 11.5035 40.2726 11.354C40.1862 11.2026 40.0524 11.0853 39.8928 11.0213C39.7537 10.961 39.607 10.9207 39.457 10.9017C39.2411 10.8736 39.0236 10.8608 38.8059 10.8636H37.9361V12.9432L38.538 12.945Z" fill="#E9E9E9"/>
<path d="M47.7466 14.8823H45.244L44.593 16.6153H43.2959L45.9341 9.82373H47.043L49.6813 16.6153H48.3995L47.7466 14.8823ZM46.4852 11.4562C46.2535 12.1667 46.0438 12.7606 45.8562 13.2377L45.6289 13.8425H47.3465L47.1193 13.2377C46.9441 12.7525 46.7395 12.1587 46.5055 11.4562H46.4852Z" fill="#E9E9E9"/>
<path d="M54.9236 12.9812C55.4006 13.6744 55.7884 14.2902 56.0868 14.8286H56.1156C56.076 13.9448 56.0563 13.3018 56.0563 12.8998V9.82373H57.2736V16.6153H55.9969L53.8249 13.489C53.4429 12.946 53.0473 12.3181 52.638 11.6052H52.6092C52.6488 12.4371 52.6686 13.0818 52.6686 13.5393V16.6153H51.4512V9.82373H52.7279L54.9236 12.9812Z" fill="#E9E9E9"/>
<path d="M62.9658 14.6667C62.973 14.517 62.9293 14.3694 62.8421 14.249C62.7509 14.1355 62.6347 14.0458 62.503 13.9873C62.349 13.9157 62.1882 13.8605 62.0231 13.8227C61.8451 13.7794 61.6602 13.7378 61.4636 13.6979C61.2138 13.6426 60.967 13.5738 60.7243 13.4917C60.5007 13.4187 60.2909 13.3073 60.1037 13.1624C59.9226 13.0203 59.7763 12.8369 59.6765 12.627C59.5622 12.3724 59.5077 12.0941 59.5171 11.8141C59.5099 11.4917 59.5724 11.1716 59.7002 10.8766C59.8161 10.6212 59.9871 10.3961 60.2004 10.2181C60.421 10.0379 60.6747 9.90476 60.9464 9.82643C61.2574 9.73592 61.5795 9.69214 61.9027 9.69646C62.2613 9.6972 62.619 9.73318 62.9709 9.8039C63.2858 9.86587 63.5938 9.96052 63.8899 10.0864V11.1435C63.5696 11.0122 63.2381 10.9112 62.8997 10.842C62.606 10.782 62.3073 10.7506 62.0078 10.7484C61.684 10.7283 61.3614 10.8061 61.0804 10.9719C60.9732 11.0454 60.8867 11.1463 60.8295 11.2646C60.7724 11.3829 60.7466 11.5144 60.7549 11.6461C60.7487 11.7958 60.7858 11.9441 60.8617 12.0724C60.936 12.1872 61.0359 12.2822 61.1533 12.3497C61.2858 12.4266 61.4278 12.4849 61.5755 12.523C61.7348 12.568 61.9027 12.6079 62.0841 12.646C62.3656 12.7066 62.6335 12.776 62.8912 12.8557C63.1328 12.9299 63.3616 13.0421 63.5694 13.1884C63.7689 13.3314 63.9308 13.5225 64.0408 13.7447C64.1629 14.016 64.221 14.3128 64.2104 14.6113C64.2185 14.9393 64.1505 15.2648 64.012 15.5609C63.8814 15.8262 63.6878 16.0538 63.449 16.2229C63.1805 16.4092 62.8795 16.541 62.5623 16.6111C62.1876 16.6994 61.804 16.7424 61.4195 16.7394C61.0619 16.7396 60.7051 16.7031 60.3547 16.6302C60.0523 16.5744 59.7601 16.4716 59.4883 16.3251V15.2853C59.7967 15.4244 60.1183 15.5307 60.4479 15.6025C60.7649 15.669 61.0875 15.7021 61.411 15.7013C61.6008 15.7018 61.7903 15.6856 61.9773 15.6528C62.152 15.6225 62.3209 15.564 62.4775 15.4795C62.6194 15.4052 62.7412 15.2963 62.8319 15.1623C62.9253 15.0151 62.9721 14.842 62.9658 14.6667Z" fill="#E9E9E9"/>
<path d="M71.2159 11.6329C71.2186 11.9149 71.1522 12.1931 71.0226 12.4422C70.8739 12.7072 70.6506 12.9203 70.3817 13.054V13.0747C70.5415 13.1286 70.6941 13.2025 70.8361 13.2948C70.9699 13.3814 71.0891 13.4897 71.1888 13.6154C71.2878 13.7403 71.3652 13.8815 71.4177 14.0331C71.4734 14.2004 71.501 14.3762 71.4991 14.553C71.497 14.7336 71.4714 14.9131 71.4228 15.0868C71.3656 15.2856 71.2737 15.4724 71.1515 15.6379C71.0071 15.8291 70.8323 15.9943 70.6344 16.1266C70.3848 16.2914 70.1096 16.4114 69.8205 16.4818C69.7374 16.5026 69.6509 16.5217 69.5492 16.539C69.4475 16.5563 69.3441 16.5702 69.2237 16.5806C69.1033 16.591 68.9727 16.6013 68.8269 16.6066C68.6812 16.6118 68.5166 16.6066 68.3352 16.6066H66.4023V9.82538H68.7133C69.1142 9.81367 69.5144 9.86451 69.9002 9.97615C70.1087 10.0427 70.3059 10.1414 70.4852 10.269C70.642 10.3792 70.7805 10.5143 70.8955 10.6693C71 10.8106 71.0809 10.9688 71.1345 11.1373C71.1865 11.2972 71.214 11.4644 71.2159 11.6329ZM68.7184 12.6225C68.9693 12.6321 69.2198 12.5951 69.4576 12.5133C69.6188 12.4526 69.7559 12.3393 69.8476 12.1909C69.9268 12.0497 69.9672 11.8892 69.9646 11.7265C69.967 11.5565 69.9205 11.3895 69.8307 11.2464C69.7189 11.0905 69.5567 10.98 69.3729 10.9345C69.271 10.9045 69.1665 10.8848 69.0609 10.8756C68.9405 10.8652 68.793 10.8582 68.6184 10.8582H67.6197V12.6225H68.7184ZM67.6197 13.6622V15.5685H68.4149C68.6268 15.5685 68.8083 15.5685 68.9609 15.5512C69.0933 15.5424 69.2249 15.5226 69.3543 15.4923C69.5009 15.4623 69.643 15.4122 69.7764 15.3432C69.8784 15.2875 69.9707 15.2149 70.0494 15.1283C70.1172 15.0526 70.1681 14.9628 70.1986 14.8649C70.228 14.7655 70.2429 14.6621 70.2427 14.5582C70.2463 14.3796 70.192 14.2047 70.0884 14.0608C69.9656 13.9041 69.7968 13.7917 69.6069 13.7402C69.4961 13.7076 69.3826 13.6855 69.2678 13.6743C69.1026 13.6589 68.9368 13.6519 68.771 13.6536L67.6197 13.6622Z" fill="#E9E9E9"/>
<path d="M73.5762 16.6153V9.82373H74.7919V16.6153H73.5762Z" fill="#E9E9E9"/>
<path d="M83.3944 13.2211C83.3998 13.7042 83.3274 14.185 83.1792 14.6438C83.0465 15.0559 82.8319 15.4352 82.5484 15.7582C82.2668 16.0747 81.9188 16.3227 81.5313 16.4843C80.647 16.8309 79.6682 16.8309 78.7845 16.4843C78.3964 16.3225 78.0491 16.0745 77.7668 15.7582C77.4839 15.4352 77.269 15.0559 77.1363 14.6438C76.9876 14.1851 76.9143 13.7044 76.9192 13.2211C76.9142 12.7372 76.9875 12.2559 77.1363 11.7966C77.269 11.3846 77.4839 11.0052 77.7668 10.6822C78.0491 10.3659 78.3964 10.1178 78.7845 9.95612C79.6682 9.60952 80.647 9.60952 81.5313 9.95612C81.9188 10.1176 82.2668 10.3657 82.5484 10.6822C82.8319 11.0052 83.0465 11.3846 83.1792 11.7966C83.3274 12.256 83.3998 12.7374 83.3944 13.2211ZM82.138 13.2211C82.1448 12.8537 82.0945 12.4875 81.9885 12.1362C81.9047 11.8521 81.7639 11.5885 81.5769 11.3616C81.4079 11.1591 81.1941 11.001 80.9527 10.9006C80.4418 10.6972 79.8753 10.6972 79.3645 10.9006C79.1224 11.0012 78.9072 11.1592 78.7369 11.3616C78.5506 11.5893 78.4104 11.8526 78.3246 12.1362C78.22 12.4877 78.1697 12.8537 78.1758 13.2211C78.1697 13.5878 78.22 13.9533 78.3246 14.3042C78.4104 14.5869 78.5506 14.8492 78.7369 15.0754C78.9086 15.277 79.1231 15.4353 79.3645 15.5381C79.8747 15.7437 80.4425 15.7437 80.9527 15.5381C81.1941 15.436 81.4079 15.2775 81.5782 15.0754C81.7666 14.8501 81.9068 14.5875 81.9906 14.3042C82.0958 13.9535 82.1461 13.5879 82.1401 13.2211H82.138Z" fill="#E9E9E9"/>
<path d="M87.9902 16.6153H86.7726V10.8635H84.6279V9.82373H90.1315V10.8635H87.9902V16.6153Z" fill="#E9E9E9"/>
<path d="M93.1247 15.5756H96.3937V16.6153H91.9092V9.82373H96.212V10.8635H93.1247V12.6208H95.7783V13.6606H93.1247V15.5756Z" fill="#E9E9E9"/>
<path d="M101.754 10.7483C101.44 10.7473 101.129 10.8061 100.837 10.9216C100.564 11.0262 100.316 11.1906 100.113 11.4033C99.9035 11.6295 99.7439 11.8982 99.6434 12.1918C99.5247 12.5368 99.467 12.9007 99.4737 13.2663C99.467 13.6238 99.5193 13.9801 99.6279 14.3199C99.7184 14.6032 99.87 14.8625 100.07 15.079C100.267 15.2848 100.507 15.4419 100.772 15.5383C101.075 15.646 101.393 15.6983 101.714 15.6925C101.972 15.6926 102.231 15.6724 102.487 15.6318C102.735 15.5959 102.981 15.5379 103.221 15.4586V16.5295C102.975 16.6004 102.725 16.6537 102.471 16.689C102.195 16.7283 101.916 16.748 101.637 16.7479C101.132 16.7555 100.631 16.671 100.155 16.4983C99.7526 16.3507 99.3866 16.114 99.0835 15.8051C98.7932 15.4993 98.5727 15.1319 98.4379 14.7289C98.2891 14.2828 98.216 13.8139 98.222 13.3425C98.2173 12.852 98.2958 12.3642 98.4527 11.9007C98.5968 11.4746 98.8234 11.0826 99.1191 10.7483C99.4221 10.4141 99.7929 10.152 100.206 9.98055C100.676 9.78816 101.178 9.6916 101.685 9.69633C101.952 9.69592 102.22 9.71561 102.485 9.75526C102.715 9.78885 102.943 9.84397 103.163 9.91989V10.977C102.921 10.8996 102.673 10.8416 102.422 10.8037C102.201 10.7693 101.978 10.7507 101.754 10.7483Z" fill="#E9E9E9"/>
<path d="M106.517 12.6208H109.598V9.82373H110.815V16.6153H109.598V13.6606H106.517V16.6153H105.302V9.82373H106.517V12.6208Z" fill="#E9E9E9"/>
<path d="M22.2873 13.8448L23.3436 14.3196C24.1489 14.6819 24.6475 15.3092 24.6475 15.9539C24.6475 16.5483 24.2354 16.9815 23.9896 17.1878C23.393 17.6519 22.6604 17.8962 21.9109 17.8809H15.0135C16.6259 16.4495 18.5215 15.0025 20.1814 14.356L20.6308 14.2625L18.2383 13.0962C14.103 15.0752 10.249 19.8757 10.249 19.8757H21.9075C24.4915 19.8757 26.5905 18.1219 26.5905 15.9539C26.5905 14.4618 25.5935 13.162 24.1252 12.5L20.2866 10.767C18.6266 10.1137 16.6259 8.54185 15.0135 7.1052H21.9075C22.6573 7.09411 23.3887 7.3427 23.9828 7.81053C24.2287 8.01675 24.6406 8.45174 24.6406 9.04616C24.6406 9.69082 24.1422 10.3182 23.3368 10.6804L22.879 10.7878L25.0001 11.9004C26.07 11.1829 26.5854 10.2835 26.5854 9.04616C26.5905 6.87991 24.4915 5.12439 21.9075 5.12439H10.249C10.249 5.12439 15.2559 10.618 19.4965 12.5312L22.2873 13.8448Z" fill="#E9E9E9"/>
</svg>
