<svg width="20" height="20" viewBox="0 0 20 20" fill="none" xmlns="http://www.w3.org/2000/svg">
<path fill-rule="evenodd" clip-rule="evenodd" d="M10.2595 1.93045C8.90493 1.93045 7.63358 2.27451 6.52519 2.87926L5.6006 1.18463C6.98548 0.429035 8.57384 0 10.2595 0C15.6388 0 19.9995 4.36074 19.9995 9.73999C19.9995 15.1192 15.6388 19.48 10.2595 19.48C4.88027 19.48 0.519531 15.1192 0.519531 9.73999H2.44998C2.44998 14.0531 5.94643 17.5495 10.2595 17.5495C14.5726 17.5495 18.0691 14.0531 18.0691 9.73999C18.0691 5.4269 14.5726 1.93045 10.2595 1.93045Z" fill="white"/>
<path fill-rule="evenodd" clip-rule="evenodd" d="M6.05688 7.52451C4.83229 9.64556 5.55902 12.3577 7.68007 13.5823L6.71484 15.2542C3.67047 13.4965 2.62739 9.60366 4.38506 6.55929C6.14273 3.51492 10.0356 2.47184 13.0799 4.22951L12.1147 5.90133C9.99365 4.67674 7.28147 5.40346 6.05688 7.52451Z" fill="white"/>
</svg>
