<svg width="33" height="19" viewBox="0 0 33 19" fill="none" xmlns="http://www.w3.org/2000/svg">
<path fill-rule="evenodd" clip-rule="evenodd" d="M9.03352 3.17851C5.77535 3.17851 3.13408 5.81978 3.13408 9.07796V10.0113H0V9.07796C0 4.08888 4.04444 0.0444336 9.03352 0.0444336H9.28601C14.1356 0.0444336 18.067 4.22832 18.067 9.07795C18.067 12.3361 20.7083 14.9774 23.9665 14.9774C27.2247 14.9774 29.8659 12.3361 29.8659 9.07795V8.14464H33V9.07795C33 14.067 28.9556 18.1115 23.9665 18.1115C18.9774 18.1115 14.933 14.067 14.933 9.07795C14.933 5.95923 12.4047 3.17851 9.28601 3.17851H9.03352Z" fill="white"/>
<path fill-rule="evenodd" clip-rule="evenodd" d="M1.1748 11.8385V11.1719H4.37054V11.8385C4.37054 13.5658 5.82427 14.966 7.61755 14.966C9.41082 14.966 10.8645 13.5658 10.8645 11.8385V11.1719H14.0603V11.8385C14.0603 15.2658 11.1758 18.0441 7.61755 18.0441C4.05932 18.0441 1.1748 15.2658 1.1748 11.8385Z" fill="white"/>
<path fill-rule="evenodd" clip-rule="evenodd" d="M19.2139 6.20542V6.87207H22.1966V6.20542C22.1966 4.47815 23.5534 3.07793 25.2271 3.07793C26.9008 3.07793 28.2576 4.47815 28.2576 6.20542V6.87207H31.2403V6.20542C31.2403 2.77816 28.5481 -0.000185966 25.2271 -0.000185966C21.9061 -0.000185966 19.2139 2.77816 19.2139 6.20542Z" fill="white"/>
</svg>
