<svg width="42" height="17" viewBox="0 0 42 17" fill="none" xmlns="http://www.w3.org/2000/svg">
<path fill-rule="evenodd" clip-rule="evenodd" d="M40.2429 3.50414H42V0.38623H40.2429C35.6379 0.38623 31.9048 4.10748 31.9048 8.69787V9.23598C31.9048 11.8072 29.8138 13.8916 27.2344 13.8916C24.655 13.8916 22.5639 11.8072 22.5639 9.23598V7.83269C22.5639 3.72012 19.2194 0.38623 15.0938 0.38623C10.9681 0.38623 7.62358 3.72012 7.62358 7.83268V8.69787C7.62358 11.5663 5.29086 13.8916 2.41331 13.8916H0V17.0095H2.41331C7.01832 17.0095 10.7514 13.2883 10.7514 8.69787V7.83268C10.7514 5.44209 12.6955 3.50414 15.0938 3.50414C17.492 3.50414 19.4361 5.4421 19.4361 7.83269V9.23598C19.4361 13.5292 22.9275 17.0095 27.2344 17.0095C31.5413 17.0095 35.0327 13.5292 35.0327 9.23598V8.69787C35.0327 5.82945 37.3654 3.50414 40.2429 3.50414Z" fill="white"/>
<path d="M29.8061 8.69595C29.8061 10.1877 28.5929 11.397 27.0964 11.397C25.5999 11.397 24.3867 10.1877 24.3867 8.69595C24.3867 7.20419 25.5999 5.99487 27.0964 5.99487C28.5929 5.99487 29.8061 7.20419 29.8061 8.69595Z" fill="white"/>
</svg>
