<svg width="44" height="44" viewBox="0 0 44 44" fill="none" xmlns="http://www.w3.org/2000/svg">
<circle cx="21.9996" cy="22.0319" r="21.1637" fill="#E04918"/>
<path fill-rule="evenodd" clip-rule="evenodd" d="M36.3776 18.3277H37.6687V16.0293H36.3776C32.9938 16.0293 30.2506 18.7724 30.2506 22.1562V22.5529C30.2506 24.4483 28.7141 25.9848 26.8187 25.9848C24.9234 25.9848 23.3868 24.4483 23.3868 22.5529V21.5185C23.3868 18.4869 20.9293 16.0293 17.8977 16.0293C14.8661 16.0293 12.4085 18.4869 12.4085 21.5185V22.1562C12.4085 24.2707 10.6944 25.9848 8.57996 25.9848H6.80664V28.2832H8.57996C11.9638 28.2832 14.7069 25.54 14.7069 22.1562V21.5185C14.7069 19.7562 16.1355 18.3277 17.8977 18.3277C19.6599 18.3277 21.0885 19.7562 21.0885 21.5185V22.5529C21.0885 25.7176 23.654 28.2832 26.8187 28.2832C29.9835 28.2832 32.549 25.7176 32.549 22.5529V22.1562C32.549 20.0418 34.2631 18.3277 36.3776 18.3277Z" fill="#E9E9E9"/>
<path d="M28.7087 22.1569C28.7087 23.2566 27.8173 24.148 26.7176 24.148C25.618 24.148 24.7265 23.2566 24.7265 22.1569C24.7265 21.0573 25.618 20.1658 26.7176 20.1658C27.8173 20.1658 28.7087 21.0573 28.7087 22.1569Z" fill="#E9E9E9"/>
</svg>
