<svg width="175" height="38" viewBox="0 0 175 38" fill="none" xmlns="http://www.w3.org/2000/svg">
<rect x="1.08679" y="0.487179" width="173.436" height="37.0256" rx="18.5128" stroke="#808080" stroke-width="0.974359"/>
<g clip-path="url(#clip0_401_7548)">
<path d="M113.306 21.1237C113.306 17.4243 115.994 14.5326 119.995 14.5326C121.136 14.5326 122.431 14.8101 123.393 15.3465V18.1333H123.319C122.332 17.5476 121.339 17.2701 120.23 17.2701C117.819 17.2701 116.53 18.9164 116.53 21.1237C116.53 23.331 117.825 24.9772 120.23 24.9772C121.346 24.9772 122.332 24.6997 123.319 24.114H123.393V26.9009C122.431 27.4311 121.136 27.7147 119.995 27.7147C115.994 27.7086 113.306 24.8231 113.306 21.1237ZM113.003 27.4558C112.523 27.5544 111.962 27.6346 111.456 27.6346C109.051 27.6346 107.757 26.3706 107.757 24.0338V14.7854H110.926V23.8057C110.926 24.6442 111.333 25.045 112.196 25.045C112.399 25.045 112.652 25.0203 112.93 24.971H113.003V27.4558ZM111.252 11.6964C111.252 12.7076 110.439 13.5708 109.378 13.5708C108.318 13.5708 107.528 12.7076 107.528 11.6964C107.528 10.6852 108.367 9.84671 109.378 9.84671C110.445 9.84055 111.252 10.6791 111.252 11.6964ZM97.1146 20.3838C97.1146 18.4293 98.1012 17.1653 99.9262 17.1653C101.751 17.1653 102.565 18.3553 102.565 20.3838V27.4558H105.71V20.2605C105.71 17.2208 104.137 14.5326 100.715 14.5326C98.8904 14.5326 97.6757 15.4451 96.9913 16.8139V14.7854H93.9763V27.4558H97.1208V20.3838H97.1146ZM85.6466 25.0019C87.9032 25.0019 89.0685 23.3556 89.0685 21.1237C89.0685 18.8917 87.9032 17.2455 85.6466 17.2455C83.3899 17.2455 82.2 18.8917 82.2 21.1237C82.2 23.3556 83.4454 25.0019 85.6466 25.0019ZM85.6466 27.7086C81.6697 27.7086 78.9815 24.8169 78.9815 21.1175C78.9815 17.4181 81.6697 14.5264 85.6466 14.5264C89.6234 14.5264 92.2869 17.4181 92.2869 21.1175C92.2869 24.8169 89.6049 27.7086 85.6466 27.7086ZM74.7025 20.8154C74.7025 18.7622 75.7692 17.6216 77.7977 17.6216C78.1491 17.6216 78.5314 17.6709 78.889 17.7757H78.9383V14.8347C78.6116 14.7052 78.18 14.6312 77.699 14.6312C76.1761 14.6312 75.165 15.5684 74.5792 17.0913V14.7854H71.5642V27.4558H74.7087V20.8154H74.7025ZM53.838 25.0512C55.9652 25.0512 57.1551 23.405 57.1551 21.099C57.1551 18.7931 55.9652 17.1715 53.838 17.1715C51.7109 17.1715 50.5702 18.8177 50.5702 21.099C50.5702 23.3803 51.6862 25.0512 53.838 25.0512ZM68.2101 27.7086C65.2938 27.7086 63.6476 26.3645 63.6476 23.3248V17.3441H60.1516V23.7071C60.1516 24.6442 60.5092 25.0265 61.2676 25.0265C61.4464 25.0265 61.6499 25.0265 61.878 24.9772H61.952V27.4619C61.6499 27.5359 61.0395 27.6161 60.5832 27.6161C58.8568 27.6161 57.7964 26.9564 57.3401 25.5136C56.4276 26.9317 54.9848 27.7209 53.1845 27.7209C49.966 27.7209 47.3579 25.2115 47.3579 21.1052C47.3579 16.9989 49.966 14.5388 53.1845 14.5388C54.7814 14.5388 56.1008 15.1492 57.0133 16.2651V9.97003H60.1578V14.7854H63.6537V11.7704H66.7982V14.7854H70.1708V17.3441H66.7982V23.1707C66.7982 24.4408 67.4333 25.045 68.6479 25.045C69.2028 25.045 69.5851 24.9957 70.0906 24.8662H70.1646V27.4496C69.5542 27.6099 68.8205 27.7086 68.2101 27.7086ZM14.5567 27.4558H17.6765L18.2623 16.5303L18.3918 13.5646H18.4411L19.1008 16.5303L21.6349 27.4558H25.5377L28.0965 16.5303L28.7315 13.5646H28.7809L28.9103 16.5303L29.5207 27.4558H32.7639L31.691 9.97003H26.5181L24.1875 20.4639L23.6819 23.1275H23.6326L23.1023 20.4639L20.7655 9.97003H15.5987L14.5567 27.4558ZM46.1618 20.8955C46.1618 21.5059 46.1125 22.1348 46.0077 22.6466H36.8825C37.2093 24.1695 38.5041 25.1067 40.9395 25.1067H40.995C41.1491 25.1067 41.2971 25.1067 41.4451 25.0943C41.5252 25.0943 41.6054 25.082 41.6855 25.0758C41.7472 25.0758 41.8089 25.0635 41.8705 25.0573C42.8817 24.9525 43.8435 24.6812 44.7314 24.2681C44.7992 24.2373 44.8732 24.2003 44.941 24.1695C45.1198 24.077 45.2924 23.9784 45.4651 23.8797H45.5452V26.4446C44.2073 27.2523 42.6474 27.7209 40.9703 27.7209C40.9087 27.7209 40.847 27.7209 40.7854 27.7209C36.1981 27.7209 33.6887 25.1128 33.6887 21.3086C33.6887 17.227 36.2721 14.5388 40.027 14.5388C43.7819 14.5326 46.1618 17.1962 46.1618 20.8955ZM43.1715 20.1865C43.0173 18.2875 42.0308 17.1715 40.027 17.1715C38.1773 17.1715 37.0367 18.3368 36.8332 20.1865H43.1715Z" fill="#808080"/>
<path d="M140.466 25.1192L140.509 24.6568C140.577 24.6753 140.639 24.6876 140.713 24.6876C140.787 24.6876 140.848 24.6753 140.892 24.6506C140.935 24.626 140.972 24.5951 141.003 24.5458C141.033 24.5027 141.064 24.4348 141.095 24.3485L141.2 24.0772L140.281 21.9131H140.873L141.471 23.4915L142.001 21.9131H142.562L141.551 24.5335C141.496 24.6753 141.44 24.7863 141.373 24.8726C141.305 24.9589 141.225 25.0267 141.12 25.0761C141.015 25.1192 140.892 25.1439 140.737 25.1439C140.639 25.1562 140.546 25.1439 140.46 25.1192H140.466Z" fill="#808080"/>
<path d="M143.326 24.009C143.153 23.9165 143.017 23.787 142.912 23.6205C142.814 23.4479 142.765 23.2506 142.765 23.0286C142.765 22.8067 142.814 22.6032 142.912 22.4306C143.011 22.2579 143.147 22.1223 143.319 22.0236C143.492 21.9312 143.683 21.8818 143.899 21.8818C144.102 21.8818 144.281 21.925 144.435 22.0113C144.59 22.0976 144.713 22.2333 144.799 22.4059C144.886 22.5786 144.929 22.7944 144.929 23.041C144.929 23.1026 144.929 23.152 144.929 23.1828H143.301C143.301 23.2814 143.338 23.3678 143.4 23.4479C143.455 23.5281 143.529 23.5897 143.622 23.639C143.714 23.6884 143.813 23.7069 143.911 23.7069C144.158 23.7069 144.349 23.6144 144.479 23.4294L144.836 23.713C144.627 23.9966 144.318 24.1446 143.917 24.1446C143.702 24.1446 143.504 24.0953 143.332 24.009H143.326ZM144.398 22.7944C144.398 22.7019 144.38 22.6094 144.343 22.5354C144.306 22.4552 144.25 22.3936 144.17 22.3504C144.096 22.3073 144.004 22.2826 143.893 22.2826C143.788 22.2826 143.696 22.3073 143.603 22.3504C143.517 22.3936 143.443 22.4552 143.387 22.5354C143.332 22.6155 143.301 22.7019 143.295 22.8005H144.398V22.7944Z" fill="#808080"/>
<path d="M145.701 24.0651C145.577 24.0219 145.479 23.9479 145.392 23.8493C145.312 23.7506 145.269 23.6212 145.269 23.467C145.269 23.1834 145.405 22.9861 145.682 22.8874C145.959 22.7888 146.305 22.7395 146.73 22.7395H146.743V22.684C146.743 22.5607 146.699 22.462 146.607 22.3942C146.514 22.3264 146.397 22.2894 146.255 22.2894C146.144 22.2894 146.04 22.314 145.935 22.3572C145.83 22.4065 145.744 22.462 145.67 22.536L145.392 22.2092C145.509 22.0982 145.651 22.0181 145.812 21.9564C145.972 21.9009 146.132 21.8701 146.299 21.8701C146.65 21.8701 146.89 21.9564 147.038 22.1291C147.18 22.3017 147.254 22.5175 147.254 22.7703V24.0713H146.755V23.8H146.743C146.687 23.8924 146.601 23.9726 146.484 24.0343C146.36 24.0959 146.231 24.1267 146.077 24.1267C145.953 24.1329 145.824 24.1144 145.701 24.0651ZM146.601 23.5842C146.699 23.4855 146.749 23.3499 146.749 23.1772V23.1032H146.625C146.397 23.1032 146.206 23.1279 146.046 23.1772C145.885 23.2266 145.805 23.319 145.805 23.4609C145.805 23.5533 145.842 23.6273 145.916 23.6643C145.99 23.7075 146.077 23.726 146.181 23.726C146.366 23.726 146.508 23.6828 146.601 23.5842Z" fill="#808080"/>
<path d="M147.883 22.3383V21.9191H148.395V22.2767C148.457 22.1472 148.537 22.0486 148.648 21.9684C148.759 21.8944 148.882 21.8574 149.018 21.8574C149.067 21.8574 149.11 21.8636 149.147 21.8698V22.363C149.085 22.3507 149.03 22.3383 148.981 22.3383C148.833 22.3383 148.716 22.3753 148.629 22.4432C148.543 22.511 148.481 22.5911 148.45 22.6775C148.42 22.7638 148.401 22.8439 148.401 22.9179V24.0832H147.865V22.3383H147.877H147.883Z" fill="#808080"/>
<path d="M149.64 24.0521C149.48 23.9905 149.351 23.9042 149.252 23.7932L149.603 23.4602C149.665 23.5404 149.739 23.6082 149.838 23.6575C149.936 23.7069 150.041 23.7315 150.152 23.7315C150.245 23.7315 150.325 23.713 150.393 23.6699C150.46 23.6267 150.497 23.5651 150.497 23.4787C150.497 23.4232 150.479 23.3739 150.442 23.3431C150.405 23.3061 150.356 23.2753 150.288 23.2506C150.22 23.2259 150.127 23.2013 150.004 23.1705C149.881 23.1396 149.77 23.1026 149.677 23.0595C149.585 23.0163 149.511 22.9547 149.455 22.8745C149.4 22.7944 149.369 22.6895 149.369 22.5662C149.369 22.4121 149.412 22.2888 149.492 22.184C149.573 22.0791 149.677 22.0051 149.807 21.9558C149.936 21.9065 150.078 21.8818 150.226 21.8818C150.386 21.8818 150.541 21.9127 150.689 21.9682C150.837 22.0236 150.948 22.1038 151.034 22.2086L150.682 22.5169C150.633 22.4491 150.565 22.3936 150.479 22.3504C150.393 22.3073 150.306 22.2826 150.214 22.2826C150.121 22.2826 150.035 22.3011 149.973 22.3381C149.906 22.3751 149.875 22.4367 149.875 22.5107C149.875 22.5662 149.893 22.6094 149.924 22.6402C149.961 22.671 150.004 22.7019 150.066 22.7204C150.127 22.7389 150.22 22.7635 150.337 22.7944C150.541 22.8437 150.707 22.9115 150.837 23.0101C150.966 23.1026 151.034 23.2444 151.034 23.4356C151.034 23.602 150.991 23.7377 150.911 23.8425C150.83 23.9473 150.726 24.0275 150.59 24.0768C150.454 24.1261 150.306 24.1508 150.14 24.1508C149.967 24.1508 149.801 24.1138 149.64 24.0521Z" fill="#808080"/>
<path d="M127.085 7.63379V8.89158H138.714L128.744 31.4208L129.872 31.9881L140.643 7.65229L127.085 7.63379Z" fill="#808080"/>
<path d="M127.165 5.25977V6.52372H141.802V8.30559L131.45 31.4206L132.585 31.9878L143.042 8.45357V5.28443L127.165 5.25977Z" fill="#808080"/>
<g opacity="0.56">
<path d="M132.055 31.2232C135.04 24.5027 139.195 15.0939 142.186 8.50285C142.142 8.84196 142.229 6.06125 142.216 6.13524L142.71 6.1599L142.537 8.58917V8.62616C140.872 12.4365 139.214 16.2469 137.518 20.0449L132.475 31.4144L132.055 31.2232Z" fill="#808080"/>
</g>
<g opacity="0.56">
<path d="M140.472 7.79419L127.259 7.76953V8.25662L139.097 8.57106L129.275 31.1126L129.553 31.236L140.373 7.7757L140.472 7.79419Z" fill="#808080"/>
</g>
<g opacity="0.56">
<path d="M127.215 5.29102L127.227 6.00623L142.727 6.15421L142.709 5.52531L127.215 5.29102Z" fill="#808080"/>
</g>
<path d="M129.44 31.3283L129.298 31.2666L139.687 8.02832L139.829 8.08998L129.44 31.3283Z" fill="#808080"/>
<path d="M132.253 31.5809L132.111 31.5193L142.303 8.50293L142.445 8.57075L132.253 31.5809Z" fill="#808080"/>
<path d="M142.445 8.55215H142.29L142.34 5.6543H142.494L142.445 8.55215Z" fill="#808080"/>
<path d="M137.683 8.15137H129.563V8.24385H137.683V8.15137Z" fill="#808080"/>
<path d="M140.643 5.80273H129.89V5.89522H140.643V5.80273Z" fill="#808080"/>
<g opacity="0.92">
<path d="M139.62 7.96049C139.62 7.96049 137.524 7.71387 133.707 7.71387C133.707 7.71387 130.458 7.71387 128.565 7.85568H128.3L127.363 7.83101V8.1393L139.139 8.10847H138.85H139.62C139.663 8.10847 139.694 8.07147 139.694 8.03448C139.694 7.99749 139.663 7.96049 139.62 7.96049Z" fill="#808080"/>
</g>
<g opacity="0.92">
<path d="M142.394 5.59319C142.394 5.59319 139.823 5.30957 135.137 5.30957C135.137 5.30957 131.154 5.30957 128.824 5.47604H128.497L127.35 5.45138V5.80899L141.802 5.77816H141.451H142.394C142.443 5.77816 142.487 5.74117 142.487 5.69184C142.487 5.63635 142.443 5.59319 142.394 5.59319Z" fill="#808080"/>
</g>
<path d="M151.883 32.8203C149.984 32.8203 148.307 32.3702 146.901 31.4885C145.501 30.6068 144.398 29.3613 143.621 27.7829L144.694 27.2527C145.372 28.6276 146.327 29.7128 147.536 30.4711C148.744 31.2295 150.206 31.618 151.883 31.618C153.449 31.618 154.848 31.2727 156.051 30.5821C157.247 29.9039 158.184 28.9421 158.85 27.7336C159.516 26.519 159.849 25.1194 159.849 23.578C159.849 22.0365 159.516 20.7973 158.856 19.6689C158.196 18.5468 157.271 17.6589 156.106 17.0362C154.472 16.1669 152.456 15.8956 150.323 16.2223C149.743 16.3148 149.201 16.4505 148.701 16.6293L147.881 16.9252L148.097 7.4918H159.429V8.68794H149.262L149.114 15.2543C149.441 15.168 149.786 15.1002 150.138 15.0447C152.536 14.6686 154.805 14.9892 156.667 15.9819C158.036 16.7094 159.121 17.7514 159.892 19.0647C160.663 20.378 161.051 21.8947 161.051 23.578C161.051 25.2612 160.663 26.9136 159.904 28.307C159.133 29.7128 158.042 30.8226 156.649 31.618C155.255 32.4195 153.658 32.8203 151.883 32.8203ZM151.735 30.5636C150.502 30.5636 149.349 30.2122 148.307 29.5155C147.302 28.8496 146.537 27.9432 146.031 26.8334L145.976 26.7101L147.073 26.2292L147.123 26.334L146.58 26.5868L147.123 26.3402C147.536 27.2465 148.159 27.9802 148.972 28.529C149.829 29.0962 150.73 29.3737 151.741 29.3737C152.752 29.3737 153.714 29.1332 154.54 28.6523C155.366 28.1775 156.02 27.5116 156.488 26.6731C156.957 25.8346 157.197 24.8789 157.197 23.8492C157.197 22.7209 156.951 21.7221 156.458 20.8712C155.964 20.0204 155.298 19.3853 154.423 18.9352C152.888 18.146 150.834 18.0597 148.818 18.5961C147.955 18.8242 147.117 19.1634 146.309 19.6011L145.409 20.0882L145.692 5.17969H159.429V6.37582H146.858L146.636 18.109C147.246 17.8377 147.869 17.6158 148.504 17.4431C149.46 17.1904 150.428 17.0609 151.371 17.0609C152.703 17.0609 153.905 17.3322 154.959 17.8747C156.032 18.4235 156.877 19.2312 157.481 20.2732C158.079 21.309 158.381 22.5113 158.381 23.8492C158.381 25.0885 158.091 26.2353 157.524 27.2588C156.951 28.2823 156.149 29.1024 155.132 29.6881C154.121 30.2677 152.98 30.5636 151.735 30.5636Z" fill="#808080"/>
<g opacity="0.56">
<path d="M151.852 32.4692C150.014 32.4692 148.405 32.0376 147.055 31.1929C145.711 30.3483 144.65 29.146 143.904 27.6292L144.348 27.4134C145.051 28.85 146.05 29.9783 147.32 30.7737C148.584 31.569 150.113 31.976 151.852 31.976C153.473 31.976 154.935 31.6122 156.192 30.897C157.444 30.1818 158.431 29.1768 159.121 27.9128C159.812 26.6427 160.163 25.1876 160.163 23.5845C160.163 21.9815 159.812 20.6805 159.121 19.5029C158.431 18.3191 157.456 17.3881 156.229 16.7345C154.528 15.8282 152.438 15.5446 150.224 15.8837C149.626 15.9761 149.059 16.1241 148.541 16.3091L148.202 16.4324L148.399 7.84984H159.386V8.34309H148.892L148.726 15.7295C149.176 15.5877 149.657 15.4767 150.162 15.3966C152.487 15.039 154.682 15.3411 156.476 16.2968C157.783 16.9935 158.825 17.9861 159.559 19.2501C160.293 20.5079 160.669 21.9692 160.669 23.5845C160.669 25.1999 160.299 26.803 159.565 28.1471C158.831 29.4974 157.777 30.5641 156.445 31.3224C155.107 32.087 153.566 32.4692 151.852 32.4692ZM151.71 30.2126C150.551 30.2126 149.46 29.8797 148.479 29.2261C147.53 28.591 146.808 27.7402 146.327 26.6859L146.278 26.5687L146.728 26.3714L146.777 26.4824L146.555 26.5872L146.784 26.4824C147.221 27.4504 147.887 28.2334 148.757 28.813C149.657 29.4172 150.656 29.7194 151.716 29.7194C152.777 29.7194 153.806 29.4604 154.688 28.9487C155.57 28.4369 156.266 27.7279 156.766 26.84C157.265 25.946 157.518 24.941 157.518 23.8435C157.518 22.6535 157.253 21.593 156.729 20.6867C156.211 19.7865 155.477 19.0898 154.552 18.615C153.621 18.1403 152.542 17.8937 151.352 17.8937C150.477 17.8937 149.589 18.0108 148.701 18.2513C147.813 18.4856 146.944 18.837 146.112 19.2871L145.742 19.4906L146.007 5.52539H159.405V6.01864H146.488L146.247 18.6582C146.999 18.2821 147.776 17.9861 148.572 17.7765C149.503 17.5299 150.434 17.4066 151.352 17.4066C152.622 17.4066 153.775 17.6655 154.78 18.1834C155.792 18.7014 156.593 19.4659 157.16 20.4462C157.728 21.4266 158.011 22.5734 158.011 23.8497C158.011 25.0273 157.734 26.1186 157.197 27.0866C156.655 28.0546 155.896 28.8315 154.935 29.3864C153.973 29.929 152.888 30.2126 151.71 30.2126Z" fill="#808080"/>
</g>
<path d="M151.852 32.3023C150.051 32.3023 148.467 31.883 147.147 31.0507C145.828 30.2245 144.792 29.0468 144.058 27.5548L144.194 27.4869C144.915 28.9482 145.933 30.1012 147.228 30.915C148.522 31.7289 150.076 32.142 151.852 32.142C153.504 32.142 154.996 31.7721 156.279 31.0383C157.561 30.3108 158.566 29.2811 159.275 27.9925C159.984 26.6977 160.342 25.218 160.342 23.5841C160.342 21.9502 159.984 20.6246 159.275 19.4161C158.566 18.2077 157.573 17.2581 156.316 16.5861C155.058 15.914 153.615 15.5749 152.037 15.5749C151.439 15.5749 150.822 15.6243 150.206 15.7167C149.595 15.8154 149.016 15.9572 148.492 16.1483L148.387 16.1853V16.0743L148.572 8.02202H159.392V8.17616H148.72L148.541 15.9695C149.046 15.7907 149.601 15.6551 150.181 15.5688C150.804 15.4701 151.426 15.4208 152.031 15.4208C153.64 15.4208 155.101 15.7661 156.384 16.4504C157.666 17.1348 158.677 18.109 159.399 19.3421C160.12 20.5753 160.484 22.0057 160.484 23.5903C160.484 25.1748 160.12 26.7532 159.399 28.0727C158.677 29.3921 157.647 30.4403 156.347 31.1802C155.052 31.9262 153.535 32.3023 151.852 32.3023ZM151.71 30.0395C150.582 30.0395 149.527 29.7189 148.572 29.0777C147.647 28.4611 146.95 27.6349 146.482 26.6114C146.463 26.5744 146.445 26.5313 146.432 26.4943L146.574 26.4326C146.592 26.4696 146.605 26.5066 146.623 26.5436L146.555 26.5744L146.629 26.5436C147.08 27.5424 147.764 28.3501 148.664 28.9482C149.595 29.5709 150.619 29.8854 151.716 29.8854C152.814 29.8854 153.868 29.6203 154.774 29.0962C155.681 28.5721 156.402 27.8384 156.914 26.9197C157.426 26.001 157.684 24.9652 157.684 23.8431C157.684 22.6223 157.413 21.5309 156.877 20.5999C156.34 19.6689 155.588 18.9537 154.632 18.4604C153.677 17.9734 152.573 17.7206 151.352 17.7206C150.465 17.7206 149.558 17.8439 148.658 18.0843C147.758 18.3248 146.876 18.6762 146.031 19.1325L145.914 19.1942V19.0647L146.173 5.69141H159.405V5.84555H146.327L146.075 18.9352C146.895 18.5036 147.745 18.1645 148.615 17.9364C149.527 17.6897 150.446 17.5664 151.352 17.5664C152.598 17.5664 153.726 17.8192 154.7 18.3248C155.681 18.8304 156.458 19.5703 157.012 20.5198C157.561 21.4754 157.845 22.5914 157.845 23.8369C157.845 24.9899 157.58 26.0503 157.049 26.9875C156.525 27.9309 155.785 28.6831 154.854 29.2195C153.911 29.7682 152.857 30.0395 151.71 30.0395Z" fill="#808080"/>
<path d="M144.627 27.4189L144.017 27.7211L144.775 27.6779L144.627 27.4189Z" fill="#808080"/>
<path d="M146.908 26.3955L146.304 26.6976L147.062 26.6606L146.908 26.3955Z" fill="#808080"/>
<path d="M146.18 30.1508C148.363 31.649 151.156 32.1361 153.746 31.6799C156.378 31.2668 158.518 29.3554 159.924 27.1543C159.06 28.9608 157.599 30.5701 155.762 31.4456C152.71 32.839 148.739 32.3396 146.18 30.1508Z" fill="#808080"/>
<path d="M147.246 27.5174C150.249 30.6619 154.922 30.0145 157.351 26.5371C155.434 30.5201 149.854 31.1798 147.246 27.5174Z" fill="#808080"/>
<path d="M146.662 18.2818L146.97 18.701C146.97 18.701 151.588 16.0991 155.565 19.0093C155.559 19.0093 152.451 15.871 146.662 18.2818Z" fill="#808080"/>
<path d="M149.134 15.3839L149.368 15.8463C149.368 15.8463 154.344 14.0151 157.803 17.5234C157.809 17.5234 155.244 13.9288 149.134 15.3839Z" fill="#808080"/>
<path d="M148.394 7.78114C148.394 7.78114 148.228 10.2166 148.48 14.5818L148.622 8.0031L159.011 7.89212C159.011 7.89212 155.281 7.47286 148.394 7.78114Z" fill="#808080"/>
<path d="M145.86 5.45107C145.86 5.45107 145.656 11.1851 145.965 16.2964L146.137 5.71619L158.869 5.58671C158.869 5.58671 154.301 5.0873 145.86 5.45107Z" fill="#808080"/>
</g>
<defs>
<clipPath id="clip0_401_7548">
<rect width="146.496" height="27.6406" fill="white" transform="translate(14.5569 5.17969)"/>
</clipPath>
</defs>
</svg>
