<svg width="168" height="39" viewBox="0 0 168 39" fill="none" xmlns="http://www.w3.org/2000/svg">
<rect x="0.5" y="0.5" width="167" height="37.0541" rx="18.527" stroke="#808080"/>
<path fill-rule="evenodd" clip-rule="evenodd" d="M36.863 18.5265L32.5439 25.9285C32.2011 26.5225 31.568 26.8815 30.8757 26.8815H22.2378C21.5454 26.8815 20.919 26.5225 20.5695 25.9285L18.4133 22.2275L16.2572 18.5265C15.9143 17.9326 15.9143 17.2146 16.2572 16.6206L18.4133 12.9196L20.5695 9.21861C20.9124 8.62463 21.5454 8.26562 22.2378 8.26562H30.8757C31.568 8.26562 32.1945 8.62463 32.5439 9.21861L36.863 16.6206C37.2124 17.2146 37.2124 17.9326 36.863 18.5265ZM36.3684 18.2459C36.6124 17.8281 36.6124 17.3256 36.3684 16.9078L32.0494 9.50581C31.8054 9.08806 31.3637 8.8335 30.8757 8.8335H22.2378C21.7498 8.8335 21.308 9.08806 21.0641 9.50581L18.9079 13.2068L16.7517 16.9078C16.5077 17.3256 16.5077 17.8281 16.7517 18.2459L18.9079 21.9468L21.0641 25.6478C21.308 26.0656 21.7498 26.3201 22.2378 26.3201H30.8757C31.3637 26.3201 31.8054 26.0656 32.0494 25.6478L36.3684 18.2459ZM18.5716 19.8516C18.5518 19.8907 18.5518 19.9103 18.5716 19.943L19.5343 21.5944L21.6509 25.217C21.796 25.4651 22.0531 25.6087 22.3367 25.6087H30.79C31.0801 25.6087 31.3307 25.4651 31.4758 25.217L33.5923 21.5944L35.709 17.9717C35.8541 17.7236 35.8541 17.4299 35.709 17.1884L35.0694 16.0984C35.0298 16.0331 34.9573 16.0266 34.9243 16.0919L32.056 21.0656L32.0099 21.1506C31.9901 21.1767 31.9636 21.1962 31.9307 21.1962H31.1526C31.1197 21.1962 31.0933 21.1832 31.0735 21.1506L30.2427 19.7079C30.2296 19.6818 30.1966 19.6623 30.1636 19.6623C30.1306 19.6623 30.1042 19.6753 30.0845 19.7079L29.2602 21.1506C29.2404 21.1832 29.2141 21.1962 29.1811 21.1962H28.0403C28.0074 21.1962 27.981 21.1832 27.9612 21.1506L24.4797 15.2629C24.4665 15.2368 24.4335 15.2172 24.4006 15.2172C24.3676 15.2172 24.3412 15.2368 24.3214 15.2629L23.5104 16.6858C23.4972 16.7119 23.4972 16.7446 23.5104 16.7707L25.9897 21.0461C26.0094 21.0722 26.0094 21.1048 25.9897 21.1374C25.9699 21.1636 25.9435 21.1832 25.9105 21.1832H24.8753C24.8423 21.1832 24.816 21.1701 24.7962 21.1374L21.3872 15.2498C21.374 15.2237 21.341 15.2041 21.308 15.2041C21.2751 15.2041 21.2487 15.2172 21.2289 15.2498L18.5716 19.8516ZM18.0441 19.0422C18.0837 19.1074 18.1628 19.1009 18.1957 19.0357L21.0047 14.1859C21.0245 14.1598 21.0509 14.1402 21.0839 14.1402H21.9345C21.9674 14.1402 21.9938 14.1532 22.0136 14.1859L22.9763 15.8503C22.9895 15.8765 23.0224 15.896 23.0554 15.896C23.0884 15.896 23.1148 15.883 23.1345 15.8503L24.0643 14.2251L24.0841 14.1859C24.0972 14.1532 24.1302 14.1402 24.1632 14.1402H25.0072C25.0402 14.1402 25.0665 14.1532 25.0863 14.1859L25.0995 14.212C26.3061 16.242 27.5062 18.272 28.713 20.3019C28.7261 20.328 28.7591 20.3477 28.7921 20.3477C28.825 20.3477 28.8514 20.3346 28.8712 20.3019L29.7086 18.8594C29.7218 18.8333 29.7218 18.8007 29.7086 18.7746L27.559 15.0605C27.5392 15.0344 27.5392 15.0018 27.559 14.9692L28.0338 14.1532C28.0536 14.1271 28.0799 14.1076 28.1129 14.1076H31.2582C31.2911 14.1076 31.3175 14.1206 31.3373 14.1532L31.4164 14.2903L32.3 15.8047C32.3197 15.8308 32.3197 15.8634 32.3 15.896L30.8164 18.4547C30.8031 18.4808 30.8031 18.5134 30.8164 18.5396L31.6735 20.0213C31.6868 20.0474 31.7198 20.067 31.7527 20.067C31.7856 20.067 31.812 20.0539 31.8318 20.0213L34.5682 15.3021C34.5881 15.2629 34.5881 15.2433 34.5682 15.2107L33.6056 13.5593L31.4889 9.93661C31.3438 9.68858 31.0867 9.54498 30.8031 9.54498H22.3301C22.04 9.54498 21.7894 9.68858 21.6443 9.93661L19.5343 13.5593L17.4177 17.1819C17.2726 17.4299 17.2726 17.7236 17.4177 17.9652L18.0441 19.0422ZM30.2624 17.6192C30.2757 17.6453 30.3087 17.6649 30.3416 17.6649C30.3746 17.6649 30.4009 17.6519 30.4207 17.6192L31.4362 15.8699C31.4493 15.8438 31.4493 15.8112 31.4362 15.7851L30.9021 14.8778C30.8889 14.8517 30.8559 14.8321 30.823 14.8321H28.8118C28.7789 14.8321 28.7525 14.8451 28.7327 14.8778C28.7195 14.9039 28.7195 14.9365 28.7327 14.9626L30.2624 17.6192Z" fill="#808080"/>
<path fill-rule="evenodd" clip-rule="evenodd" d="M151.467 26.5885C151.496 26.5608 151.509 26.5192 151.509 26.4776C151.509 26.4361 151.509 26.3945 151.509 26.3668C151.509 26.3114 151.481 26.2559 151.467 26.2005C151.452 26.1173 151.41 26.048 151.382 25.9649C151.338 25.854 151.281 25.7569 151.239 25.6461L150 22.8187C149.815 22.4029 149.615 21.9732 149.359 21.5851C149.174 21.294 148.96 20.9891 148.704 20.7396C148.491 20.5179 148.249 20.3377 147.993 20.1852C147.722 20.0328 147.451 19.8941 147.166 19.7694C147.123 19.7555 147.095 19.714 147.095 19.6585V19.6447C147.095 19.5892 147.123 19.5477 147.18 19.5338C147.408 19.4506 147.636 19.3536 147.85 19.2289C148.092 19.0902 148.291 18.9101 148.491 18.7299C148.732 18.4943 148.946 18.2171 149.131 17.9261C149.388 17.5518 149.587 17.1222 149.758 16.7064L150.84 14.2254C150.911 14.0452 150.983 13.8651 151.04 13.6849C151.068 13.5879 151.097 13.477 151.097 13.38C151.097 13.3384 151.082 13.2968 151.054 13.2691C150.997 13.2136 150.897 13.1859 150.826 13.1582C150.655 13.1166 150.485 13.0889 150.314 13.075C150.029 13.0473 149.729 13.0473 149.444 13.0473C149.131 13.0473 148.804 13.0473 148.491 13.075C148.32 13.0889 148.107 13.1028 147.936 13.1582C147.85 13.1859 147.75 13.2275 147.693 13.2829C147.636 13.3522 147.594 13.4215 147.565 13.5047L146.468 16.3044C146.327 16.6509 146.169 16.9974 145.985 17.3162C145.828 17.5657 145.643 17.8013 145.429 17.9954C145.229 18.1756 144.988 18.3003 144.731 18.3834C144.461 18.4666 144.176 18.5082 143.891 18.5082H143.136C143.065 18.5082 143.008 18.4527 143.008 18.3834V13.3384C143.008 13.2968 142.994 13.2691 142.965 13.2414C142.894 13.1859 142.78 13.1582 142.695 13.1305C142.524 13.0889 142.325 13.075 142.154 13.0612C141.884 13.0335 141.599 13.0335 141.314 13.0335C141.029 13.0335 140.744 13.0335 140.473 13.0612C140.288 13.075 140.089 13.0889 139.918 13.1305C139.833 13.1443 139.719 13.1859 139.648 13.2414C139.619 13.2691 139.605 13.2968 139.605 13.3384V18.3834C139.605 18.4527 139.548 18.5082 139.477 18.5082H138.75C138.465 18.5082 138.181 18.4805 137.91 18.3973C137.654 18.3141 137.426 18.1893 137.227 18.0231C136.999 17.829 136.828 17.5934 136.685 17.3439C136.501 17.0113 136.343 16.6648 136.216 16.3183L135.176 13.5186C135.148 13.4354 135.105 13.3661 135.048 13.2968C134.991 13.2275 134.877 13.1859 134.791 13.1721C134.607 13.1166 134.393 13.1028 134.208 13.0889C133.881 13.0612 133.553 13.0612 133.226 13.0612C132.941 13.0612 132.641 13.0612 132.356 13.0889C132.186 13.1028 132.001 13.1305 131.844 13.1721C131.787 13.1859 131.674 13.2275 131.63 13.2691C131.602 13.2968 131.588 13.3384 131.588 13.38C131.588 13.477 131.617 13.5879 131.645 13.6849C131.702 13.8651 131.773 14.0452 131.844 14.2254L132.884 16.7064C133.055 17.1222 133.268 17.5518 133.51 17.9261C133.71 18.2171 133.923 18.4943 134.179 18.7299C134.379 18.9239 134.607 19.1041 134.848 19.2428C135.062 19.3675 135.29 19.4645 135.532 19.5477C135.589 19.5616 135.618 19.6031 135.618 19.6585V19.6863C135.618 19.7417 135.589 19.7833 135.547 19.7972C135.262 19.9219 134.977 20.0604 134.706 20.213C134.436 20.3654 134.194 20.5594 133.966 20.7674C133.71 21.0169 133.482 21.3079 133.283 21.599C133.026 21.987 132.827 22.4029 132.641 22.8187L131.389 25.6461C131.303 25.8262 131.231 26.0203 131.175 26.2005C131.146 26.2836 131.118 26.3807 131.118 26.4776C131.118 26.5192 131.132 26.5608 131.175 26.5885C131.231 26.6302 131.345 26.6717 131.417 26.6856C131.588 26.7271 131.787 26.741 131.958 26.7549C132.242 26.7826 132.542 26.7826 132.841 26.7826C133.169 26.7826 133.51 26.7826 133.838 26.7549C134.037 26.741 134.236 26.7133 134.421 26.6717C134.507 26.6439 134.62 26.6024 134.692 26.547C134.749 26.4915 134.791 26.4222 134.82 26.3529L136.016 23.3176C136.159 22.9434 136.33 22.583 136.529 22.2365C136.685 21.9732 136.885 21.7237 137.127 21.5296C137.34 21.3495 137.583 21.2247 137.853 21.1416C138.153 21.0584 138.48 21.0307 138.793 21.0307H139.534C139.605 21.0307 139.662 21.0861 139.662 21.1554V26.45C139.662 26.4915 139.676 26.5331 139.719 26.5608C139.776 26.6163 139.904 26.6578 139.975 26.6717C140.161 26.7133 140.345 26.7271 140.53 26.741C140.815 26.7687 141.1 26.7687 141.371 26.7687C141.641 26.7687 141.926 26.7687 142.211 26.741C142.395 26.7271 142.581 26.7133 142.752 26.6717C142.837 26.6578 142.951 26.6163 143.008 26.5608C143.051 26.5331 143.065 26.4915 143.065 26.45V21.1693C143.065 21.1 143.122 21.0445 143.193 21.0445H143.934C144.233 21.0445 144.56 21.0723 144.859 21.1554C145.13 21.2386 145.358 21.3633 145.571 21.5435C145.814 21.7376 145.999 21.987 146.141 22.2503C146.34 22.583 146.498 22.9572 146.639 23.3314L147.85 26.3668C147.879 26.4361 147.921 26.5054 147.978 26.5608C148.05 26.6302 148.149 26.6717 148.249 26.6856C148.434 26.7271 148.647 26.7549 148.846 26.7687C149.174 26.7965 149.516 26.7965 149.843 26.7965C150.143 26.7965 150.442 26.7965 150.74 26.7687C150.911 26.7549 151.11 26.741 151.281 26.6994C151.296 26.6717 151.41 26.6439 151.467 26.5885ZM44.7805 26.6439C44.866 26.6163 44.9657 26.5747 45.0227 26.5054C45.0654 26.45 45.0796 26.3807 45.0796 26.3114V11.3564C45.0796 11.2178 45.2077 11.1901 45.2505 11.3148L50.1205 26.2559C50.149 26.339 50.1918 26.4083 50.263 26.4776C50.3484 26.547 50.4765 26.6024 50.5762 26.6439C50.7472 26.6994 50.9465 26.741 51.1316 26.7549C51.4022 26.7826 51.6869 26.7826 51.9718 26.7826C52.2566 26.7826 52.5413 26.7826 52.812 26.7687C52.997 26.7549 53.1822 26.7271 53.353 26.6856C53.467 26.6439 53.5809 26.6024 53.6663 26.5192C53.7375 26.45 53.7945 26.3529 53.823 26.2559L58.8925 11.3148C58.9351 11.1901 59.0206 11.2178 59.0206 11.3564V26.3114C59.0206 26.3807 59.049 26.45 59.0918 26.5054C59.1487 26.5747 59.2484 26.6163 59.3196 26.6439C59.4905 26.6994 59.6757 26.7271 59.8607 26.7549C60.1456 26.7965 60.4446 26.7965 60.7294 26.7965C61.0141 26.7965 61.3133 26.7826 61.6123 26.7549C61.7973 26.7271 61.9825 26.6994 62.1534 26.6439C62.2388 26.6163 62.3385 26.5608 62.3955 26.5054C62.4382 26.45 62.4524 26.3807 62.4524 26.3114V9.73479C62.4524 9.52689 62.424 9.31899 62.367 9.12495C62.31 8.97248 62.2388 8.82003 62.1107 8.69529C61.9967 8.57055 61.8543 8.48739 61.6977 8.43195C61.4983 8.36265 61.2705 8.33493 61.0569 8.33493H58.5933C58.2943 8.33493 57.9668 8.36265 57.6678 8.43195C57.4257 8.50125 57.1979 8.61213 57.0127 8.77845C56.7992 8.95863 56.6425 9.18039 56.5143 9.41601C56.3435 9.73479 56.2153 10.0674 56.1156 10.4139C56.1156 10.4139 56.1156 10.4139 56.1156 10.4278L52.2993 21.4881C52.2851 21.5296 52.2423 21.5712 52.1854 21.5712H52.1284C52.0714 21.5712 52.0287 21.5435 52.0144 21.4881L48.3406 10.4001C48.3406 10.4001 48.3406 10.4001 48.3406 10.3862C48.2409 10.0536 48.1127 9.70707 47.9419 9.40215C47.7994 9.15266 47.6285 8.94477 47.3865 8.77845C47.1444 8.61213 46.8738 8.50125 46.5891 8.44581C46.2188 8.36265 45.8343 8.33493 45.4641 8.33493H43.0433C42.673 8.33493 42.3312 8.43195 42.075 8.68143C41.7902 8.95863 41.719 9.3467 41.719 9.72092V26.2975C41.719 26.3668 41.7332 26.4361 41.7759 26.4915C41.8329 26.5608 41.9325 26.6024 42.0037 26.6302C42.1747 26.6856 42.374 26.7133 42.5449 26.741C42.8297 26.7826 43.1287 26.7826 43.4135 26.7826C43.6983 26.7826 43.9973 26.7826 44.2822 26.741C44.4103 26.7271 44.5955 26.6994 44.7805 26.6439ZM76.607 26.0203C76.664 25.9649 76.7067 25.9094 76.7352 25.8401C76.7779 25.7708 76.7922 25.6876 76.8063 25.6183C76.8348 25.4936 76.8348 25.3689 76.8491 25.2579C76.8633 25.0778 76.8633 24.8976 76.8633 24.7313C76.8633 24.5372 76.8633 24.3432 76.8491 24.1492C76.8348 24.0383 76.8206 23.9136 76.7779 23.8304C76.7494 23.7889 76.721 23.7334 76.6782 23.7057C76.6355 23.678 76.5643 23.678 76.5215 23.678C76.3507 23.678 76.1513 23.7472 75.9946 23.8026C75.7099 23.9136 75.3966 24.0106 75.0976 24.1076C74.6846 24.2462 74.2432 24.3294 73.816 24.4125C73.2463 24.5234 72.6625 24.5511 72.0929 24.5511C71.5375 24.5511 70.9537 24.4818 70.4268 24.3016C69.9854 24.1492 69.5867 23.9136 69.2591 23.567C68.9459 23.2344 68.7322 22.8325 68.6041 22.389C68.4617 21.9039 68.4047 21.391 68.4047 20.8782C68.4047 20.8089 68.4617 20.7535 68.5329 20.7535H76.4788C76.7637 20.7535 77.02 20.6842 77.2193 20.4763C77.4329 20.2406 77.4899 19.8803 77.4899 19.5753V19.0071C77.4899 18.1756 77.3902 17.3439 77.1482 16.54C76.9345 15.8193 76.5785 15.1541 76.0801 14.5996C75.5674 14.0175 74.9267 13.6017 74.2147 13.3107C73.346 12.9642 72.3919 12.8394 71.4522 12.8394C70.5123 12.8394 69.5724 12.978 68.7038 13.3384C67.9063 13.6572 67.2228 14.1284 66.6532 14.766C66.0552 15.4312 65.6422 16.2074 65.3574 17.0529C65.0298 18.0369 64.916 19.0626 64.916 20.1021C64.916 21.1416 65.0157 22.2088 65.3432 23.2067C65.5995 24.0106 66.0124 24.7591 66.6248 25.3689C67.2228 25.9649 67.9633 26.3807 68.7607 26.6439C69.7291 26.9628 70.7686 27.0736 71.7797 27.0736C72.3777 27.0736 72.9758 27.0321 73.5738 26.9489C74.0723 26.8796 74.5707 26.7826 75.0691 26.6578C75.4251 26.5608 75.7953 26.4638 76.1371 26.3252C76.2368 26.2282 76.5215 26.1034 76.607 26.0203ZM74.058 18.6468H68.5472C68.5187 18.6468 68.476 18.6329 68.4617 18.6052C68.4332 18.5775 68.4332 18.5497 68.4332 18.522C68.4475 18.0785 68.5187 17.6488 68.6469 17.2191C68.7607 16.8311 68.9459 16.4707 69.1879 16.152C69.4301 15.8332 69.7433 15.5976 70.0993 15.4174C70.498 15.2233 70.9395 15.1402 71.3809 15.1402C72.2353 15.1402 73.0185 15.3758 73.5312 16.055C74.0723 16.7618 74.2005 17.6627 74.1862 18.522C74.1862 18.5914 74.1292 18.6468 74.058 18.6468ZM83.3567 13.38C83.2856 13.4631 83.2286 13.574 83.2002 13.6849C83.1574 13.8235 83.1289 13.976 83.1147 14.1284C82.9723 15.3897 82.7872 16.6648 82.5593 17.9122C82.3885 18.827 82.1748 19.7417 81.8901 20.6287C81.6907 21.2801 81.4344 21.9315 81.1211 22.5414C80.8648 23.0265 80.5657 23.4839 80.2382 23.9274C80.2097 23.9552 80.1812 23.969 80.1385 23.969H79.4265C79.2983 23.969 79.0421 23.9828 78.9423 24.0799C78.8426 24.1769 78.8284 24.4541 78.8284 24.5789V29.4021C78.8284 29.4576 78.8426 29.513 78.8711 29.5546C78.9139 29.61 79.0136 29.6516 79.0705 29.6654C79.213 29.7209 79.3838 29.7486 79.5405 29.7625C79.7825 29.7902 80.053 29.7902 80.2952 29.7902C80.5372 29.7902 80.7936 29.7902 81.0356 29.7625C81.1923 29.7486 81.3489 29.7209 81.5056 29.6654C81.5626 29.6516 81.6764 29.5962 81.7049 29.5546C81.7334 29.513 81.7476 29.4576 81.7476 29.4021V26.8103C81.7476 26.741 81.8046 26.6856 81.8758 26.6856H91.7014C91.7727 26.6856 91.8296 26.741 91.8296 26.8103V29.4021C91.8296 29.4576 91.8438 29.4991 91.8865 29.5407C91.9292 29.5962 92.029 29.6378 92.1002 29.6654C92.2425 29.7209 92.4134 29.7486 92.5559 29.7625C92.7979 29.7902 93.0542 29.7902 93.3106 29.7902C93.5669 29.7902 93.8232 29.7902 94.0653 29.7625C94.222 29.7486 94.3928 29.7209 94.5352 29.6654C94.5922 29.6516 94.706 29.61 94.7345 29.5546C94.763 29.513 94.7773 29.4576 94.7773 29.4021V24.5789C94.7773 24.4403 94.763 24.1769 94.6492 24.0799C94.5352 23.9828 94.3216 23.9552 94.1792 23.9552H92.6982C92.6271 23.9552 92.5701 23.8997 92.5701 23.8304V14.1561C92.5701 13.8928 92.5274 13.574 92.3422 13.3661C92.1714 13.1721 91.915 13.1166 91.6587 13.1166H84.0118C83.8837 13.1166 83.7412 13.1305 83.6131 13.1859C83.5134 13.2414 83.428 13.2968 83.3567 13.38ZM89.0955 15.9025V23.8443C89.0955 23.9136 89.0385 23.969 88.9674 23.969H83.727C83.6843 23.969 83.6416 23.9413 83.6131 23.8997C83.5989 23.8582 83.5989 23.8165 83.6274 23.775C83.8837 23.4423 84.1115 23.0819 84.3251 22.7216C84.6099 22.2504 84.8235 21.7237 84.9944 21.2108C85.2507 20.4901 85.4358 19.7279 85.6067 18.9933C85.8345 17.9676 86.0054 16.9281 86.1478 15.8886C86.162 15.8332 86.2048 15.7777 86.276 15.7777H88.9674C89.0385 15.7777 89.0955 15.8332 89.0955 15.9025ZM112.777 8.39036C112.606 8.33492 112.435 8.30721 112.249 8.29335C111.965 8.26563 111.652 8.26562 111.367 8.26562C111.125 8.26562 110.868 8.26563 110.627 8.29335C110.469 8.30721 110.313 8.33492 110.171 8.39036C110.071 8.43194 109.971 8.47353 109.901 8.54283C109.829 8.61213 109.758 8.69529 109.701 8.77845L103.108 18.425C102.837 18.8131 102.567 19.2012 102.325 19.6031C102.111 19.9496 101.897 20.2961 101.698 20.6287C101.669 20.6703 101.641 20.6842 101.598 20.6842H101.57C101.541 20.6842 101.499 20.6703 101.484 20.6426C101.456 20.6149 101.456 20.5872 101.456 20.5594C101.47 20.2268 101.484 19.8941 101.499 19.5616C101.513 19.2428 101.513 18.9101 101.513 18.5914V8.72301C101.513 8.65371 101.499 8.59827 101.456 8.54283C101.413 8.47353 101.285 8.43195 101.214 8.40423C101.029 8.34879 100.843 8.32107 100.658 8.30721C100.359 8.27949 100.046 8.27949 99.747 8.27949C99.448 8.27949 99.1347 8.27949 98.8357 8.30721C98.6506 8.32107 98.4512 8.36265 98.2661 8.40423C98.1807 8.43195 98.0667 8.47353 97.9955 8.55669C97.9528 8.61213 97.9244 8.66757 97.9244 8.72301V26.3252C97.9244 26.3946 97.9385 26.4776 97.9812 26.5331C98.024 26.6024 98.1237 26.6439 98.1807 26.6717C98.3372 26.7271 98.5366 26.7549 98.7076 26.7687C99.0066 26.7965 99.3198 26.7965 99.6189 26.7965C99.861 26.7965 100.103 26.7965 100.345 26.7826C100.502 26.7687 100.658 26.7549 100.801 26.6994C100.9 26.6717 101 26.6163 101.086 26.547C101.171 26.4776 101.242 26.3807 101.313 26.2975L107.892 16.6509C108.034 16.4569 108.163 16.249 108.305 16.055C108.433 15.8609 108.562 15.653 108.689 15.459C108.803 15.2788 108.917 15.0847 109.031 14.9046C109.132 14.7521 109.217 14.5996 109.316 14.4333C109.345 14.3917 109.373 14.3779 109.416 14.3779H109.445C109.473 14.3779 109.516 14.3917 109.53 14.4195C109.559 14.4472 109.559 14.4749 109.559 14.5165C109.53 14.8353 109.516 15.154 109.516 15.4728C109.502 15.8332 109.502 16.2074 109.502 16.5678V26.3807C109.502 26.45 109.516 26.5054 109.559 26.5608C109.601 26.6302 109.73 26.6717 109.8 26.6994C109.971 26.7549 110.171 26.7826 110.356 26.7965C110.655 26.8241 110.968 26.8241 111.267 26.8241C111.567 26.8241 111.88 26.8241 112.179 26.7965C112.363 26.7826 112.563 26.7549 112.748 26.6994C112.834 26.6717 112.948 26.6163 113.005 26.547C113.047 26.4915 113.076 26.4361 113.076 26.3807V8.72301C113.076 8.65371 113.062 8.5844 113.019 8.52896C112.962 8.45966 112.862 8.41808 112.777 8.39036ZM128.483 13.1859C128.312 13.1305 128.127 13.1028 127.943 13.0889C127.658 13.0612 127.358 13.0612 127.073 13.0612C126.775 13.0612 126.475 13.0612 126.177 13.0889C125.992 13.1028 125.806 13.1305 125.635 13.1859C125.565 13.2136 125.451 13.2552 125.407 13.3245C125.365 13.38 125.35 13.4354 125.35 13.5047V18.3141C125.35 18.3834 125.293 18.4388 125.223 18.4388H119.954C119.883 18.4388 119.826 18.3834 119.826 18.3141V13.5047C119.826 13.4354 119.811 13.38 119.769 13.3245C119.712 13.2552 119.598 13.2136 119.526 13.1859C119.355 13.1305 119.171 13.1028 118.985 13.0889C118.7 13.0612 118.402 13.0612 118.102 13.0612C117.803 13.0612 117.505 13.0612 117.22 13.0889C117.049 13.1028 116.85 13.1443 116.692 13.1859C116.622 13.2136 116.508 13.2552 116.451 13.3245C116.408 13.38 116.394 13.4354 116.394 13.5047V26.339C116.394 26.4083 116.408 26.4638 116.451 26.5192C116.508 26.5885 116.622 26.6302 116.692 26.6578C116.863 26.7133 117.049 26.741 117.234 26.7549C117.518 26.7826 117.818 26.7826 118.117 26.7826C118.415 26.7826 118.715 26.7826 119 26.7549C119.171 26.741 119.37 26.6994 119.526 26.6578C119.598 26.6302 119.712 26.5885 119.769 26.5192C119.811 26.4638 119.826 26.4083 119.826 26.339V21.294C119.826 21.2247 119.883 21.1693 119.954 21.1693H125.223C125.293 21.1693 125.35 21.2247 125.35 21.294V26.339C125.35 26.4083 125.365 26.4638 125.407 26.5192C125.451 26.5885 125.565 26.6302 125.635 26.6578C125.806 26.7133 125.992 26.741 126.177 26.7549C126.475 26.7826 126.775 26.7826 127.073 26.7826C127.358 26.7826 127.658 26.7826 127.943 26.7549C128.127 26.741 128.312 26.7133 128.483 26.6578C128.555 26.6302 128.669 26.5885 128.711 26.5192C128.754 26.4638 128.768 26.4083 128.768 26.339V13.5047C128.768 13.4354 128.754 13.38 128.711 13.3245C128.669 13.2552 128.568 13.2136 128.483 13.1859Z" fill="#808080"/>
</svg>
