<svg width="72" height="63" viewBox="0 0 72 63" fill="none" xmlns="http://www.w3.org/2000/svg">
<path d="M52.3771 37.2435L56.973 39.2712C60.4769 40.8183 62.646 43.4974 62.646 46.2509C62.646 48.7894 60.8532 50.6396 59.7836 51.5206C57.188 53.5026 54.0006 54.5459 50.7395 54.4809H20.7295C27.7451 48.3676 35.9926 42.1875 43.2148 39.4267L45.1698 39.0272L34.7605 34.046C16.768 42.4983 0 63 0 63H50.7246C61.9672 63 71.1 55.5098 71.1 46.2509C71.1 39.8784 66.7621 34.3271 60.3737 31.4998L43.6722 24.0986C36.45 21.3083 27.7451 14.5954 20.7295 8.4597H50.7246C53.9869 8.41234 57.1694 9.47402 59.7541 11.472C60.8238 12.3528 62.6162 14.2105 62.6162 16.7492C62.6162 19.5024 60.4475 22.1817 56.9433 23.7286L54.9516 24.1875L64.1803 28.9391C68.8353 25.8749 71.0778 22.0337 71.0778 16.7492C71.1 7.49751 61.9672 0 50.7246 0H0C0 0 21.7844 23.4621 40.2345 31.6331L52.3771 37.2435Z" fill="#808080"/>
</svg>
