<svg width="89" height="79" viewBox="0 0 89 79" fill="none" xmlns="http://www.w3.org/2000/svg">
<path d="M65.5634 46.7021L71.3165 49.2448C75.7025 51.1848 78.4176 54.5443 78.4176 57.9971C78.4176 61.1803 76.1735 63.5004 74.8346 64.6052C71.5856 67.0906 67.5957 68.3988 63.5135 68.3173H25.9483C34.7301 60.6514 45.0541 52.9018 54.0945 49.4398L56.5416 48.9389L43.5118 42.6925C20.9895 53.2915 0 79 0 79H63.4949C77.568 79 89 69.6076 89 57.9971C89 50.0062 83.5701 43.0451 75.5732 39.4998L54.667 30.2189C45.6266 26.72 34.7301 18.3021 25.9483 10.6082H63.4949C67.5786 10.5488 71.5622 11.8801 74.7977 14.3856C76.1366 15.49 78.3804 17.8195 78.3804 21.0029C78.3804 24.4554 75.6656 27.8151 71.2792 29.7549L68.7861 30.3303L80.3382 36.2887C86.1651 32.4464 88.9722 27.6295 88.9722 21.0029C89 9.40164 77.568 0 63.4949 0H0C0 0 27.2688 29.4207 50.3639 39.6669L65.5634 46.7021Z" fill="#808080"/>
</svg>
