<svg width="26" height="24" viewBox="0 0 26 24" fill="none" xmlns="http://www.w3.org/2000/svg">
<path d="M18.7938 13.6141L20.4429 14.3553C21.7001 14.9208 22.4784 15.9002 22.4784 16.9067C22.4784 17.8346 21.8351 18.5109 21.4513 18.833C20.52 19.5575 19.3763 19.9389 18.2062 19.9151H7.43809C9.9554 17.6804 12.9148 15.4214 15.5062 14.4122L16.2077 14.2661L12.4726 12.4453C6.01665 15.535 0 23.0292 0 23.0292H18.2008C22.2349 23.0292 25.5119 20.2912 25.5119 16.9067C25.5119 14.5773 23.9554 12.548 21.6631 11.5145L15.6703 8.80909C13.0789 7.78912 9.9554 5.33523 7.43809 3.09238H18.2008C19.3714 3.07507 20.5133 3.46316 21.4408 4.19352C21.8246 4.51547 22.4677 5.19455 22.4677 6.12254C22.4677 7.12897 21.6896 8.10837 20.4322 8.67382L19.7175 8.84156L23.029 10.5785C24.6992 9.45841 25.5039 8.05426 25.5039 6.12254C25.5119 2.74066 22.2349 0 18.2008 0H0C0 0 7.81662 8.57641 14.4368 11.5633L18.7938 13.6141Z" fill="#6A78C1"/>
</svg>
