<svg width="39" height="35" viewBox="0 0 39 35" fill="none" xmlns="http://www.w3.org/2000/svg">
<path d="M28.73 20.3455L31.251 21.4532C33.173 22.2984 34.3628 23.7619 34.3628 25.2661C34.3628 26.6528 33.3794 27.6636 32.7927 28.1449C31.369 29.2276 29.6206 29.7976 27.8318 29.762H11.3706C15.2188 26.4224 19.7428 23.0464 23.7043 21.5382L24.7767 21.3199L19.067 18.5988C9.19766 23.2161 0 34.4159 0 34.4159H27.8236C33.9905 34.4159 39 30.3241 39 25.2661C39 21.7849 36.6206 18.7524 33.1164 17.2078L23.9552 13.1647C19.9937 11.6404 15.2188 7.97321 11.3706 4.6214H27.8236C29.6131 4.59552 31.3587 5.1755 32.7765 6.26698C33.3632 6.74811 34.3465 7.76297 34.3465 9.1498C34.3465 10.6539 33.1568 12.1175 31.2347 12.9625L30.1422 13.2132L35.2044 15.8089C37.7577 14.1351 38.9878 12.0366 38.9878 9.1498C39 4.09577 33.9905 0 27.8236 0H0C0 0 11.9493 12.817 22.0696 17.2807L28.73 20.3455Z" fill="#6A78C1"/>
</svg>
