<svg width="20" height="19" viewBox="0 0 20 19" fill="none" xmlns="http://www.w3.org/2000/svg">
<path d="M14.6228 10.8259L15.9059 11.4082C16.8842 11.8525 17.4897 12.6218 17.4897 13.4125C17.4897 14.1415 16.9892 14.6728 16.6906 14.9258C15.966 15.4949 15.0761 15.7945 14.1656 15.7758H5.78734C7.74598 14.0203 10.0486 12.2457 12.0649 11.4529L12.6107 11.3382L9.70457 9.90774C4.68136 12.3349 0 18.2222 0 18.2222H14.1615C17.3002 18.2222 19.85 16.0713 19.85 13.4125C19.85 11.5826 18.6389 9.98849 16.8553 9.1766L12.1926 7.05127C10.1763 6.25001 7.74598 4.32231 5.78734 2.56039H14.1615C15.0723 2.54679 15.9608 2.85166 16.6824 3.42541C16.981 3.67832 17.4814 4.21179 17.4814 4.94079C17.4814 5.73142 16.8759 6.5008 15.8976 6.94501L15.3416 7.07678L17.9181 8.44125C19.2177 7.56136 19.8438 6.45829 19.8438 4.94079C19.85 2.28409 17.3002 0.131104 14.1615 0.131104H0C0 0.131104 6.08186 6.86849 11.2328 9.21487L14.6228 10.8259Z" fill="white"/>
</svg>
