<svg width="43" height="44" viewBox="0 0 43 44" fill="none" xmlns="http://www.w3.org/2000/svg">
<circle cx="21.4909" cy="22.0314" r="21.1637" fill="#6A78C1"/>
<path d="M26.8129 23.4737L28.2398 24.1195C29.3276 24.6123 30.001 25.4657 30.001 26.3427C30.001 27.1513 29.4444 27.7407 29.1124 28.0213C28.3065 28.6526 27.317 28.9849 26.3045 28.9642H16.9875C19.1656 27.017 21.7262 25.0485 23.9684 24.1691L24.5753 24.0418L21.3436 22.4552C15.7576 25.1475 10.5518 31.6778 10.5518 31.6778H26.2999C29.7903 31.6778 32.6257 29.292 32.6257 26.3427C32.6257 24.3129 31.2789 22.5447 29.2956 21.6441L24.1104 19.2867C21.8682 18.3979 19.1656 16.2596 16.9875 14.3052H26.2999C27.3127 14.2902 28.3007 14.6283 29.1032 15.2647C29.4353 15.5453 29.9918 16.137 29.9918 16.9457C29.9918 17.8226 29.3185 18.6761 28.2306 19.1688L27.6122 19.315L30.4774 20.8285C31.9226 19.8525 32.6188 18.6289 32.6188 16.9457C32.6257 13.9988 29.7903 11.6106 26.2999 11.6106H10.5518C10.5518 11.6106 17.315 19.0839 23.0431 21.6866L26.8129 23.4737Z" fill="#E9E9E9"/>
</svg>
