<svg width="43" height="43" viewBox="0 0 43 43" fill="none" xmlns="http://www.w3.org/2000/svg">
<circle cx="21.4899" cy="21.1674" r="21.1637" fill="#EA7A92"/>
<path fill-rule="evenodd" clip-rule="evenodd" d="M21.7281 12.1054C20.1144 12.1054 18.5999 12.5153 17.2795 13.2357L16.178 11.2169C17.8278 10.3168 19.72 9.80566 21.7281 9.80566C28.1364 9.80566 33.3313 15.0006 33.3313 21.4088C33.3313 27.817 28.1364 33.0119 21.7281 33.0119C15.3199 33.0119 10.125 27.817 10.125 21.4088H12.4247C12.4247 26.5469 16.59 30.7122 21.7281 30.7122C26.8663 30.7122 31.0315 26.5469 31.0315 21.4088C31.0315 16.2707 26.8663 12.1054 21.7281 12.1054Z" fill="#E9E9E9"/>
<path fill-rule="evenodd" clip-rule="evenodd" d="M16.7215 18.768C15.2626 21.2948 16.1284 24.5258 18.6552 25.9846L17.5053 27.9763C13.8786 25.8824 12.636 21.2449 14.7299 17.6182C16.8238 13.9915 21.4612 12.7488 25.0879 14.8427L23.9381 16.8344C21.4113 15.3755 18.1803 16.2413 16.7215 18.768Z" fill="#E9E9E9"/>
</svg>
