<svg width="43" height="43" viewBox="0 0 43 43" fill="none" xmlns="http://www.w3.org/2000/svg">
<circle cx="21.4909" cy="21.5204" r="21.1637" fill="#90882B"/>
<path fill-rule="evenodd" clip-rule="evenodd" d="M15.8405 17.1768C13.4512 17.1768 11.5142 19.1137 11.5142 21.5031V22.1876H9.21582V21.5031C9.21582 17.8444 12.1818 14.8784 15.8405 14.8784H16.0257C19.5822 14.8784 22.4652 17.7615 22.4652 21.318V21.5031C22.4652 23.8925 24.4022 25.8295 26.7916 25.8295C29.1809 25.8295 31.1179 23.8925 31.1179 21.5031V20.8187H33.4163V21.5031C33.4163 25.1618 30.4503 28.1278 26.7916 28.1278C23.1328 28.1278 20.1669 25.1618 20.1669 21.5031V21.318C20.1669 19.0308 18.3128 17.1768 16.0257 17.1768H15.8405Z" fill="#E9E9E9"/>
<path fill-rule="evenodd" clip-rule="evenodd" d="M10.2116 23.4934V22.9957H12.51V23.4934C12.51 24.7832 13.5555 25.8287 14.8452 25.8287C16.1349 25.8287 17.1804 24.7832 17.1804 23.4934V22.9957H19.4788V23.4934C19.4788 26.0525 17.4043 28.1271 14.8452 28.1271C12.2861 28.1271 10.2116 26.0525 10.2116 23.4934Z" fill="#E9E9E9"/>
<path fill-rule="evenodd" clip-rule="evenodd" d="M23.152 19.5106V20.0083H25.4503V19.5106C25.4503 18.2208 26.4959 17.1753 27.7856 17.1753C29.0753 17.1753 30.1208 18.2208 30.1208 19.5106V20.0083H32.4192V19.5106C32.4192 16.9515 30.3447 14.877 27.7856 14.877C25.2265 14.877 23.152 16.9515 23.152 19.5106Z" fill="#E9E9E9"/>
</svg>
