<svg width="802" height="615" viewBox="0 0 802 615" fill="none" xmlns="http://www.w3.org/2000/svg">
<path opacity="0.55" d="M273.584 614.31C261.624 614.31 250.931 611.822 241.503 606.847C232.076 601.871 224.089 594.975 217.542 586.158C211.082 577.342 206.106 567.172 202.614 555.649C199.21 544.127 197.508 531.818 197.508 518.724C197.508 505.543 199.21 493.191 202.614 481.669C206.106 470.146 211.082 460.02 217.542 451.291C224.089 442.474 232.076 435.578 241.503 430.602C250.931 425.627 261.624 423.139 273.584 423.139C285.543 423.139 296.192 425.627 305.533 430.602C314.96 435.578 322.948 442.474 329.495 451.291C336.042 460.02 341.017 470.146 344.422 481.669C347.913 493.191 349.659 505.543 349.659 518.724C349.659 531.818 347.913 544.127 344.422 555.649C341.017 567.172 336.042 577.342 329.495 586.158C322.948 594.975 314.96 601.871 305.533 606.847C296.192 611.822 285.543 614.31 273.584 614.31ZM273.584 584.587C280.131 584.587 286.023 583.103 291.26 580.135C296.585 577.167 301.124 572.846 304.878 567.172C308.719 561.498 311.643 554.602 313.651 546.484C315.746 538.365 316.794 529.112 316.794 518.724C316.794 504.845 315.004 493.017 311.425 483.24C307.846 473.376 302.783 465.869 296.236 460.718C289.776 455.481 282.226 452.862 273.584 452.862C267.124 452.862 261.232 454.346 255.907 457.314C250.669 460.282 246.13 464.603 242.289 470.277C238.448 475.864 235.48 482.76 233.385 490.965C231.377 499.083 230.374 508.337 230.374 518.724C230.374 532.517 232.163 544.345 235.742 554.209C239.408 563.986 244.471 571.493 250.931 576.73C257.391 581.968 264.942 584.587 273.584 584.587Z" fill="url(#paint0_linear_401_1433)"/>
<path opacity="0.55" d="M150.859 614.31C144.749 614.31 139.468 612.39 135.016 608.549C130.564 604.621 128.338 599.427 128.338 592.967C128.338 588.602 129.342 584.805 131.349 581.575C133.445 578.345 136.194 575.858 139.599 574.112C143.003 572.366 146.757 571.493 150.859 571.493C157.057 571.493 162.338 573.457 166.703 577.385C171.155 581.226 173.381 586.42 173.381 592.967C173.381 597.244 172.334 600.998 170.238 604.228C168.231 607.458 165.525 609.945 162.12 611.691C158.716 613.437 154.962 614.31 150.859 614.31Z" fill="url(#paint1_linear_401_1433)"/>
<path opacity="0.55" d="M55.043 610.382V463.337L9.607 479.835L0.703125 453.386L84.1115 423.139H86.4684V610.382H55.043Z" fill="url(#paint2_linear_401_1433)"/>
<path opacity="0.55" d="M655.137 399.382V216.067H777.041V245.921H689.181V290.309H764.34V318.2H689.181V369.266H777.958V399.382H655.137Z" fill="url(#paint3_linear_401_1433)"/>
<path opacity="0.55" d="M511.154 399.382V216.067H545.198V368.218H622.977V399.382H511.154Z" fill="url(#paint4_linear_401_1433)"/>
<path opacity="0.55" d="M343.133 399.382V216.067H408.733C426.628 216.067 441.032 219.995 451.943 227.851C462.942 235.621 468.442 247.143 468.442 262.419C468.442 268.093 467.132 273.462 464.514 278.525C461.895 283.588 458.49 288.04 454.3 291.881C450.11 295.634 445.658 298.515 440.944 300.523C450.896 303.665 459.101 309.296 465.561 317.414C472.021 325.532 475.251 335.44 475.251 347.137C475.251 357.438 472.632 366.516 467.394 374.373C462.244 382.229 454.868 388.383 445.265 392.835C435.663 397.2 424.315 399.382 411.221 399.382H343.133ZM377.177 373.325H405.853C417.288 373.325 425.843 371.055 431.517 366.516C437.191 361.89 440.028 354.994 440.028 345.828C440.028 336.837 437.191 329.94 431.517 325.139C425.93 320.338 417.419 317.938 405.984 317.938H377.177V373.325ZM377.177 293.321H403.758C410.13 293.321 415.673 292.274 420.387 290.179C425.101 288.084 428.767 285.072 431.386 281.144C434.005 277.128 435.314 272.371 435.314 266.871C435.314 258.84 432.521 252.73 426.934 248.54C421.435 244.262 413.535 242.124 403.234 242.124H377.177V293.321Z" fill="url(#paint5_linear_401_1433)"/>
<path opacity="0.55" d="M137.793 399.382L208.107 216.067H246.08L317.835 399.382H279.469L263.888 357.874H190.169L175.111 399.382H137.793ZM198.549 328.937H255.246L226.439 254.563L198.549 328.937Z" fill="url(#paint6_linear_401_1433)"/>
<path opacity="0.55" d="M56.0895 399.382V247.23H5.41602V216.067H140.938V247.23H90.2647V399.382H56.0895Z" fill="url(#paint7_linear_401_1433)"/>
<path opacity="0.55" d="M729.104 128.197V98.9978H801.906V128.197H729.104Z" fill="url(#paint8_linear_401_1433)"/>
<path opacity="0.55" d="M552.328 187.382V4.06689H586.372V92.7128L657.603 4.06689H699.766L632.463 87.4753L709.455 187.382H665.591L610.072 113.401L586.372 141.16V187.382H552.328Z" fill="url(#paint9_linear_401_1433)"/>
<path opacity="0.55" d="M453.406 191.31C434.376 191.31 417.703 187.382 403.387 179.526C389.071 171.669 377.941 160.627 369.997 146.398C362.054 132.082 358.082 115.278 358.082 95.9863C358.082 81.9321 360.395 69.1001 365.022 57.4901C369.736 45.7929 376.37 35.6669 384.925 27.1122C393.567 18.4702 403.693 11.8359 415.303 7.2094C427 2.49558 439.832 0.138672 453.799 0.138672C468.202 0.138672 480.51 1.97183 490.724 5.63813C500.937 9.21713 510.015 14.3238 517.959 20.958L500.544 48.8481C494.957 43.5232 488.41 39.5951 480.903 37.0636C473.483 34.4448 465.234 33.1354 456.156 33.1354C446.466 33.1354 437.78 34.5757 430.099 37.4564C422.417 40.337 415.87 44.5271 410.458 50.0266C405.046 55.4387 400.899 61.9857 398.019 69.6675C395.138 77.3492 393.698 85.9912 393.698 95.5934C393.698 108.775 396.273 120.035 401.423 129.376C406.573 138.629 413.906 145.743 423.421 150.719C432.936 155.695 444.24 158.182 457.334 158.182C466.151 158.182 474.749 156.829 483.129 154.123C491.596 151.417 499.584 147.096 507.091 141.16L522.804 169.836C514.074 176.645 503.948 181.926 492.426 185.68C480.99 189.433 467.984 191.31 453.406 191.31Z" fill="url(#paint10_linear_401_1433)"/>
<path opacity="0.55" d="M169.248 187.382L239.562 4.06689H277.535L349.29 187.382H310.924L295.343 145.874H221.624L206.566 187.382H169.248ZM230.004 116.937H286.701L257.894 42.5631L230.004 116.937Z" fill="url(#paint11_linear_401_1433)"/>
<path opacity="0.55" d="M22.1777 187.382V4.06689H87.7783C105.673 4.06689 120.077 7.99508 130.988 15.8514C141.987 23.6205 147.487 35.1432 147.487 50.4194C147.487 56.0935 146.177 61.462 143.559 66.525C140.94 71.5879 137.535 76.0399 133.345 79.8808C129.155 83.6344 124.703 86.515 119.989 88.5228C129.941 91.6653 138.146 97.2957 144.606 105.414C151.066 113.532 154.296 123.44 154.296 135.137C154.296 145.438 151.677 154.516 146.439 162.373C141.289 170.229 133.913 176.383 124.31 180.835C114.708 185.2 103.36 187.382 90.2662 187.382H22.1777ZM56.222 161.325H84.8977C96.333 161.325 104.888 159.055 110.562 154.516C116.236 149.89 119.073 142.994 119.073 133.828C119.073 124.837 116.236 117.94 110.562 113.139C104.975 108.338 96.464 105.938 85.0286 105.938H56.222V161.325ZM56.222 81.3211H82.8027C89.175 81.3211 94.7181 80.2736 99.4319 78.1786C104.146 76.0835 107.812 73.0719 110.431 69.1438C113.05 65.1283 114.359 60.3708 114.359 54.8714C114.359 46.8404 111.566 40.7299 105.979 36.5399C100.479 32.2625 92.5795 30.1238 82.2789 30.1238H56.222V81.3211Z" fill="url(#paint12_linear_401_1433)"/>
<defs>
<linearGradient id="paint0_linear_401_1433" x1="544.502" y1="625.382" x2="-123.389" y2="244.119" gradientUnits="userSpaceOnUse">
<stop offset="0.705427" stop-color="white"/>
<stop offset="1" stop-color="#E9E9E9"/>
</linearGradient>
<linearGradient id="paint1_linear_401_1433" x1="544.5" y1="625.382" x2="-123.391" y2="244.119" gradientUnits="userSpaceOnUse">
<stop offset="0.705427" stop-color="white"/>
<stop offset="1" stop-color="#E9E9E9"/>
</linearGradient>
<linearGradient id="paint2_linear_401_1433" x1="544.501" y1="625.382" x2="-123.39" y2="244.119" gradientUnits="userSpaceOnUse">
<stop offset="0.705427" stop-color="white"/>
<stop offset="1" stop-color="#E9E9E9"/>
</linearGradient>
<linearGradient id="paint3_linear_401_1433" x1="544.502" y1="625.382" x2="-123.389" y2="244.119" gradientUnits="userSpaceOnUse">
<stop offset="0.705427" stop-color="white"/>
<stop offset="1" stop-color="#E9E9E9"/>
</linearGradient>
<linearGradient id="paint4_linear_401_1433" x1="544.501" y1="625.382" x2="-123.39" y2="244.119" gradientUnits="userSpaceOnUse">
<stop offset="0.705427" stop-color="white"/>
<stop offset="1" stop-color="#E9E9E9"/>
</linearGradient>
<linearGradient id="paint5_linear_401_1433" x1="544.502" y1="625.382" x2="-123.389" y2="244.119" gradientUnits="userSpaceOnUse">
<stop offset="0.705427" stop-color="white"/>
<stop offset="1" stop-color="#E9E9E9"/>
</linearGradient>
<linearGradient id="paint6_linear_401_1433" x1="544.501" y1="625.382" x2="-123.39" y2="244.119" gradientUnits="userSpaceOnUse">
<stop offset="0.705427" stop-color="white"/>
<stop offset="1" stop-color="#E9E9E9"/>
</linearGradient>
<linearGradient id="paint7_linear_401_1433" x1="544.5" y1="625.382" x2="-123.391" y2="244.119" gradientUnits="userSpaceOnUse">
<stop offset="0.705427" stop-color="white"/>
<stop offset="1" stop-color="#E9E9E9"/>
</linearGradient>
<linearGradient id="paint8_linear_401_1433" x1="544.5" y1="625.382" x2="-123.391" y2="244.119" gradientUnits="userSpaceOnUse">
<stop offset="0.705427" stop-color="white"/>
<stop offset="1" stop-color="#E9E9E9"/>
</linearGradient>
<linearGradient id="paint9_linear_401_1433" x1="544.501" y1="625.382" x2="-123.39" y2="244.119" gradientUnits="userSpaceOnUse">
<stop offset="0.705427" stop-color="white"/>
<stop offset="1" stop-color="#E9E9E9"/>
</linearGradient>
<linearGradient id="paint10_linear_401_1433" x1="544.501" y1="625.382" x2="-123.39" y2="244.119" gradientUnits="userSpaceOnUse">
<stop offset="0.705427" stop-color="white"/>
<stop offset="1" stop-color="#E9E9E9"/>
</linearGradient>
<linearGradient id="paint11_linear_401_1433" x1="544.5" y1="625.382" x2="-123.391" y2="244.119" gradientUnits="userSpaceOnUse">
<stop offset="0.705427" stop-color="white"/>
<stop offset="1" stop-color="#E9E9E9"/>
</linearGradient>
<linearGradient id="paint12_linear_401_1433" x1="544.501" y1="625.382" x2="-123.39" y2="244.119" gradientUnits="userSpaceOnUse">
<stop offset="0.705427" stop-color="white"/>
<stop offset="1" stop-color="#E9E9E9"/>
</linearGradient>
</defs>
</svg>
