<svg width="375" height="288" viewBox="0 0 375 288" fill="none" xmlns="http://www.w3.org/2000/svg">
<path opacity="0.55" d="M127.72 287.459C122.123 287.459 117.118 286.295 112.705 283.966C108.293 281.637 104.554 278.409 101.49 274.283C98.4665 270.156 96.1377 265.396 94.5034 260.003C92.91 254.61 92.1133 248.849 92.1133 242.721C92.1133 236.551 92.91 230.77 94.5034 225.377C96.1377 219.984 98.4665 215.244 101.49 211.159C104.554 207.032 108.293 203.805 112.705 201.476C117.118 199.147 122.123 197.982 127.72 197.982C133.317 197.982 138.302 199.147 142.674 201.476C147.086 203.805 150.825 207.032 153.889 211.159C156.953 215.244 159.282 219.984 160.875 225.377C162.51 230.77 163.327 236.551 163.327 242.721C163.327 248.849 162.51 254.61 160.875 260.003C159.282 265.396 156.953 270.156 153.889 274.283C150.825 278.409 147.086 281.637 142.674 283.966C138.302 286.295 133.317 287.459 127.72 287.459ZM127.72 273.547C130.784 273.547 133.542 272.853 135.994 271.464C138.486 270.074 140.61 268.052 142.367 265.396C144.165 262.741 145.534 259.513 146.473 255.713C147.454 251.914 147.944 247.583 147.944 242.721C147.944 236.224 147.107 230.688 145.432 226.112C143.756 221.496 141.387 217.982 138.322 215.571C135.299 213.12 131.765 211.894 127.72 211.894C124.697 211.894 121.939 212.589 119.447 213.978C116.995 215.367 114.871 217.389 113.073 220.045C111.275 222.66 109.886 225.888 108.905 229.728C107.966 233.528 107.496 237.859 107.496 242.721C107.496 249.176 108.333 254.712 110.009 259.329C111.725 263.905 114.094 267.419 117.118 269.87C120.141 272.322 123.675 273.547 127.72 273.547Z" fill="url(#paint0_linear_401_3138)"/>
<path opacity="0.55" d="M70.2833 287.459C67.4233 287.459 64.9514 286.56 62.8677 284.763C60.784 282.924 59.7422 280.493 59.7422 277.47C59.7422 275.427 60.212 273.65 61.1517 272.138C62.1323 270.626 63.4193 269.462 65.0127 268.645C66.6061 267.828 68.363 267.419 70.2833 267.419C73.1841 267.419 75.6559 268.338 77.6988 270.177C79.7825 271.974 80.8244 274.405 80.8244 277.47C80.8244 279.472 80.3341 281.229 79.3535 282.74C78.4138 284.252 77.1472 285.416 75.5538 286.234C73.9604 287.051 72.2035 287.459 70.2833 287.459Z" fill="url(#paint1_linear_401_3138)"/>
<path opacity="0.55" d="M25.4334 285.62V216.797L4.1674 224.519L0 212.139L39.0388 197.982H40.1419V285.62H25.4334Z" fill="url(#paint2_linear_401_3138)"/>
<path opacity="0.55" d="M306.305 186.863V101.064H363.361V115.037H322.239V135.813H357.417V148.867H322.239V172.768H363.79V186.863H306.305Z" fill="url(#paint3_linear_401_3138)"/>
<path opacity="0.55" d="M238.914 186.863V101.064H254.848V172.278H291.252V186.863H238.914Z" fill="url(#paint4_linear_401_3138)"/>
<path opacity="0.55" d="M160.273 186.863V101.064H190.977C199.353 101.064 206.094 102.903 211.202 106.58C216.35 110.216 218.924 115.609 218.924 122.759C218.924 125.415 218.311 127.927 217.085 130.297C215.859 132.667 214.266 134.75 212.305 136.548C210.344 138.305 208.26 139.653 206.054 140.593C210.711 142.064 214.552 144.699 217.575 148.499C220.599 152.299 222.11 156.936 222.11 162.411C222.11 167.232 220.885 171.481 218.433 175.158C216.023 178.835 212.57 181.715 208.076 183.799C203.582 185.842 198.27 186.863 192.142 186.863H160.273ZM176.208 174.668H189.629C194.981 174.668 198.985 173.605 201.641 171.481C204.297 169.315 205.625 166.088 205.625 161.798C205.625 157.589 204.297 154.362 201.641 152.115C199.026 149.868 195.043 148.744 189.69 148.744H176.208V174.668ZM176.208 137.222H188.649C191.631 137.222 194.226 136.732 196.432 135.751C198.638 134.771 200.354 133.361 201.58 131.523C202.805 129.643 203.418 127.417 203.418 124.843C203.418 121.084 202.111 118.224 199.496 116.263C196.922 114.261 193.225 113.26 188.403 113.26H176.208V137.222Z" fill="url(#paint5_linear_401_3138)"/>
<path opacity="0.55" d="M64.1602 186.863L97.0704 101.064H114.843L148.428 186.863H130.471L123.178 167.436H88.6743L81.6265 186.863H64.1602ZM92.5966 153.892H119.133L105.65 119.082L92.5966 153.892Z" fill="url(#paint6_linear_401_3138)"/>
<path opacity="0.55" d="M25.9245 186.863V115.65H2.20703V101.064H65.6374V115.65H41.9199V186.863H25.9245Z" fill="url(#paint7_linear_401_3138)"/>
<path opacity="0.55" d="M340.926 59.9369V46.2703H375V59.9369H340.926Z" fill="url(#paint8_linear_401_3138)"/>
<path opacity="0.55" d="M258.18 87.6381V1.83862H274.114V43.3288L307.453 1.83862H327.187L295.686 40.8774L331.722 87.6381H311.192L285.207 53.0119L274.114 66.0044V87.6381H258.18Z" fill="url(#paint9_linear_401_3138)"/>
<path opacity="0.55" d="M211.885 89.4766C202.978 89.4766 195.175 87.6381 188.474 83.9609C181.774 80.2838 176.564 75.1154 172.846 68.4557C169.129 61.7552 167.27 53.8903 167.27 44.8609C167.27 38.2829 168.352 32.277 170.518 26.843C172.724 21.3682 175.829 16.6288 179.833 12.6248C183.878 8.57995 188.617 5.47482 194.051 3.30941C199.526 1.10314 205.532 0 212.069 0C218.811 0 224.571 0.857996 229.352 2.57399C234.132 4.24912 238.381 6.63925 242.099 9.74437L233.948 22.7981C231.333 20.3059 228.269 18.4673 224.755 17.2825C221.282 16.0568 217.421 15.4439 213.172 15.4439C208.637 15.4439 204.572 16.118 200.976 17.4663C197.381 18.8146 194.317 20.7757 191.784 23.3497C189.251 25.8828 187.31 28.9471 185.962 32.5425C184.613 36.1379 183.939 40.1828 183.939 44.677C183.939 50.8464 185.144 56.117 187.555 60.4886C189.966 64.8195 193.398 68.1493 197.851 70.4782C202.304 72.807 207.595 73.9714 213.724 73.9714C217.85 73.9714 221.875 73.3381 225.797 72.0716C229.76 70.805 233.499 68.7826 237.012 66.0043L244.366 79.4258C240.281 82.6127 235.541 85.0845 230.148 86.8413C224.796 88.5982 218.708 89.4766 211.885 89.4766Z" fill="url(#paint10_linear_401_3138)"/>
<path opacity="0.55" d="M78.8906 87.6381L111.801 1.83862H129.574L163.158 87.6381H145.201L137.908 68.2107H103.405L96.357 87.6381H78.8906ZM107.327 54.6666H133.864L120.381 19.8565L107.327 54.6666Z" fill="url(#paint11_linear_401_3138)"/>
<path opacity="0.55" d="M10.0508 87.6381V1.83862H40.7547C49.1304 1.83862 55.8718 3.67718 60.9789 7.35431C66.1269 10.9906 68.7009 16.3837 68.7009 23.5336C68.7009 26.1893 68.088 28.702 66.8623 31.0717C65.6366 33.4414 64.0432 35.5251 62.082 37.3228C60.1209 39.0797 58.0372 40.428 55.8309 41.3677C60.4886 42.8385 64.3292 45.4738 67.3526 49.2735C70.376 53.0732 71.8877 57.7104 71.8877 63.1853C71.8877 68.0064 70.662 72.2555 68.2106 75.9326C65.8 79.6097 62.3476 82.4902 57.8534 84.5739C53.3591 86.6167 48.0477 87.6381 41.9192 87.6381H10.0508ZM25.985 75.4423H39.4065C44.7587 75.4423 48.7627 74.3801 51.4184 72.2555C54.0741 70.0901 55.4019 66.8624 55.4019 62.5724C55.4019 58.3642 54.0741 55.1365 51.4184 52.8893C48.8036 50.6422 44.82 49.5186 39.4677 49.5186H25.985V75.4423ZM25.985 37.997H38.4259C41.4085 37.997 44.0029 37.5067 46.2091 36.5261C48.4154 35.5456 50.1314 34.136 51.3571 32.2974C52.5828 30.418 53.1957 28.1913 53.1957 25.6173C53.1957 21.8585 51.8882 18.9985 49.2734 17.0374C46.6994 15.0354 43.0019 14.0344 38.1808 14.0344H25.985V37.997Z" fill="url(#paint12_linear_401_3138)"/>
<defs>
<linearGradient id="paint0_linear_401_3138" x1="254.522" y1="292.641" x2="-58.0807" y2="114.193" gradientUnits="userSpaceOnUse">
<stop offset="0.705427" stop-color="white"/>
<stop offset="1" stop-color="#E9E9E9"/>
</linearGradient>
<linearGradient id="paint1_linear_401_3138" x1="254.525" y1="292.641" x2="-58.0778" y2="114.194" gradientUnits="userSpaceOnUse">
<stop offset="0.705427" stop-color="white"/>
<stop offset="1" stop-color="#E9E9E9"/>
</linearGradient>
<linearGradient id="paint2_linear_401_3138" x1="254.521" y1="292.641" x2="-58.0811" y2="114.193" gradientUnits="userSpaceOnUse">
<stop offset="0.705427" stop-color="white"/>
<stop offset="1" stop-color="#E9E9E9"/>
</linearGradient>
<linearGradient id="paint3_linear_401_3138" x1="254.523" y1="292.641" x2="-58.0797" y2="114.194" gradientUnits="userSpaceOnUse">
<stop offset="0.705427" stop-color="white"/>
<stop offset="1" stop-color="#E9E9E9"/>
</linearGradient>
<linearGradient id="paint4_linear_401_3138" x1="254.522" y1="292.641" x2="-58.0804" y2="114.194" gradientUnits="userSpaceOnUse">
<stop offset="0.705427" stop-color="white"/>
<stop offset="1" stop-color="#E9E9E9"/>
</linearGradient>
<linearGradient id="paint5_linear_401_3138" x1="254.523" y1="292.641" x2="-58.0794" y2="114.194" gradientUnits="userSpaceOnUse">
<stop offset="0.705427" stop-color="white"/>
<stop offset="1" stop-color="#E9E9E9"/>
</linearGradient>
<linearGradient id="paint6_linear_401_3138" x1="254.517" y1="292.641" x2="-58.0849" y2="114.194" gradientUnits="userSpaceOnUse">
<stop offset="0.705427" stop-color="white"/>
<stop offset="1" stop-color="#E9E9E9"/>
</linearGradient>
<linearGradient id="paint7_linear_401_3138" x1="254.522" y1="292.641" x2="-58.0804" y2="114.194" gradientUnits="userSpaceOnUse">
<stop offset="0.705427" stop-color="white"/>
<stop offset="1" stop-color="#E9E9E9"/>
</linearGradient>
<linearGradient id="paint8_linear_401_3138" x1="254.523" y1="292.641" x2="-58.079" y2="114.193" gradientUnits="userSpaceOnUse">
<stop offset="0.705427" stop-color="white"/>
<stop offset="1" stop-color="#E9E9E9"/>
</linearGradient>
<linearGradient id="paint9_linear_401_3138" x1="254.516" y1="292.641" x2="-58.0861" y2="114.194" gradientUnits="userSpaceOnUse">
<stop offset="0.705427" stop-color="white"/>
<stop offset="1" stop-color="#E9E9E9"/>
</linearGradient>
<linearGradient id="paint10_linear_401_3138" x1="254.522" y1="292.641" x2="-58.0804" y2="114.194" gradientUnits="userSpaceOnUse">
<stop offset="0.705427" stop-color="white"/>
<stop offset="1" stop-color="#E9E9E9"/>
</linearGradient>
<linearGradient id="paint11_linear_401_3138" x1="254.525" y1="292.641" x2="-58.0772" y2="114.194" gradientUnits="userSpaceOnUse">
<stop offset="0.705427" stop-color="white"/>
<stop offset="1" stop-color="#E9E9E9"/>
</linearGradient>
<linearGradient id="paint12_linear_401_3138" x1="254.521" y1="292.641" x2="-58.0812" y2="114.194" gradientUnits="userSpaceOnUse">
<stop offset="0.705427" stop-color="white"/>
<stop offset="1" stop-color="#E9E9E9"/>
</linearGradient>
</defs>
</svg>
