<svg width="375" height="369" viewBox="0 0 375 369" fill="none" xmlns="http://www.w3.org/2000/svg">
<path opacity="0.55" d="M128.258 368.388V257.727H148.098L192.204 329.973L184.142 330.052L226.43 257.727H246.033V368.388H226.035L226.351 284.602L230.145 285.946L194.417 345.544H179.952L143.355 285.946L146.754 284.602L147.07 368.388H128.258Z" fill="url(#paint0_linear_401_3117)"/>
<path opacity="0.55" d="M4.30469 368.388L46.751 257.727H69.6736L112.989 368.388H89.8297L80.4235 343.331H35.9221L26.8321 368.388H4.30469ZM40.9808 325.863H75.2066L57.8171 280.966L40.9808 325.863Z" fill="url(#paint1_linear_401_3117)"/>
<path opacity="0.55" d="M300.859 238.638V127.977H374.449V145.999H321.411V172.795H366.782V189.631H321.411V220.458H375.002V238.638H300.859Z" fill="url(#paint2_linear_401_3117)"/>
<path opacity="0.55" d="M194.648 238.638V127.977H237.49C245.342 127.977 252.166 129.321 257.962 132.008C263.759 134.643 268.238 138.437 271.4 143.391C274.561 148.344 276.142 154.246 276.142 161.096C276.142 166.577 275.009 171.398 272.743 175.561C270.477 179.724 267.342 183.176 263.337 185.916C259.385 188.656 254.801 190.579 249.584 191.686L281.754 238.638H257.093L228.479 195.322H215.2V238.638H194.648ZM215.2 178.486H234.486C241.073 178.486 246.211 177.116 249.9 174.376C253.588 171.583 255.433 167.525 255.433 162.203C255.433 156.67 253.747 152.454 250.374 149.556C247.002 146.658 242.048 145.209 235.514 145.209H215.2V178.486Z" fill="url(#paint3_linear_401_3117)"/>
<path opacity="0.55" d="M125.578 238.638V146.789H94.9883V127.977H176.798V146.789H146.208V238.638H125.578Z" fill="url(#paint4_linear_401_3117)"/>
<path opacity="0.55" d="M42.1302 241.009C34.2258 241.009 26.5059 239.876 18.9704 237.61C11.4876 235.291 5.16417 231.998 0 227.73L9.95947 212.158C12.4889 214.477 15.5189 216.479 19.0495 218.165C22.5801 219.852 26.3215 221.169 30.2736 222.118C34.2785 223.013 38.257 223.461 42.2092 223.461C48.7962 223.461 54.1448 222.249 58.255 219.825C62.3653 217.349 64.4204 213.792 64.4204 209.154C64.4204 205.518 62.9976 202.488 60.1521 200.064C57.3065 197.588 52.0633 195.269 44.4224 193.109L33.6725 190.026C22.8699 186.97 15.0446 182.886 10.1966 177.774C5.4013 172.61 3.00365 166.287 3.00365 158.804C3.00365 153.903 4.00487 149.424 6.0073 145.366C8.00973 141.309 10.8289 137.805 14.4649 134.854C18.1536 131.903 22.501 129.637 27.5071 128.056C32.5132 126.475 37.9672 125.685 43.8691 125.685C51.6154 125.685 58.8083 126.818 65.448 129.083C72.0876 131.297 77.5153 134.327 81.7309 138.173L71.5343 153.271C69.3211 151.216 66.7127 149.424 63.709 147.896C60.7054 146.368 57.4646 145.208 53.9867 144.418C50.5088 143.575 47.0045 143.153 43.4739 143.153C39.3109 143.153 35.6749 143.733 32.5659 144.892C29.4569 146.051 27.0329 147.711 25.2939 149.872C23.5549 152.032 22.6855 154.667 22.6855 157.776C22.6855 160.042 23.2651 162.018 24.4244 163.704C25.6364 165.391 27.6915 166.945 30.5898 168.368C33.4881 169.738 37.4929 171.187 42.6044 172.715L53.8286 176.035C64.4204 179.144 72.1403 183.149 76.9883 188.05C81.8363 192.898 84.2603 199.221 84.2603 207.02C84.2603 213.713 82.574 219.615 79.2015 224.726C75.829 229.837 70.981 233.842 64.6575 236.741C58.3868 239.586 50.8776 241.009 42.1302 241.009Z" fill="url(#paint5_linear_401_3117)"/>
<path opacity="0.55" d="M199 74.9333V57.3066H242.948V74.9333H199Z" fill="url(#paint6_linear_401_3117)"/>
<path opacity="0.55" d="M92.8164 110.661L128.149 54.0657L94.5554 0H119.217L142.93 38.7313L167.987 0H191.937L156.921 54.54L192.885 110.661H168.066L142.06 69.4792L116.925 110.661H92.8164Z" fill="url(#paint7_linear_401_3117)"/>
<path opacity="0.55" d="M5.21875 110.661V0H78.8082V18.0219H25.77V44.8176H71.141V61.6539H25.77V92.4809H79.3615V110.661H5.21875Z" fill="url(#paint8_linear_401_3117)"/>
<defs>
<linearGradient id="paint0_linear_401_3117" x1="260.035" y1="376.839" x2="-399.469" y2="129.94" gradientUnits="userSpaceOnUse">
<stop offset="0.795228" stop-color="white"/>
<stop offset="1" stop-color="#E9E9E9"/>
</linearGradient>
<linearGradient id="paint1_linear_401_3117" x1="260.038" y1="376.839" x2="-399.466" y2="129.941" gradientUnits="userSpaceOnUse">
<stop offset="0.795228" stop-color="white"/>
<stop offset="1" stop-color="#E9E9E9"/>
</linearGradient>
<linearGradient id="paint2_linear_401_3117" x1="641.978" y1="247.089" x2="-17.5255" y2="0.190421" gradientUnits="userSpaceOnUse">
<stop offset="0.795228" stop-color="white"/>
<stop offset="1" stop-color="#E9E9E9"/>
</linearGradient>
<linearGradient id="paint3_linear_401_3117" x1="641.982" y1="247.089" x2="-17.5218" y2="0.190448" gradientUnits="userSpaceOnUse">
<stop offset="0.795228" stop-color="white"/>
<stop offset="1" stop-color="#E9E9E9"/>
</linearGradient>
<linearGradient id="paint4_linear_401_3117" x1="641.981" y1="247.089" x2="-17.523" y2="0.190434" gradientUnits="userSpaceOnUse">
<stop offset="0.795228" stop-color="white"/>
<stop offset="1" stop-color="#E9E9E9"/>
</linearGradient>
<linearGradient id="paint5_linear_401_3117" x1="641.977" y1="247.089" x2="-17.527" y2="0.190216" gradientUnits="userSpaceOnUse">
<stop offset="0.795228" stop-color="white"/>
<stop offset="1" stop-color="#E9E9E9"/>
</linearGradient>
<linearGradient id="paint6_linear_401_3117" x1="641.975" y1="247.089" x2="-17.5287" y2="0.19037" gradientUnits="userSpaceOnUse">
<stop offset="0.795228" stop-color="white"/>
<stop offset="1" stop-color="#E9E9E9"/>
</linearGradient>
<linearGradient id="paint7_linear_401_3117" x1="641.978" y1="247.089" x2="-17.5261" y2="0.190274" gradientUnits="userSpaceOnUse">
<stop offset="0.795228" stop-color="white"/>
<stop offset="1" stop-color="#E9E9E9"/>
</linearGradient>
<linearGradient id="paint8_linear_401_3117" x1="641.978" y1="247.089" x2="-17.5251" y2="0.190333" gradientUnits="userSpaceOnUse">
<stop offset="0.795228" stop-color="white"/>
<stop offset="1" stop-color="#E9E9E9"/>
</linearGradient>
</defs>
</svg>
