<svg width="1041" height="400" viewBox="0 0 1041 400" fill="none" xmlns="http://www.w3.org/2000/svg">
<path opacity="0.55" d="M845.324 395.453V212.104H878.196L951.273 331.805L937.915 331.936L1007.98 212.104H1040.46V395.453H1007.33L1007.85 256.632L1014.14 258.858L954.94 357.604H930.974L870.338 258.858L875.97 256.632L876.493 395.453H845.324Z" fill="url(#paint0_linear_401_1165)"/>
<path opacity="0.55" d="M639.949 395.453L710.276 212.104H748.256L820.023 395.453H781.651L766.067 353.937H692.334L677.274 395.453H639.949ZM700.716 324.994H757.423L728.611 250.608L700.716 324.994Z" fill="url(#paint1_linear_401_1165)"/>
<path opacity="0.55" d="M498.479 395.453V212.104H620.405V241.964H532.529V286.36H607.702V314.256H532.529V365.331H621.322V395.453H498.479Z" fill="url(#paint2_linear_401_1165)"/>
<path opacity="0.55" d="M322.496 395.453V212.104H393.478C406.487 212.104 417.793 214.331 427.397 218.784C437.001 223.149 444.423 229.435 449.661 237.642C454.9 245.849 457.519 255.628 457.519 266.978C457.519 276.058 455.642 284.047 451.887 290.944C448.133 297.842 442.938 303.56 436.303 308.1C429.755 312.64 422.159 315.827 413.515 317.661L466.817 395.453H425.957L378.548 323.685H356.546V395.453H322.496ZM356.546 295.79H388.501C399.415 295.79 407.928 293.52 414.039 288.98C420.151 284.352 423.207 277.63 423.207 268.811C423.207 259.644 420.413 252.659 414.825 247.857C409.237 243.055 401.03 240.654 390.204 240.654H356.546V295.79Z" fill="url(#paint3_linear_401_1165)"/>
<path opacity="0.55" d="M208.058 395.453V243.274H157.375V212.104H292.922V243.274H242.239V395.453H208.058Z" fill="url(#paint4_linear_401_1165)"/>
<path opacity="0.55" d="M69.8032 399.382C56.7069 399.382 43.9162 397.504 31.4311 393.75C19.0333 389.909 8.55624 384.452 0 377.38L16.5013 351.58C20.6921 355.422 25.7124 358.739 31.5621 361.533C37.4117 364.327 43.6106 366.51 50.1588 368.081C56.7942 369.566 63.386 370.308 69.9342 370.308C80.8478 370.308 89.7096 368.3 96.5197 364.283C103.33 360.18 106.735 354.287 106.735 346.603C106.735 340.579 104.377 335.559 99.6628 331.543C94.9481 327.439 86.2609 323.598 73.6012 320.018L55.7902 314.91C37.8919 309.847 24.9266 303.08 16.8942 294.611C8.94913 286.055 4.97659 275.578 4.97659 263.18C4.97659 255.06 6.63545 247.639 9.95318 240.916C13.2709 234.194 17.9419 228.388 23.9662 223.498C30.0778 218.609 37.2808 214.855 45.5751 212.236C53.8694 209.616 62.9058 208.307 72.6844 208.307C85.5188 208.307 97.4364 210.184 108.437 213.938C119.438 217.605 128.431 222.625 135.416 228.999L118.521 254.013C114.854 250.608 110.533 247.639 105.556 245.107C100.579 242.575 95.21 240.654 89.4477 239.345C83.6853 237.948 77.8793 237.249 72.0296 237.249C65.1322 237.249 59.1079 238.21 53.9567 240.131C48.8055 242.051 44.7893 244.802 41.9081 248.381C39.0269 251.961 37.5863 256.326 37.5863 261.478C37.5863 265.232 38.5467 268.506 40.4675 271.3C42.4756 274.094 45.8807 276.669 50.6826 279.027C55.4846 281.297 62.1201 283.698 70.589 286.23L89.1857 291.73C106.735 296.881 119.525 303.517 127.558 311.636C135.59 319.669 139.606 330.146 139.606 343.067C139.606 354.156 136.813 363.934 131.225 372.403C125.637 380.872 117.605 387.508 107.128 392.309C96.7379 397.024 84.2965 399.382 69.8032 399.382Z" fill="url(#paint5_linear_401_1165)"/>
<path opacity="0.55" d="M329.717 124.219V95.0146H402.532V124.219H329.717Z" fill="url(#paint6_linear_401_1165)"/>
<path opacity="0.55" d="M153.781 183.414L212.322 89.645L156.662 0.0664062H197.523L236.812 64.2382L278.327 0.0664062H318.009L259.992 90.4308L319.58 183.414H278.458L235.371 115.183L193.725 183.414H153.781Z" fill="url(#paint7_linear_401_1165)"/>
<path opacity="0.55" d="M8.64062 183.414V0.0664062H130.567V29.9259H42.691V74.3224H117.864V102.217H42.691V153.293H131.484V183.414H8.64062Z" fill="url(#paint8_linear_401_1165)"/>
<defs>
<linearGradient id="paint0_linear_401_1165" x1="1063.66" y1="409.455" x2="-29.0378" y2="0.381569" gradientUnits="userSpaceOnUse">
<stop offset="0.795228" stop-color="white"/>
<stop offset="1" stop-color="#E9E9E9"/>
</linearGradient>
<linearGradient id="paint1_linear_401_1165" x1="1063.66" y1="409.455" x2="-29.0364" y2="0.381669" gradientUnits="userSpaceOnUse">
<stop offset="0.795228" stop-color="white"/>
<stop offset="1" stop-color="#E9E9E9"/>
</linearGradient>
<linearGradient id="paint2_linear_401_1165" x1="1063.66" y1="409.455" x2="-29.0365" y2="0.381572" gradientUnits="userSpaceOnUse">
<stop offset="0.795228" stop-color="white"/>
<stop offset="1" stop-color="#E9E9E9"/>
</linearGradient>
<linearGradient id="paint3_linear_401_1165" x1="1063.66" y1="409.455" x2="-29.0375" y2="0.381622" gradientUnits="userSpaceOnUse">
<stop offset="0.795228" stop-color="white"/>
<stop offset="1" stop-color="#E9E9E9"/>
</linearGradient>
<linearGradient id="paint4_linear_401_1165" x1="1063.66" y1="409.455" x2="-29.039" y2="0.381572" gradientUnits="userSpaceOnUse">
<stop offset="0.795228" stop-color="white"/>
<stop offset="1" stop-color="#E9E9E9"/>
</linearGradient>
<linearGradient id="paint5_linear_401_1165" x1="1063.66" y1="409.455" x2="-29.0395" y2="0.38161" gradientUnits="userSpaceOnUse">
<stop offset="0.795228" stop-color="white"/>
<stop offset="1" stop-color="#E9E9E9"/>
</linearGradient>
<linearGradient id="paint6_linear_401_1165" x1="1063.66" y1="409.455" x2="-29.0381" y2="0.381777" gradientUnits="userSpaceOnUse">
<stop offset="0.795228" stop-color="white"/>
<stop offset="1" stop-color="#E9E9E9"/>
</linearGradient>
<linearGradient id="paint7_linear_401_1165" x1="1063.66" y1="409.455" x2="-29.0394" y2="0.381615" gradientUnits="userSpaceOnUse">
<stop offset="0.795228" stop-color="white"/>
<stop offset="1" stop-color="#E9E9E9"/>
</linearGradient>
<linearGradient id="paint8_linear_401_1165" x1="1063.65" y1="409.455" x2="-29.0425" y2="0.381665" gradientUnits="userSpaceOnUse">
<stop offset="0.795228" stop-color="white"/>
<stop offset="1" stop-color="#E9E9E9"/>
</linearGradient>
</defs>
</svg>
