<svg width="8" height="13" viewBox="0 0 8 13" fill="none" xmlns="http://www.w3.org/2000/svg">
<path d="M2.87012 8.68614C2.85978 8.63442 2.85461 8.58269 2.85461 8.53097C2.85461 8.4689 2.85461 8.412 2.85461 8.36028C2.85461 8.112 2.88564 7.86373 2.94771 7.61545C3.00978 7.36717 3.16495 7.10338 3.41323 6.82407C3.51668 6.69993 3.63564 6.57579 3.77012 6.45166C3.90461 6.31717 4.03909 6.18269 4.17357 6.04821C4.3184 5.91373 4.45805 5.77924 4.59254 5.64476C4.73737 5.51028 4.86668 5.38097 4.98047 5.25683C5.17702 5.02924 5.33737 4.78097 5.4615 4.512C5.59599 4.24304 5.66323 3.97924 5.66323 3.72062C5.66323 3.19304 5.49254 2.79993 5.15116 2.54131C4.82012 2.28269 4.38564 2.14304 3.84771 2.12235C3.63047 2.12235 3.41323 2.14304 3.19599 2.18442C2.98909 2.2258 2.79254 2.29821 2.60633 2.40166C2.42012 2.49476 2.25978 2.62407 2.1253 2.78959C1.99081 2.94476 1.89771 3.13614 1.84599 3.36373H0.480469C0.532193 2.94993 0.661503 2.58786 0.8684 2.27752C1.0753 1.96717 1.32874 1.71373 1.62874 1.51717C1.93909 1.31028 2.28047 1.15511 2.65288 1.05166C3.03564 0.948209 3.42874 0.896484 3.83219 0.896484C4.26668 0.896484 4.6753 0.953381 5.05805 1.06717C5.44081 1.18097 5.77702 1.35166 6.06668 1.57924C6.35633 1.80683 6.58392 2.08614 6.74943 2.41717C6.9253 2.74821 7.01323 3.162 7.01323 3.65855C7.00288 4.13442 6.90461 4.56373 6.7184 4.94648C6.53219 5.32924 6.27874 5.69131 5.95805 6.03269C5.84426 6.14649 5.71495 6.27062 5.57012 6.40511C5.4253 6.53959 5.28047 6.67924 5.13564 6.82407C4.99081 6.9689 4.85116 7.11373 4.71668 7.25855C4.59254 7.40338 4.49426 7.53786 4.42185 7.662C4.33909 7.79649 4.28219 7.94648 4.25116 8.112C4.23047 8.27752 4.22012 8.42752 4.22012 8.562V8.68614H2.87012ZM3.52185 10.2534C3.79081 10.2534 4.01323 10.3413 4.18909 10.5172C4.36495 10.693 4.45288 10.9154 4.45288 11.1844C4.45288 11.4534 4.36495 11.6758 4.18909 11.8517C4.01323 12.0275 3.79081 12.1154 3.52185 12.1154C3.25288 12.1154 3.03047 12.0275 2.85461 11.8517C2.68909 11.6758 2.60633 11.4534 2.60633 11.1844C2.60633 10.9154 2.68909 10.693 2.85461 10.5172C3.03047 10.3413 3.25288 10.2534 3.52185 10.2534Z" fill="#6A78C1"/>
</svg>
