<svg width="138" height="22" viewBox="0 0 138 22" fill="none" xmlns="http://www.w3.org/2000/svg">
<g clip-path="url(#clip0_685_62)">
<path d="M104.963 13.8128C104.696 14.3997 104.31 14.8986 103.835 15.3388C103.36 15.7496 103.004 16.1018 102.381 16.3366C101.758 16.5714 101.015 16.718 100.303 16.718C100.303 17.3343 99.8874 17.8919 99.2641 17.8919H98.1361C97.5129 17.8919 97.0377 17.3343 97.0377 16.718C96.2958 16.6594 95.5539 16.5126 94.9301 16.2779C94.3068 16.0431 93.9213 15.7203 93.4462 15.2801C93.0011 14.8693 92.6151 14.3704 92.3773 13.7834C92.1105 13.1965 91.9918 12.5509 91.9918 11.8466V9.96843C91.9918 9.26413 92.14 8.6185 92.4369 8.03162C92.7338 7.44468 93.1198 6.97516 93.5944 6.56432C94.0695 6.15343 94.4554 5.83064 95.0787 5.62523C95.702 5.39044 96.3549 5.27307 97.0082 5.2437H97.0673C97.216 4.80353 97.6315 4.39267 98.1361 4.39267H99.2641C99.7687 4.39267 100.184 4.77418 100.333 5.2437H100.392C101.075 5.27307 101.758 5.39044 102.381 5.62523C103.004 5.85996 103.36 6.1828 103.835 6.59363C104.31 7.00447 104.696 7.50336 104.963 8.06093C105.231 8.6185 105.379 9.26413 105.379 9.9978V11.8759C105.379 12.5802 105.231 13.2259 104.963 13.8128ZM97.0673 7.9142C96.7709 7.9142 96.3253 8.00225 96.0585 8.0903C95.7912 8.20767 95.5539 8.3544 95.3461 8.55982C95.1378 8.76524 94.9896 9.00003 94.871 9.2935C94.7523 9.58696 94.6928 9.90975 94.6928 10.2619V11.6412C94.6928 11.9933 94.7523 12.3161 94.871 12.6096C94.9896 12.9031 95.1679 13.1378 95.3461 13.3432C95.5539 13.5487 95.7912 13.6954 96.0585 13.8128C96.3253 13.9302 96.7709 14.0769 97.0673 14.0769V7.9142ZM102.707 10.2619C102.707 9.52823 102.5 8.97066 102.084 8.55982C101.669 8.14898 100.956 7.94357 100.303 7.9142V14.0769C100.897 14.0475 101.609 13.7541 102.054 13.3432C102.47 12.9324 102.707 12.3748 102.707 11.6412V10.2619ZM136.903 17.8919H135.864C135.24 17.8919 134.736 17.393 134.736 16.7768V11.5825H134.677L132.391 15.5149C132.183 15.8964 131.827 16.1018 131.411 16.1018H130.521C130.105 16.1018 129.749 15.8964 129.541 15.5149L127.434 11.5825H127.345V16.7474C127.345 17.3637 126.84 17.8625 126.217 17.8625H125.178C124.554 17.8625 124.05 17.3637 124.05 16.7474V5.44912C124.05 4.83287 124.554 4.33398 125.178 4.33398H126.128C126.543 4.33398 126.899 4.53941 127.107 4.92091L130.907 11.9346H131.025L134.795 4.92091C135.003 4.53941 135.359 4.33398 135.775 4.33398H136.873C137.497 4.33398 138.001 4.83287 138.001 5.44912V16.7474C138.031 17.393 137.526 17.8919 136.903 17.8919ZM114.314 7.32731H112.473V16.7768C112.473 17.393 111.969 17.8919 111.345 17.8919H110.336C109.713 17.8919 109.208 17.393 109.208 16.7768V7.32731H107.368C106.745 7.32731 106.24 6.82842 106.24 6.21211V5.50781C106.24 4.89156 106.745 4.39267 107.368 4.39267H114.343C114.967 4.39267 115.471 4.89156 115.471 5.50781V6.21211C115.442 6.82842 114.937 7.32731 114.314 7.32731ZM35.2664 9.3815C36.6615 9.3815 37.7598 9.76302 38.5612 10.4967C39.3627 11.2303 39.7783 12.2575 39.7783 13.578C39.7783 14.0769 39.6892 14.6345 39.5408 15.1334C39.3924 15.6323 39.1252 16.1018 38.769 16.5126C38.4128 16.9235 37.9676 17.2463 37.4036 17.5104C36.8396 17.7745 36.1866 17.8919 35.3851 17.8919H30.4873C29.864 17.8919 29.3594 17.393 29.3594 16.7768V5.47849C29.3594 4.86221 29.864 4.36334 30.4873 4.36334H37.1661C37.7895 4.36334 38.2941 4.86221 38.2941 5.47849V6.21211C38.2941 6.82842 37.7895 7.32731 37.1661 7.32731H32.6542V9.3815H35.2664ZM32.6542 15.2507H34.9399C35.5038 15.2507 35.9491 15.104 36.2756 14.8105C36.6021 14.5171 36.7803 14.0182 36.7803 13.6074C36.7803 13.1965 36.6021 12.7857 36.2756 12.4922C35.9491 12.1988 35.5038 12.052 34.9102 12.052H32.6245V15.2507H32.6542ZM52.008 17.8919H50.9692C50.3456 17.8919 49.841 17.393 49.841 16.7768V9.93912H49.752L45.0323 17.393C44.8245 17.7158 44.498 17.8919 44.0824 17.8919H42.9544C42.3311 17.8919 41.8264 17.393 41.8264 16.7768V5.47849C41.8264 4.86221 42.3311 4.36334 42.9544 4.36334H43.9636C44.587 4.36334 45.0916 4.86221 45.0916 5.47849V12.4629H45.151L49.9597 4.89156C50.1675 4.56876 50.5237 4.39267 50.9096 4.39267H52.008C52.6313 4.39267 53.1359 4.89156 53.1359 5.50781V16.8061C53.1359 17.393 52.6313 17.8919 52.008 17.8919ZM65.4546 15.5149C65.1577 16.0725 64.7717 16.5126 64.2971 16.8648C63.822 17.2169 63.2878 17.5104 62.6645 17.6865C62.0112 17.8625 61.3584 17.9506 60.646 17.9506C59.9336 17.9506 59.2802 17.8625 58.6274 17.6865C58.0041 17.5104 57.4399 17.2463 56.9352 16.8648C56.4306 16.5126 56.1933 16.0431 55.8964 15.5149C55.5995 14.9866 55.4514 14.341 55.4514 13.6074V8.58919C55.4514 7.85551 55.5995 7.20989 55.926 6.68169C56.2529 6.15343 56.5197 5.71328 57.0244 5.36112C57.529 5.00895 58.0932 4.74483 58.7165 4.5981C59.3398 4.42203 59.9631 4.33398 60.6159 4.33398C61.2693 4.33398 61.8925 4.42203 62.5158 4.5981C63.1391 4.77418 63.7034 5.0383 64.208 5.39044C64.7126 5.74259 65.0686 6.1828 65.395 6.74037C65.6919 7.29794 65.8406 7.9142 65.8406 8.64787V13.578C65.8701 14.341 65.7515 14.9573 65.4546 15.5149ZM62.9314 9.11739C62.9314 8.73592 62.8723 8.41309 62.7236 8.14898C62.605 7.88488 62.4267 7.67946 62.219 7.50336C62.0112 7.32731 61.7739 7.20989 61.5361 7.15121C61.2693 7.06316 60.9128 7.03384 60.6755 7.03384C60.4082 7.03384 60.1413 7.06316 59.9035 7.15121C59.6367 7.23926 59.4289 7.35663 59.2212 7.50336C59.0134 7.6501 58.8352 7.88488 58.7165 8.14898C58.5979 8.41309 58.5087 8.73592 58.5087 9.11739V13.1378C58.5087 13.5193 58.5678 13.8421 58.7165 14.1062C58.8352 14.3704 59.0134 14.5758 59.2212 14.7518C59.4289 14.928 59.6662 15.0453 59.9035 15.104C60.1709 15.1921 60.4082 15.2214 60.6755 15.2214C60.9128 15.2214 61.2988 15.1921 61.5361 15.104C61.8034 15.016 62.0407 14.8986 62.219 14.7518C62.4267 14.6051 62.5754 14.3704 62.7236 14.1062C62.8423 13.8421 62.9314 13.5193 62.9314 13.1378V9.11739ZM76.8235 7.12189C76.5267 7.59141 75.9034 7.76746 75.3987 7.53273C74.8345 7.26857 74.2407 7.15121 73.5283 7.15121C73.2615 7.15121 72.9346 7.18057 72.6678 7.26863C72.4004 7.35663 72.1631 7.47404 71.9553 7.62073C71.7476 7.76746 71.5694 8.00225 71.4507 8.26635C71.302 8.53051 71.2429 8.85329 71.2429 9.23481V13.0204C71.2429 13.402 71.302 13.7248 71.4507 13.9889C71.5989 14.253 71.7771 14.4584 71.9849 14.6345C72.1926 14.7812 72.4299 14.928 72.6973 14.9866C72.9646 15.0747 73.291 15.104 73.5584 15.104C73.9739 15.104 74.419 15.0453 74.864 14.928C75.0718 14.8693 75.25 14.8106 75.4283 14.7225C75.9624 14.4877 76.5562 14.6638 76.8531 15.1627L77.1795 15.6909C77.3577 15.955 77.3872 16.2779 77.2981 16.5713C77.209 16.8941 77.0013 17.0996 76.7044 17.2463C76.4375 17.3637 76.1407 17.4811 75.8143 17.5984C75.0718 17.8332 74.3003 17.9506 73.4988 17.9506C72.8755 17.9506 72.2522 17.8625 71.5989 17.6865C70.9756 17.5104 70.3818 17.2757 69.9072 16.9235C69.4026 16.5714 69.0757 16.1311 68.7493 15.6029C68.4229 15.0747 68.2747 14.4291 68.2747 13.6954V8.64787C68.2747 7.9142 68.4229 7.26857 68.7197 6.74037C69.0166 6.21211 69.343 5.77196 69.8477 5.39044C70.3523 5.0383 70.9165 4.77418 71.5098 4.5981C72.1336 4.42203 72.7569 4.33398 73.4097 4.33398C74.6563 4.33398 75.6956 4.53941 76.7044 5.03829C77.0013 5.18502 77.1795 5.41981 77.2686 5.74259C77.3577 6.06543 77.2981 6.35885 77.15 6.623L76.8235 7.12189ZM89.4981 15.5149C89.2013 16.0725 88.8153 16.5126 88.3407 16.8648C87.8656 17.2169 87.3314 17.5104 86.6781 17.6865C86.0252 17.8625 85.3724 17.9506 84.66 17.9506C83.9476 17.9506 83.2943 17.8625 82.6414 17.6865C82.0181 17.5104 81.6026 17.2463 81.098 16.8648C80.5933 16.5126 80.2073 16.0431 79.94 15.5149C79.6431 14.9866 79.4949 14.341 79.4949 13.6074V8.58919C79.4949 7.85551 79.6431 7.20989 79.97 6.68169C80.2964 6.15343 80.6819 5.71328 81.1866 5.36112C81.6912 5.00895 82.1067 4.74483 82.7305 4.5981C83.3538 4.42203 83.9771 4.33398 84.63 4.33398C85.2833 4.33398 85.9066 4.42203 86.5299 4.5981C87.1532 4.77418 87.7174 5.0383 88.192 5.39044C88.6966 5.74259 89.0826 6.1828 89.409 6.74037C89.7059 7.29794 89.8841 7.9142 89.8841 8.64787V13.578C89.9432 14.341 89.795 14.9573 89.4981 15.5149ZM86.9749 9.26413C86.9749 8.88266 86.9159 8.55982 86.7672 8.29572C86.6485 8.03162 86.4703 7.8262 86.2625 7.6501C86.0548 7.50336 85.8175 7.35663 85.5802 7.29794C85.3128 7.20989 84.9268 7.18057 84.6895 7.18057C84.4222 7.18057 84.1554 7.20989 83.9175 7.29794C83.6507 7.38599 83.443 7.50336 83.2352 7.6501C83.0274 7.79683 82.8492 8.03162 82.7305 8.29572C82.6114 8.55982 82.5228 8.88266 82.5228 9.26413V13.0498C82.5228 13.4313 82.5819 13.7541 82.7305 14.0182C82.8492 14.2823 83.0274 14.4877 83.2352 14.6638C83.443 14.8105 83.6803 14.9573 83.9175 15.016C84.1849 15.104 84.4222 15.1334 84.6895 15.1334C84.9268 15.1334 85.3128 15.104 85.5802 15.016C85.847 14.928 86.0848 14.8105 86.2625 14.6638C86.4703 14.5171 86.619 14.2823 86.7672 14.0182C86.8858 13.7541 86.9749 13.4313 86.9749 13.0498V9.26413ZM120.577 13.1965H117.163C116.54 13.1965 116.035 12.6976 116.035 12.0814V11.6705C116.035 11.0543 116.54 10.5554 117.163 10.5554H120.577C121.2 10.5554 121.705 11.0543 121.705 11.6705V12.0814C121.675 12.6976 121.2 13.1965 120.577 13.1965Z" fill="#545454"/>
<path fill-rule="evenodd" clip-rule="evenodd" d="M20.1564 0.0197424C11.756 -0.303065 0.416828 3.30651 2.25721 12.7853C2.61341 14.5754 3.50391 16.0721 4.72094 17.246L6.11608 14.5461C5.61144 13.9005 5.22555 13.1081 5.04746 12.2571C3.91949 6.29983 10.3311 3.8054 15.8226 3.10109C15.4961 5.71289 15.8523 8.55948 15.882 10.9659C15.9116 12.5212 15.7929 14.4874 14.6946 15.6906L14.6649 15.7199L14.6352 15.7493C14.3087 16.1308 13.9229 16.4242 13.5073 16.6296C12.7949 16.9818 12.0231 17.0992 11.2216 17.0698L9.8265 19.799C12.4387 20.2686 15.1102 19.623 16.8318 17.6274C18.4347 15.808 18.7613 13.4016 18.7316 10.9659C18.6722 6.82803 17.7817 2.19136 20.1564 0.0197424Z" fill="#545454"/>
<path d="M13.2092 9.29336C13.1498 9.41073 13.0904 9.49878 13.0608 9.58683L7.65834 20.0634C7.035 21.2959 5.84764 22.0003 4.5119 22.0003H3.53234V19.6525H4.15569C4.80873 19.6525 5.37273 19.3004 5.66956 18.7135L7.77709 14.5463C8.28168 13.5779 8.34106 12.6388 8.13329 11.8171C7.89584 10.8487 7.30213 10.0564 6.61942 9.64551L7.89584 7.59128C8.75663 8.14885 9.5581 9.02926 10.0627 10.0857L10.8939 8.47168C10.9532 8.35432 10.9829 8.26627 11.0423 8.17822C11.6063 7.09239 12.1406 6.00661 13.3873 5.56641L14.1887 7.85543C13.8919 8.00216 13.5654 8.64774 13.2092 9.29336ZM0 22.0003V19.6525H2.37468V22.0003H0Z" fill="#878787"/>
</g>
<defs>
<clipPath id="clip0_685_62">
<rect width="138" height="22" fill="white"/>
</clipPath>
</defs>
</svg>
